<svg xmlns="http://www.w3.org/2000/svg" xml:space="preserve" viewBox="0 0 512 512"><path d="M299.956 460.255H503.83v32.681H299.956z" style="fill:#27467a"/><path d="M8.17 460.255h203.874v32.681H8.17z" style="fill:#d0fbfd"/><path d="M281.241 366.189v43.574L256 431.551l-25.241-21.788v-43.574z" style="fill:#2f5e88"/><path d="M230.759 409.763h50.481v54.468h-50.481z" style="fill:#2f5e88"/><path d="M201.151 453.338H310.85v50.492H201.151z" style="fill:#78e3ec"/><path d="M22.887 80.308h466.225V368.76H22.887z" style="fill:#27467a"/><path d="M487.871 283.162H24.129c-8.813 0-15.959 7.146-15.959 15.959v72.9c0 8.813 7.146 15.959 15.959 15.959h463.742c8.813 0 15.959-7.146 15.959-15.959v-72.9c0-8.813-7.146-15.959-15.959-15.959" style="fill:#d0fbfd"/><circle cx="451.933" cy="335.567" r="16.34" style="fill:#fff"/><circle cx="379.348" cy="335.567" r="16.34" style="fill:#ffcd60"/><path d="M487.871 145.665H24.129c-8.813 0-15.959 7.146-15.959 15.959v72.9c0 8.813 7.146 15.959 15.959 15.959H487.87c8.813 0 15.959-7.146 15.959-15.959v-72.9c.001-8.813-7.145-15.959-15.958-15.959" style="fill:#d0fbfd"/><circle cx="451.933" cy="198.068" r="16.34" style="fill:#fff"/><circle cx="379.348" cy="198.068" r="16.34" style="fill:#ffcd60"/><path d="M487.871 8.17H24.129c-8.813 0-15.959 7.146-15.959 15.959v72.9c0 8.813 7.146 15.959 15.959 15.959H487.87c8.813 0 15.959-7.146 15.959-15.959v-72.9c.001-8.813-7.145-15.959-15.958-15.959" style="fill:#d0fbfd"/><circle cx="451.933" cy="60.578" r="16.34" style="fill:#fff"/><circle cx="379.348" cy="60.578" r="16.34" style="fill:#ffcd60"/><path d="M487.872 121.157H24.128C10.824 121.157 0 110.333 0 97.028V24.127C0 10.824 10.824 0 24.128 0h463.743C501.176 0 512 10.824 512 24.127v72.901c0 13.305-10.824 24.129-24.128 24.129M24.128 16.34c-4.294 0-7.788 3.494-7.788 7.787v72.901c0 4.293 3.494 7.787 7.788 7.787h463.743c4.294 0 7.788-3.494 7.788-7.787V24.127c0-4.293-3.494-7.787-7.788-7.787zm286.41 189.906H60.578c-4.512 0-8.17-3.657-8.17-8.17s3.658-8.17 8.17-8.17h249.959c4.512 0 8.17 3.657 8.17 8.17s-3.657 8.17-8.169 8.17m140.884 16.34c-13.516 0-24.511-10.996-24.511-24.511s10.995-24.511 24.511-24.511 24.511 10.996 24.511 24.511c-.001 13.515-10.996 24.511-24.511 24.511m0-32.681c-4.506 0-8.17 3.665-8.17 8.17s3.665 8.17 8.17 8.17 8.17-3.665 8.17-8.17-3.665-8.17-8.17-8.17m-72.136 32.681c-13.516 0-24.511-10.996-24.511-24.511s10.995-24.511 24.511-24.511 24.511 10.996 24.511 24.511-10.995 24.511-24.511 24.511m0-32.681c-4.506 0-8.17 3.665-8.17 8.17s3.665 8.17 8.17 8.17 8.17-3.665 8.17-8.17-3.664-8.17-8.17-8.17"/><path d="M487.872 258.654H24.128C10.824 258.654 0 247.83 0 234.525v-72.9c0-13.304 10.824-24.128 24.128-24.128h463.743c13.304 0 24.128 10.825 24.128 24.128v72.9c.001 13.305-10.823 24.129-24.127 24.129M24.128 153.837c-4.294 0-7.788 3.494-7.788 7.788v72.9c0 4.293 3.494 7.787 7.788 7.787h463.743c4.294 0 7.788-3.494 7.788-7.787v-72.9c0-4.294-3.494-7.788-7.788-7.788zm286.41 189.906H60.578a8.17 8.17 0 0 1-8.17-8.17 8.17 8.17 0 0 1 8.17-8.17h249.959c4.512 0 8.17 3.657 8.17 8.17s-3.657 8.17-8.169 8.17m140.884 16.34c-13.516 0-24.511-10.996-24.511-24.511s10.995-24.511 24.511-24.511 24.511 10.996 24.511 24.511-10.996 24.511-24.511 24.511m0-32.681c-4.506 0-8.17 3.665-8.17 8.17s3.665 8.17 8.17 8.17 8.17-3.665 8.17-8.17-3.665-8.17-8.17-8.17m-72.136 32.681c-13.516 0-24.511-10.996-24.511-24.511s10.995-24.511 24.511-24.511 24.511 10.996 24.511 24.511-10.995 24.511-24.511 24.511m0-32.681c-4.506 0-8.17 3.665-8.17 8.17s3.665 8.17 8.17 8.17 8.17-3.665 8.17-8.17c.001-4.505-3.664-8.17-8.17-8.17"/><path d="M487.872 396.151H24.128C10.824 396.151 0 385.327 0 372.022v-72.9c0-13.304 10.824-24.128 24.128-24.128h463.743c13.304 0 24.128 10.825 24.128 24.128v72.9c.001 13.305-10.823 24.129-24.127 24.129M24.128 291.333c-4.294 0-7.788 3.494-7.788 7.789v72.9c0 4.294 3.494 7.788 7.788 7.788h463.743c4.294 0 7.788-3.494 7.788-7.788v-72.9c0-4.294-3.494-7.789-7.788-7.789zM310.853 512H201.148a8.17 8.17 0 0 1-8.17-8.17v-50.488a8.17 8.17 0 0 1 8.17-8.17h47.414a8.17 8.17 0 0 1 8.17 8.17 8.17 8.17 0 0 1-8.17 8.17h-39.244v34.147h93.364v-34.147h-21.439a8.17 8.17 0 0 1-8.17-8.17v-32.681c0-4.513 3.658-8.17 8.17-8.17s8.17 3.657 8.17 8.17v24.511h21.439a8.17 8.17 0 0 1 8.17 8.17v50.488a8.17 8.17 0 0 1-8.169 8.17"/><path d="M230.756 461.512a8.17 8.17 0 0 1-8.17-8.17v-32.681c0-4.513 3.658-8.17 8.17-8.17s8.17 3.657 8.17 8.17v32.681a8.17 8.17 0 0 1-8.17 8.17m273.074 39.594H310.853a8.17 8.17 0 0 1-8.17-8.17 8.17 8.17 0 0 1 8.17-8.17H503.83a8.17 8.17 0 0 1 8.17 8.17 8.17 8.17 0 0 1-8.17 8.17m0-32.68H310.853a8.17 8.17 0 0 1-8.17-8.17 8.17 8.17 0 0 1 8.17-8.17H503.83a8.17 8.17 0 0 1 8.17 8.17 8.17 8.17 0 0 1-8.17 8.17m-302.682 32.68H8.17a8.17 8.17 0 0 1-8.17-8.17 8.17 8.17 0 0 1 8.17-8.17h192.978a8.17 8.17 0 0 1 8.17 8.17 8.17 8.17 0 0 1-8.17 8.17m0-32.68H8.17a8.17 8.17 0 0 1-8.17-8.17 8.17 8.17 0 0 1 8.17-8.17h192.978a8.17 8.17 0 0 1 8.17 8.17 8.17 8.17 0 0 1-8.17 8.17m109.39-399.677H60.578c-4.512 0-8.17-3.657-8.17-8.17s3.658-8.17 8.17-8.17h249.959c4.512 0 8.17 3.657 8.17 8.17s-3.657 8.17-8.169 8.17m140.884 16.34c-13.516 0-24.511-10.996-24.511-24.511s10.995-24.511 24.511-24.511 24.511 10.996 24.511 24.511c-.001 13.516-10.996 24.511-24.511 24.511m0-32.681c-4.506 0-8.17 3.665-8.17 8.17s3.665 8.17 8.17 8.17 8.17-3.665 8.17-8.17c0-4.504-3.665-8.17-8.17-8.17m-72.136 32.681c-13.516 0-24.511-10.996-24.511-24.511s10.995-24.511 24.511-24.511 24.511 10.996 24.511 24.511c0 13.516-10.995 24.511-24.511 24.511m0-32.681c-4.506 0-8.17 3.665-8.17 8.17s3.665 8.17 8.17 8.17 8.17-3.665 8.17-8.17c.001-4.504-3.664-8.17-8.17-8.17"/></svg>