<svg width="24" height="24" viewBox="0 0 24 24" fill="none"
    xmlns="http://www.w3.org/2000/svg">
    <g clip-path="url(#clip0_856_78)">
        <path d="M24 18C24 18.7072 23.719 19.3855 23.219 19.8856C22.7189 20.3857 22.0406 20.6667 21.3333 20.6667H2.66667C1.95942 20.6667 1.28115 20.3857 0.781049 19.8856C0.280952 19.3855 0 18.7072 0 18V6C0 5.29276 0.280952 4.61448 0.781049 4.11438C1.28115 3.61429 1.95942 3.33334 2.66667 3.33334H21.3333C22.0406 3.33334 22.7189 3.61429 23.219 4.11438C23.719 4.61448 24 5.29276 24 6V18Z" fill="#009B3A"/>
        <path d="M21.819 12L12.0003 19.416L2.18164 12L12.0003 4.58334L21.819 12Z" fill="#FEDF01"/>
        <path d="M11.9831 16.2547C14.3608 16.2547 16.2884 14.3271 16.2884 11.9493C16.2884 9.57156 14.3608 7.644 11.9831 7.644C9.6053 7.644 7.67773 9.57156 7.67773 11.9493C7.67773 14.3271 9.6053 16.2547 11.9831 16.2547Z" fill="#002776"/>
        <path d="M8.18433 9.92467C7.96072 10.346 7.80929 10.8019 7.73633 11.2733C10.3997 11.08 14.0143 12.534 15.5657 14.3367C15.8337 13.934 16.0323 13.4833 16.1543 13.0007C14.2397 11.1287 10.8763 9.914 8.18433 9.92467Z" fill="#CBE9D4"/>
        <path d="M8 12.1553H8.66667V12.822H8V12.1553ZM8.66667 13.4887H9.33333V14.1553H8.66667V13.4887Z" fill="#88C9F9"/>
        <path d="M10 12.1553H10.6667V12.822H10V12.1553ZM11.3333 12.822H12V13.4887H11.3333V12.822ZM14 14.1553H14.6667V14.822H14V14.1553ZM12 14.822H12.6667V15.4887H12V14.822ZM14 10.822H14.6667V11.4887H14V10.822Z" fill="#55ACEE"/>
        <path d="M12.666 13.4887H13.3327V14.1553H12.666V13.4887Z" fill="#3B88C3"/>
    </g>
    <defs>
        <clipPath id="clip0_856_78">
            <rect width="24" height="24" fill="white"/>
        </clipPath>
    </defs>
</svg>