<svg xmlns="http://www.w3.org/2000/svg" width="34" height="34" fill="none"><path fill="#6BBAE2" d="M31.501 19.577c-.59-.233-.877-.9-.644-1.49 1.863-4.691.45-9.345-2.584-12.368-3.18-3.169-8.148-4.55-12.964-2.291a1.15 1.15 0 0 1-1.528-.553 1.14 1.14 0 0 1 .553-1.528C20.114-1.367 26.062.291 29.892 4.1c3.641 3.62 5.342 9.199 3.1 14.833-.234.59-.905.883-1.49.645"/><path fill="#6BBAE2" d="M28.105 16.278a1.15 1.15 0 0 1-1.143-1.306 6.89 6.89 0 0 0-2.021-5.921 6.89 6.89 0 0 0-5.964-1.858 1.151 1.151 0 0 1-.385-2.27 9.17 9.17 0 0 1 7.974 2.503 9.14 9.14 0 0 1 2.67 7.86c-.08.58-.568.992-1.131.992"/><path fill="#C5DCFD" d="M29.714 30.823 19.42 20.53l2.709-2.709a3.065 3.065 0 0 1 4.334 0l5.959 5.96a3.065 3.065 0 0 1 0 4.333z"/><path fill="#B1C6E4" d="M17.525 31.636 2.356 16.467a8.044 8.044 0 0 1 0-11.376l2.438-2.438 10.293 10.293-1.625 1.625 5.96 5.96 1.624-1.626L31.34 29.198l-2.437 2.438a8.044 8.044 0 0 1-11.377 0"/><path fill="#9DB0CA" d="m19.42 20.53-2.979-2.98-6.5 6.502 7.584 7.584a8.044 8.044 0 0 0 11.376 0l2.438-2.438-10.293-10.293z"/><path fill="#DBE9FD" d="M13.462 14.571 3.169 4.278 5.878 1.57a3.065 3.065 0 0 1 4.333 0l5.96 5.96a3.065 3.065 0 0 1 0 4.334z"/><path fill="#60AED5" d="M28.105 16.277a1.15 1.15 0 0 1-1.143-1.305 6.89 6.89 0 0 0-2.02-5.922l1.625-1.625a9.14 9.14 0 0 1 2.67 7.86c-.08.58-.568.992-1.132.992m3.397 3.3c-.59-.233-.877-.9-.644-1.49 1.863-4.692.45-9.345-2.585-12.368l1.62-1.62c3.64 3.619 5.342 9.199 3.099 14.833-.233.59-.905.883-1.49.645"/></svg>