<svg width="36" height="36" viewBox="0 0 36 36" fill="none"
    xmlns="http://www.w3.org/2000/svg">
    <g clip-path="url(#clip0_866_858)">
        <path d="M27.0009 10.575C27.0009 10.1772 26.8429 9.79564 26.5615 9.51434C26.2802 9.23304 25.8987 9.075 25.5009 9.075L13.5009 9C13.1031 9 12.7215 9.15804 12.4402 9.43934C12.1589 9.72064 12.0009 10.1022 12.0009 10.5C12.0009 10.8978 12.1589 11.2794 12.4402 11.5607C12.7215 11.842 13.1031 12 13.5009 12H21.8409L9.43588 24.435C9.29529 24.5744 9.1837 24.7403 9.10755 24.9231C9.0314 25.1059 8.99219 25.302 8.99219 25.5C8.99219 25.698 9.0314 25.8941 9.10755 26.0769C9.1837 26.2597 9.29529 26.4256 9.43588 26.565C9.57533 26.7056 9.74123 26.8172 9.92402 26.8933C10.1068 26.9695 10.3029 27.0087 10.5009 27.0087C10.6989 27.0087 10.895 26.9695 11.0778 26.8933C11.2605 26.8172 11.4264 26.7056 11.5659 26.565L24.0009 14.13V22.5C24.0009 22.8978 24.1589 23.2794 24.4402 23.5607C24.7215 23.842 25.1031 24 25.5009 24C25.8987 24 26.2802 23.842 26.5615 23.5607C26.8429 23.2794 27.0009 22.8978 27.0009 22.5V10.575Z" fill="white" stroke="white"/>
    </g>
    <defs>
        <clipPath id="clip0_866_858">
            <rect width="36" height="36" fill="white"/>
        </clipPath>
    </defs>
</svg>