<svg xmlns="http://www.w3.org/2000/svg" xml:space="preserve" viewBox="0 0 512 512"><path d="M503.83 32.681v65.362l-54.468 21.787 21.787-87.149z" style="fill:#367596"/><path d="M471.149 32.681v87.149H305.021l21.788-87.149z" style="fill:#5195af"/><path d="M8.17 32.681v65.362l32.681 21.787h285.958V32.681z" style="fill:#27467a"/><path d="M503.83 98.043v381.276h-32.681l-43.575-190.638 43.575-190.638z" style="fill:#a0f6fa"/><path d="M8.17 98.043h462.979V479.32H8.17z" style="fill:#d0fbfd"/><path d="M182.264 227.811a8.17 8.17 0 0 0-11.2-2.838l-95.176 56.689a8.17 8.17 0 0 0-.001 14.038l95.176 56.689a8.165 8.165 0 0 0 11.199-2.837 8.17 8.17 0 0 0-2.838-11.2l-83.392-49.671 83.392-49.671a8.166 8.166 0 0 0 2.84-11.199m147.473 121.74a8.16 8.16 0 0 0 11.199 2.837l95.176-56.689a8.17 8.17 0 0 0 0-14.038l-95.176-56.689a8.17 8.17 0 0 0-8.362 14.038l83.392 49.671-83.392 49.671a8.166 8.166 0 0 0-2.837 11.199m-42.451-122.114-76.139 113.379a8.17 8.17 0 1 0 13.566 9.109l76.139-113.379a8.17 8.17 0 0 0-2.228-11.338 8.17 8.17 0 0 0-11.338 2.229"/><path d="M503.83 24.511H8.17A8.17 8.17 0 0 0 0 32.681v446.638a8.17 8.17 0 0 0 8.17 8.17h495.66a8.17 8.17 0 0 0 8.17-8.17V392.17c0-4.512-3.657-8.17-8.17-8.17s-8.17 3.658-8.17 8.17v78.979H16.34V106.213h479.32V359.49c0 4.512 3.657 8.17 8.17 8.17s8.17-3.658 8.17-8.17V32.681a8.17 8.17 0 0 0-8.17-8.17M16.34 40.851h302.298v49.021H16.34zm318.639 49.021V40.851H495.66v49.021z"/><path d="M415.591 56.647c-4.805 0-8.715 3.91-8.715 8.715s3.91 8.715 8.715 8.715 8.715-3.91 8.715-8.715-3.909-8.715-8.715-8.715m-44.663 0c-4.805 0-8.715 3.91-8.715 8.715s3.91 8.715 8.715 8.715 8.715-3.91 8.715-8.715-3.91-8.715-8.715-8.715m89.327 0c-4.805 0-8.715 3.91-8.715 8.715s3.91 8.715 8.715 8.715 8.715-3.91 8.715-8.715-3.91-8.715-8.715-8.715"/></svg>