<svg width="48" height="44" viewBox="0 0 48 44" fill="none"
    xmlns="http://www.w3.org/2000/svg">
    <path d="M47.2333 0.765991V6.89368L42.127 8.93621L44.1695 0.765991H47.2333Z" fill="#7159C1"/>
    <path d="M44.1702 0.765991V8.93621H28.5957L30.6383 0.765991H44.1702Z" fill="#7159C1"/>
    <path d="M0.765625 0.765991V6.89368L3.82947 8.93621H30.638V0.765991H0.765625Z" fill="#7159C1"/>
    <path d="M47.2349 6.89368V42.6383H44.1711L40.0859 24.766L44.1711 6.89368H47.2349Z" fill="#7159C1"/>
    <path d="M44.1699 6.89368H0.765625V42.6384H44.1699V6.89368Z" fill="#7159C1"/>
    <path d="M17.087 19.0594C16.8706 18.696 16.4004 18.5768 16.037 18.7934L7.1143 24.108C6.88236 24.2461 6.74023 24.4961 6.74023 24.766C6.74023 25.0359 6.88236 25.2859 7.1142 25.424L16.037 30.7386C16.1599 30.8118 16.2949 30.8467 16.4282 30.8467C16.6892 30.8467 16.9437 30.7131 17.0869 30.4726C17.3033 30.1092 17.1842 29.6391 16.8208 29.4226L9.0028 24.766L16.8208 20.1093C17.1845 19.893 17.3036 19.4229 17.087 19.0594Z" fill="white"/>
    <path d="M30.9128 30.4725C31.0561 30.7131 31.3105 30.8465 31.5715 30.8465C31.7049 30.8465 31.8399 30.8118 31.9627 30.7385L40.8855 25.4239C41.1174 25.2857 41.2594 25.0357 41.2594 24.7658C41.2594 24.4959 41.1173 24.2459 40.8855 24.1078L31.9627 18.7932C31.5993 18.5767 31.1291 18.6958 30.9127 19.0593C30.6963 19.4227 30.8154 19.8928 31.1788 20.1093L38.9968 24.7659L31.1788 29.4226C30.8153 29.639 30.6962 30.109 30.9128 30.4725Z" fill="white"/>
    <path d="M26.9322 19.0243L19.7942 29.6536C19.5584 30.0047 19.6518 30.4807 20.0031 30.7166C20.1342 30.8046 20.2827 30.8467 20.4295 30.8467C20.6761 30.8467 20.9183 30.7277 21.066 30.5076L28.2041 19.8783C28.4398 19.5271 28.3463 19.0513 27.9952 18.8154C27.6437 18.5796 27.168 18.6733 26.9322 19.0243Z" fill="white"/>
    <path d="M47.2341 0H0.765938C0.342844 0 0 0.342937 0 0.765938V42.6383C0 43.0613 0.342844 43.4042 0.765938 43.4042H47.2341C47.6572 43.4042 48 43.0613 48 42.6383V34.468C48 34.045 47.6572 33.7021 47.2341 33.7021C46.811 33.7021 46.4681 34.045 46.4681 34.468V41.8723H1.53188V7.65956H46.4681V31.4043C46.4681 31.8273 46.811 32.1702 47.2341 32.1702C47.6572 32.1702 48 31.8273 48 31.4043V0.765938C48 0.342937 47.6572 0 47.2341 0ZM1.53188 1.53188H29.8723V6.12759H1.53188V1.53188ZM31.4043 6.12759V1.53188H46.4681V6.12759H31.4043Z" fill="white"/>
    <path d="M38.9616 3.0127C38.5111 3.0127 38.1445 3.37926 38.1445 3.82973C38.1445 4.2802 38.5111 4.64676 38.9616 4.64676C39.412 4.64676 39.7786 4.2802 39.7786 3.82973C39.7786 3.37926 39.4121 3.0127 38.9616 3.0127Z" fill="white"/>
    <path d="M34.7741 3.0127C34.3236 3.0127 33.957 3.37926 33.957 3.82973C33.957 4.2802 34.3236 4.64676 34.7741 4.64676C35.2245 4.64676 35.5911 4.2802 35.5911 3.82973C35.5911 3.37926 35.2245 3.0127 34.7741 3.0127Z" fill="white"/>
    <path d="M43.1491 3.0127C42.6986 3.0127 42.332 3.37926 42.332 3.82973C42.332 4.2802 42.6986 4.64676 43.1491 4.64676C43.5995 4.64676 43.9661 4.2802 43.9661 3.82973C43.9661 3.37926 43.5995 3.0127 43.1491 3.0127Z" fill="white"/>
</svg>