<svg width="128" height="128" viewBox="0 0 128 128" fill="none"
    xmlns="http://www.w3.org/2000/svg">
    <g clip-path="url(#clip0_898_475)">
        <path d="M94.9906 116.602C97.8751 116.06 99.2863 116.299 102.101 114.236C104.487 112.487 107.737 110.972 109.157 108.248C109.8 106.917 110.066 105.434 109.924 103.963C109.709 100.348 109.029 96.7759 107.902 93.3344C106.678 89.7073 104.455 85.9689 103.135 82.3765C102.169 79.7483 101.211 77.1168 100.319 74.4625C99.3474 71.5734 98.2701 68.5869 96.0916 66.4554C94.8904 65.2803 93.4214 64.4346 91.9247 63.6565C90.7242 62.9483 89.6189 62.3454 88.728 61.871C89.4108 60.9134 89.923 59.8108 89.9048 58.6458C89.8722 56.5673 88.1193 54.8375 86.1612 54.141C85.5232 53.9134 84.8547 53.7693 84.2428 53.4825C82.9421 52.8739 80.5203 48.8523 77.4375 48.3223L49.7014 48.5388C46.6182 49.0688 44.7447 52.8739 43.4437 53.4812C42.8305 53.768 42.1619 53.9127 41.5253 54.1397C39.5668 54.8362 37.8142 56.566 37.7817 58.6445C37.7625 59.858 38.3195 61.0032 39.0433 61.9877C38.1937 62.443 37.1711 63.0045 36.0681 63.6552C34.5724 64.4333 33.1023 65.279 31.9012 66.4541C29.7226 68.5856 28.646 71.5721 27.6741 74.4612C26.7819 77.1155 25.8233 79.747 24.8579 82.3752C23.5384 85.9683 21.3137 89.7066 20.0911 93.3331C18.9642 96.7746 18.2844 100.347 18.0683 103.962C17.9269 105.433 18.1923 106.915 18.8356 108.246C20.255 110.97 23.5049 112.486 25.8916 114.234C28.0462 115.571 30.4641 116.427 32.9801 116.744" fill="#1BCF6C"/>
        <path d="M81.9226 30.5563C82.2191 30.2991 82.5676 30.1089 82.9443 29.9987C83.321 29.8885 83.717 29.8608 84.1054 29.9177C84.4867 29.9714 84.8511 30.1099 85.1719 30.323C85.4926 30.5361 85.7615 30.8183 85.9588 31.149C86.1866 31.6052 86.3161 32.1042 86.3389 32.6136C86.5052 34.6074 86.1203 36.6086 85.2262 38.3985C84.8045 39.3031 84.1926 40.106 83.4323 40.7526C82.8149 41.2536 82.078 41.5858 81.2937 41.7167L80.9292 41.7726C80.7517 42.4311 80.5546 42.9839 80.4581 43.2772C79.8077 45.0405 76.0437 51.3307 71.3903 53.2059C71.4521 53.7541 71.5139 54.157 71.6144 54.7322C71.8355 55.9938 71.7672 57.1221 73.5231 57.7562C73.6369 57.7985 78.4622 59.4438 78.7256 59.5608L78.7926 59.5904C77.6832 60.8049 75.4922 61.9914 73.5361 62.5959C73.5361 62.5959 70.4747 63.5912 64.0304 63.5912C57.586 63.5912 54.1598 62.2824 54.1598 62.2824C52.2046 61.6779 50.0199 60.5591 48.877 59.4265C49.0002 59.3758 49.0737 59.3443 49.0737 59.3443C49.2886 59.2526 53.1209 57.7988 53.2357 57.7568C54.9916 57.1231 54.921 55.9951 55.1421 54.7329C55.2444 54.1476 55.3281 53.5614 55.3932 52.9744C53.3721 51.9445 51.593 50.497 50.1734 48.7278C48.5218 46.7012 47.3167 44.3488 46.6369 41.8243L45.9404 41.7174C45.1562 41.5864 44.4193 41.2542 43.8019 40.7533C43.0416 40.1068 42.4298 39.3038 42.0083 38.3991C41.1138 36.6091 40.7288 34.6077 40.8953 32.6136C40.9186 32.1045 41.0486 31.606 41.2767 31.1503C41.474 30.8196 41.7429 30.5374 42.0636 30.3243C42.3843 30.1112 42.7488 29.9727 43.1301 29.919C43.5184 29.8621 43.9145 29.8898 44.2912 30C44.6679 30.1102 45.0164 30.3004 45.3129 30.5576C45.3129 30.5576 41.8522 12.9434 64.0112 12.9434C86.1701 12.9434 81.9226 30.5563 81.9226 30.5563Z" fill="white"/>
        <path d="M54.6104 53.003C54.5242 53.9347 54.3795 54.8599 54.1772 55.7734C54.1587 55.8485 54.1385 55.9233 54.1151 55.9971C54.0989 56.0488 54.0299 56.2247 54.0908 56.0872C54.0552 56.1674 54.0149 56.2455 53.9701 56.321C53.9415 56.3688 53.8023 56.5395 53.8944 56.438C53.8304 56.5098 53.7626 56.5782 53.6915 56.6429C53.6788 56.6543 53.5796 56.7303 53.6674 56.6653C53.6349 56.6897 53.6001 56.7128 53.5653 56.7342C53.3949 56.8419 53.2145 56.9327 53.0265 57.0054C52.0738 57.3693 51.1191 57.7276 50.1651 58.0911C49.7313 58.2566 49.292 58.4124 48.8645 58.5922C48.6686 58.6529 48.5033 58.786 48.402 58.9643C48.3008 59.1426 48.2713 59.3528 48.3195 59.5521C48.3755 59.751 48.5078 59.9198 48.6874 60.0219C48.8671 60.1239 49.0798 60.1511 49.2794 60.0974C50.3062 59.6659 51.3636 59.2972 52.4048 58.9021C52.7836 58.7584 53.1644 58.6192 53.5429 58.4725C54.0207 58.317 54.4561 58.0528 54.8148 57.7008C55.1735 57.3488 55.4457 56.9184 55.6102 56.4436C55.7227 56.0462 55.8023 55.6402 55.8482 55.2297C55.962 54.4877 56.0869 53.7496 56.1711 53.003C56.1698 52.7965 56.0872 52.5987 55.9411 52.4526C55.7951 52.3066 55.5973 52.2239 55.3907 52.2227C55.1852 52.2273 54.9894 52.311 54.8441 52.4564C54.6987 52.6017 54.615 52.7975 54.6104 53.003Z" fill="#211715"/>
        <path d="M70.6094 53.2045C70.6861 53.8705 70.7996 54.5286 70.902 55.1906C70.9496 55.6256 71.0351 56.0556 71.1576 56.4756C71.5153 57.5236 72.3168 58.1483 73.3362 58.5167C74.521 58.9449 75.7215 59.3341 76.9129 59.7461C77.2619 59.8666 77.6105 59.988 77.9586 60.1103C78.0763 60.1519 78.194 60.1932 78.3114 60.2358C78.3989 60.2683 78.6798 60.3844 78.3319 60.2358C78.5122 60.3335 78.7228 60.3589 78.9212 60.3069C79.1195 60.2549 79.2906 60.1294 79.3997 59.9558C79.5027 59.7767 79.5311 59.5643 79.4787 59.3645C79.4263 59.1647 79.2974 58.9935 79.1198 58.888C78.0142 58.4146 76.8437 58.0751 75.7082 57.6849L73.9888 57.0951C73.8558 57.0492 73.7189 57.0073 73.5898 56.951C73.2376 56.8255 72.9407 56.5801 72.7512 56.2578C72.7268 56.2136 72.7037 56.168 72.6829 56.1222C72.7281 56.2217 72.6774 56.1059 72.6637 56.0624C72.6335 55.9648 72.6033 55.8673 72.5792 55.7681C72.5259 55.5496 72.4907 55.3269 72.4573 55.1044C72.3613 54.4714 72.2436 53.8422 72.1705 53.2062C72.1645 53.0011 72.0804 52.806 71.9353 52.661C71.7902 52.5159 71.5952 52.4318 71.3901 52.4258C71.1835 52.4271 70.9858 52.5097 70.8397 52.6558C70.6936 52.8018 70.611 52.9996 70.6097 53.2062L70.6094 53.2045Z" fill="#211715"/>
        <path d="M91.5592 75.7296C90.3389 80.7013 89.0464 85.6717 88.0836 90.7016C87.9155 91.5795 87.7585 92.4616 87.6609 93.3503C87.5669 94.1902 87.589 95.0411 87.5793 95.8865C87.5572 97.8281 87.5601 99.7696 87.5699 101.711C87.5832 104.337 87.6024 106.963 87.6024 109.589C87.6024 110.593 89.1631 110.595 89.1631 109.589C89.1631 105.31 89.0981 101.032 89.1326 96.7534C89.1401 95.8056 89.1267 94.8519 89.1745 93.9053C89.182 93.7581 89.1953 93.6108 89.2103 93.4641C89.2282 93.2901 89.247 93.1389 89.2587 93.0573C89.3195 92.6206 89.3937 92.1856 89.472 91.7515C89.8996 89.3778 90.4475 87.026 91.0003 84.679C91.6691 81.8296 92.3695 78.9887 93.067 76.1445C93.3066 75.169 91.8018 74.7531 91.5622 75.7296H91.5592Z" fill="#211715"/>
        <path d="M95.0371 100.121C95.9034 100.635 96.8905 100.906 97.7577 101.422C97.9365 101.526 98.1494 101.556 98.3496 101.503C98.5499 101.451 98.7211 101.321 98.8256 101.142C98.93 100.963 98.9592 100.75 98.9067 100.55C98.8542 100.35 98.7243 100.179 98.5456 100.074C97.6787 99.5585 96.6922 99.2877 95.8247 98.7736C95.6459 98.6692 95.433 98.64 95.2328 98.6925C95.0326 98.7451 94.8614 98.875 94.757 99.0537C94.6526 99.2325 94.6234 99.4453 94.6759 99.6456C94.7285 99.8458 94.8584 100.017 95.0371 100.121Z" fill="#211715"/>
        <path d="M32.2443 98.7736C31.3781 99.2877 30.3909 99.5585 29.5234 100.074C29.3446 100.179 29.2147 100.35 29.1622 100.55C29.1362 100.649 29.13 100.753 29.144 100.854C29.1579 100.956 29.1917 101.054 29.2434 101.142C29.2951 101.231 29.3638 101.308 29.4455 101.37C29.5271 101.432 29.6202 101.477 29.7193 101.503C29.9196 101.556 30.1325 101.526 30.3112 101.422C31.1781 100.906 32.1646 100.635 33.0318 100.121C33.2106 100.017 33.3405 99.8458 33.393 99.6456C33.4456 99.4453 33.4164 99.2325 33.312 99.0537C33.2075 98.875 33.0364 98.7451 32.8362 98.6925C32.6359 98.64 32.423 98.6692 32.2443 98.7736Z" fill="#211715"/>
        <path d="M34.736 76.1459C35.9466 81.0782 37.2248 86.0093 38.1886 90.9976C38.2813 91.4778 38.37 91.9591 38.4487 92.4419C38.5137 92.8399 38.5521 93.0922 38.5879 93.4281C38.6779 94.281 38.6529 95.1482 38.662 96.0047C38.6832 97.9267 38.6799 99.8487 38.6701 101.771C38.6568 104.377 38.6376 106.984 38.6376 109.59C38.6376 110.595 40.1984 110.596 40.1984 109.59C40.1984 105.274 40.2634 100.957 40.228 96.6401C40.2202 95.7107 40.2397 94.7727 40.1834 93.8437C40.1198 93.0393 40.0097 92.2393 39.8537 91.4476C39.4291 89.0609 38.8782 86.696 38.3255 84.3367C37.6517 81.4629 36.9452 78.5966 36.2419 75.73C36.0025 74.7545 34.497 75.1681 34.7367 76.1449L34.736 76.1459Z" fill="#211715"/>
        <path d="M63.9817 82.188C51.1421 82.281 38.3649 82.3558 33.828 82.3711C33.6565 82.3715 33.4868 82.4057 33.3286 82.4718C33.1704 82.5379 33.0267 82.6346 32.9059 82.7563C32.7851 82.878 32.6895 83.0223 32.6245 83.181C32.5596 83.3397 32.5265 83.5096 32.5274 83.6811C32.5537 91.0522 32.9091 116.562 33.18 125.938C33.1899 126.282 33.335 126.608 33.5837 126.845C33.8325 127.083 34.1648 127.212 34.5086 127.206C38.6085 127.143 51.3073 127.182 63.9813 127.226C76.6551 127.182 89.3539 127.143 93.4541 127.206C93.7979 127.212 94.1302 127.083 94.3789 126.845C94.6276 126.608 94.7726 126.282 94.7824 125.938C95.0532 116.562 95.409 91.0522 95.4353 83.6811C95.436 83.5097 95.403 83.3398 95.338 83.1811C95.273 83.0224 95.1774 82.8781 95.0566 82.7565C94.9358 82.6348 94.7922 82.5381 94.634 82.472C94.4758 82.4059 94.3061 82.3716 94.1347 82.3711C89.5984 82.3558 76.8209 82.281 63.9817 82.188Z" fill="white"/>
        <path d="M63.9819 101.078C62.6666 101.091 61.4086 101.101 61.1683 101.101C61.166 101.715 61.1549 105.46 61.1816 106.491C61.2928 106.477 62.6386 106.483 63.9815 106.489C65.3241 106.483 66.67 106.477 66.7812 106.491C66.8078 105.46 66.7968 101.715 66.7945 101.101C66.5549 101.101 65.2968 101.092 63.9819 101.078Z" fill="white"/>
        <path d="M63.9815 81.4073C55.0084 81.4723 46.0353 81.5286 37.0622 81.5763L35.0007 81.5858C34.3802 81.5884 33.673 81.5051 33.0877 81.7331C32.149 82.0989 31.7439 82.9602 31.7481 83.9217C31.75 84.3613 31.7525 84.8009 31.7556 85.2406C31.7731 87.7718 31.7983 90.3032 31.831 92.8347C31.9106 99.5815 32.0092 106.328 32.1269 113.075C32.1796 116.093 32.2385 119.111 32.3038 122.128C32.3298 123.276 32.3583 124.424 32.3893 125.572C32.4173 126.576 32.7567 127.474 33.7699 127.855C34.3347 128.068 35.0055 127.979 35.5983 127.973C43.8206 127.9 52.0452 127.966 60.2675 127.993C69.6321 128.024 78.9993 127.938 88.3652 127.955C89.7435 127.958 91.1215 127.962 92.4999 127.975C93.1655 127.981 93.8656 128.064 94.4752 127.732C95.3532 127.252 95.5505 126.399 95.5759 125.478C95.6474 122.898 95.7001 120.317 95.7502 117.736C95.8816 110.973 95.9899 104.209 96.0753 97.4461C96.1148 94.4715 96.1498 91.4967 96.1804 88.5217C96.1914 87.3882 96.2011 86.2546 96.2093 85.1209C96.2122 84.6888 96.2181 84.2563 96.2165 83.8238C96.2394 83.3424 96.0997 82.8673 95.8198 82.475C95.5398 82.0827 95.136 81.796 94.6733 81.6612C94.0974 81.5032 93.4107 81.5877 92.8166 81.5851C92.1164 81.5823 91.4165 81.579 90.7167 81.5754C88.9721 81.5669 87.2271 81.5576 85.4817 81.5474C80.8373 81.5207 76.193 81.4917 71.5489 81.4603C69.0263 81.4433 66.5038 81.4257 63.9815 81.4073C62.9767 81.4001 62.9757 82.9609 63.9815 82.968C72.8301 83.033 81.6788 83.0888 90.5275 83.1351L92.511 83.1446C93.0452 83.1469 93.6019 83.1052 94.1341 83.1511C94.7253 83.2018 94.6544 83.7757 94.6518 84.2267C94.6494 84.667 94.6467 85.1074 94.6437 85.5478C94.625 88.0704 94.5994 90.5928 94.5669 93.1149C94.4887 99.6994 94.3924 106.284 94.2782 112.868C94.2264 115.833 94.1688 118.798 94.1055 121.763C94.0797 122.927 94.0514 124.091 94.0207 125.255C94.0096 125.667 94.1104 126.324 93.5654 126.422C93.318 126.443 93.0693 126.441 92.8221 126.417C92.5516 126.414 92.2806 126.412 92.0092 126.41C83.9046 126.347 75.7981 126.405 67.6935 126.432C58.5035 126.462 49.3135 126.381 40.1239 126.394C38.6844 126.396 37.2449 126.399 35.8057 126.411C35.3338 126.458 34.8584 126.461 34.3861 126.417C33.8197 126.304 33.9475 125.557 33.9361 125.125C33.8665 122.536 33.8138 119.946 33.7637 117.356C33.6382 110.754 33.534 104.151 33.4509 97.5475C33.4126 94.6445 33.3782 91.7412 33.3479 88.8378C33.3362 87.6995 33.3261 86.5615 33.3176 85.4236C33.3144 84.9901 33.3118 84.5565 33.3098 84.123C33.3072 83.6083 33.3098 83.1586 33.9445 83.1508C41.486 83.0584 49.0319 83.0708 56.5721 83.0207C59.042 83.0042 61.5118 82.987 63.9815 82.969C64.9852 82.9609 64.9875 81.4001 63.9815 81.4073Z" fill="#211715"/>
        <path d="M38.7202 123.372C44.9418 123.333 51.164 123.367 57.3843 123.386C64.9797 123.409 72.5745 123.373 80.1699 123.362C83.1938 123.358 86.2178 123.353 89.2418 123.372C90.2465 123.378 90.2475 121.818 89.2418 121.811C83.0202 121.773 76.7979 121.806 70.5776 121.825C62.9826 121.848 55.3875 121.813 47.7924 121.802C44.7684 121.797 41.7445 121.793 38.7205 121.811C37.7167 121.818 37.7141 123.378 38.7202 123.372Z" fill="#211715"/>
        <path d="M63.981 100.297C63.0432 100.306 62.1054 100.319 61.1674 100.32C60.9614 100.323 60.7647 100.406 60.619 100.552C60.4733 100.697 60.3901 100.894 60.387 101.1C60.3835 102.084 60.3822 103.068 60.3831 104.051C60.3831 104.629 60.385 105.207 60.3902 105.785C60.3902 105.993 60.3902 106.201 60.3984 106.408C60.3931 106.524 60.4124 106.64 60.4551 106.748C60.4977 106.856 60.5628 106.954 60.646 107.035C60.7291 107.117 60.8285 107.179 60.9376 107.219C61.0467 107.259 61.163 107.276 61.2789 107.267C62.9645 107.267 64.6505 107.256 66.3361 107.264C66.6193 107.306 66.9087 107.272 67.1747 107.166C67.5564 106.943 67.5623 106.539 67.5678 106.152C67.5753 105.611 67.5766 105.07 67.5779 104.529C67.5805 103.386 67.5794 102.244 67.5746 101.101C67.5716 100.895 67.4884 100.698 67.3427 100.553C67.197 100.407 67.0003 100.324 66.7942 100.321C65.8565 100.321 64.9187 100.307 63.981 100.298C63.774 100.298 63.5755 100.381 63.4291 100.527C63.2828 100.673 63.2006 100.872 63.2006 101.079C63.2006 101.286 63.2828 101.484 63.4291 101.631C63.5755 101.777 63.774 101.859 63.981 101.859C64.9187 101.868 65.8565 101.881 66.7942 101.882L66.0139 101.101C66.021 102.897 66.0464 104.696 66.0005 106.492L66.1072 106.098L66.7809 105.712C66.472 105.683 66.1527 105.703 65.8428 105.703C65.2224 105.703 64.6017 105.709 63.9813 105.709C63.3752 105.709 62.7694 105.703 62.1633 105.703C61.8382 105.703 61.5049 105.682 61.1813 105.712L61.8541 106.099L61.9604 106.493C61.9159 104.697 61.9403 102.898 61.9471 101.102L61.1667 101.883C62.1048 101.883 63.0426 101.869 63.9803 101.86C64.1873 101.86 64.3858 101.778 64.5321 101.632C64.6785 101.485 64.7607 101.287 64.7607 101.08C64.7607 100.873 64.6785 100.674 64.5321 100.528C64.3858 100.382 64.1873 100.299 63.9803 100.299L63.981 100.297Z" fill="#211715"/>
        <path d="M32.9754 115.965C32.7576 115.939 32.397 115.884 32.0676 115.822C31.6418 115.741 31.2198 115.644 30.8014 115.529C29.8836 115.278 28.9891 114.948 28.1279 114.543C27.5927 114.292 27.0689 114.017 26.5561 113.723C26.1009 113.46 25.6805 113.133 25.2421 112.842C24.4416 112.309 23.6258 111.801 22.836 111.25C21.2866 110.171 19.7411 108.855 19.1539 106.994C18.8449 105.91 18.7477 104.777 18.8677 103.657C18.9581 102.453 19.0875 101.25 19.2722 100.058C19.6354 97.608 20.2407 95.2003 21.0795 92.8701C21.9132 90.6044 23.0255 88.4531 24.043 86.2671C26.1106 81.8228 27.4526 77.1089 29.1759 72.5314C30.0178 70.2959 31.1243 68.1141 32.9653 66.5364C33.9291 65.7542 34.9759 65.0804 36.0869 64.5269C37.2415 63.9137 38.363 63.237 39.517 62.6198C40.403 62.1461 39.6145 60.7989 38.7291 61.2721C37.6785 61.8339 36.6562 62.4462 35.6102 63.0156C34.57 63.5469 33.5702 64.1538 32.6187 64.8312C30.7845 66.2556 29.3443 68.1247 28.4346 70.2614C27.4357 72.4741 26.7437 74.8136 25.9377 77.1005C25.074 79.546 24.2468 82.026 23.1897 84.3954C22.157 86.7093 20.9874 88.96 20.0233 91.3048C19.0661 93.676 18.3649 96.1426 17.9316 98.6628C17.6978 99.9628 17.5245 101.272 17.399 102.585C17.2389 103.819 17.2368 105.069 17.3928 106.304C17.7443 108.538 19.0872 110.31 20.8216 111.686C21.6345 112.33 22.4906 112.908 23.3578 113.473C24.225 114.037 25.0682 114.679 25.9715 115.186C27.7769 116.226 29.7428 116.958 31.7886 117.352C32.1823 117.423 32.5784 117.477 32.9751 117.526C33.1817 117.525 33.3796 117.443 33.5257 117.296C33.6718 117.15 33.7544 116.953 33.7555 116.746C33.7505 116.54 33.6667 116.345 33.5214 116.2C33.3761 116.054 33.1808 115.97 32.9754 115.965Z" fill="#211715"/>
        <path d="M48.0845 59.7223C49.6206 61.4567 52.0082 62.3912 54.1504 63.1039C55.7157 63.5865 57.3252 63.9123 58.9549 64.0765C62.0651 64.4354 65.2034 64.4798 68.3225 64.2092C70.0421 64.1026 71.7491 63.8448 73.4236 63.4389C74.2487 63.2094 75.0518 62.9069 75.8232 62.5349C77.3034 61.8453 78.7871 60.9371 79.7795 59.6147C79.8827 59.4356 79.9112 59.2232 79.8588 59.0233C79.8064 58.8234 79.6773 58.6522 79.4995 58.5468C79.3197 58.4472 79.1084 58.4207 78.9096 58.4729C78.7108 58.525 78.5398 58.6518 78.432 58.8268C77.6812 59.827 76.3978 60.5274 75.2851 61.0685C74.5984 61.4081 73.8826 61.6853 73.1462 61.8966C71.7883 62.2507 70.4013 62.4822 69.002 62.5886C65.9931 62.887 62.9627 62.8989 59.9516 62.624C58.217 62.4818 56.5011 62.1659 54.8296 61.6811C54.2196 61.4951 53.6113 61.287 53.0218 61.0454C51.6525 60.4841 50.1838 59.7405 49.1881 58.6164C48.5206 57.863 47.4202 58.9702 48.0845 59.72V59.7223Z" fill="#211715"/>
        <path d="M49.492 47.7865C47.4266 48.167 45.9084 49.7648 44.5912 51.282C44.3177 51.5971 44.0475 51.9154 43.7597 52.2175C43.6476 52.3352 43.5321 52.4513 43.4118 52.5599C43.3578 52.6083 43.3035 52.6558 43.2466 52.7007C43.3978 52.5813 43.2216 52.716 43.1784 52.7384C42.6189 52.9827 42.0417 53.1842 41.4518 53.3412C40.851 53.5393 40.278 53.8131 39.7466 54.1561C38.6759 54.8323 37.8359 55.8178 37.3378 56.9821C37.1033 57.5961 36.9933 58.2506 37.0142 58.9076C37.0352 59.5645 37.1868 60.2107 37.4601 60.8085C38.4239 63.0785 40.4451 64.769 42.4828 66.0573C44.7203 67.4704 47.3196 68.6224 49.9859 68.8361C50.1923 68.8344 50.3898 68.7516 50.5358 68.6056C50.6818 68.4596 50.7646 68.2621 50.7663 68.0557C50.7623 67.85 50.6788 67.6538 50.5333 67.5083C50.3878 67.3628 50.1916 67.2793 49.9859 67.2753C47.9374 67.1127 45.9058 66.2319 44.1301 65.2248C42.2962 64.1843 40.4597 62.8567 39.3324 61.0368C38.735 60.072 38.3569 58.9558 38.6902 57.8294C39.0083 56.8824 39.6418 56.0732 40.4847 55.537C41.521 54.8409 42.7384 54.7079 43.8355 54.1561C44.3985 53.8155 44.8925 53.3721 45.2916 52.8489C46.5698 51.3955 47.8928 49.6624 49.9069 49.2911C50.1054 49.2344 50.2737 49.1021 50.3757 48.9226C50.4776 48.743 50.5049 48.5307 50.4518 48.3312C50.3931 48.134 50.2604 47.9672 50.0815 47.8656C49.9026 47.7641 49.6914 47.7356 49.492 47.7862V47.7865Z" fill="#211715"/>
        <path d="M77.2278 49.0746C79.0844 49.417 80.4833 50.9079 81.7267 52.2212C82.2171 52.7801 82.7457 53.3045 83.3086 53.7904C84.1686 54.4772 85.2771 54.5802 86.2597 55.0143C87.2364 55.425 88.064 56.1249 88.6311 57.0199C88.9073 57.4819 89.0697 58.0029 89.105 58.54C89.1402 59.0771 89.0472 59.6149 88.8337 60.1089C88.0403 62.1057 86.1736 63.595 84.4115 64.7099C82.4225 65.9686 80.0651 67.0859 77.6976 67.2745C77.4922 67.2795 77.2967 67.3633 77.1514 67.5086C77.0061 67.6539 76.9223 67.8495 76.9172 68.0549C76.9189 68.2613 77.0016 68.4589 77.1476 68.6049C77.2936 68.7509 77.4911 68.8336 77.6976 68.8352C80.082 68.6453 82.3939 67.692 84.4502 66.5094C86.5312 65.3134 88.5797 63.7491 89.8066 61.6447C90.5615 60.4538 90.8301 59.0184 90.557 57.6351C90.2438 56.4437 89.5481 55.3881 88.5768 54.6303C88.0943 54.2335 87.5619 53.9015 86.9933 53.6428C86.343 53.3524 85.6556 53.1837 84.9851 52.947C84.7949 52.8842 84.6121 52.801 84.4398 52.6989C84.3852 52.6664 84.2701 52.5763 84.3881 52.6686C84.3201 52.6153 84.2545 52.5587 84.1894 52.5012C83.8919 52.2381 83.6171 51.9484 83.344 51.6616C81.7592 49.9942 80.0212 48.0088 77.643 47.5705C77.4436 47.521 77.2328 47.55 77.0542 47.6514C76.8755 47.7528 76.7426 47.9189 76.6828 48.1154C76.6296 48.315 76.657 48.5274 76.759 48.707C76.861 48.8865 77.0295 49.0188 77.2281 49.0753L77.2278 49.0746Z" fill="#211715"/>
        <path d="M95.1986 117.356C97.0409 117.014 98.8895 116.901 100.603 116.074C101.556 115.555 102.471 114.969 103.341 114.318C104.186 113.749 105.053 113.213 105.891 112.631C107.588 111.455 109.24 110.069 110.069 108.127C111.093 105.729 110.692 103.052 110.353 100.55C110.022 98.004 109.445 95.4957 108.63 93.0606C107.81 90.6573 106.662 88.3812 105.58 86.0895C104.495 83.789 103.608 81.4335 102.745 79.042C101.885 76.6586 101.132 74.2296 100.222 71.8661C99.4094 69.7525 98.3871 67.6764 96.7824 66.0437C95.0711 64.3032 92.794 63.222 90.6867 62.0488C90.2135 61.7855 89.7381 61.5264 89.2605 61.2717C88.3751 60.7983 87.5856 62.1451 88.4727 62.6195C89.5031 63.1706 90.5075 63.7647 91.5292 64.3305C92.5256 64.8447 93.4892 65.4203 94.4143 66.0538C96.1754 67.3359 97.3541 69.1467 98.234 71.1107C99.1825 73.2275 99.8272 75.4815 100.599 77.6656C101.443 80.051 102.26 82.4597 103.273 84.7794C104.25 87.0178 105.389 89.1827 106.341 91.4325C107.275 93.678 107.974 96.0145 108.426 98.4043C108.662 99.6108 108.845 100.826 108.974 102.05C109.152 103.249 109.2 104.464 109.118 105.673C108.888 107.762 107.665 109.318 106.063 110.583C105.23 111.24 104.328 111.808 103.44 112.387C102.457 113.026 101.526 113.761 100.513 114.353C98.7412 115.389 96.7558 115.485 94.7821 115.851C94.5835 115.907 94.4151 116.04 94.3132 116.219C94.2112 116.399 94.1839 116.611 94.2371 116.811C94.2958 117.008 94.4285 117.175 94.6074 117.276C94.7863 117.378 94.9975 117.406 95.197 117.356H95.1986Z" fill="#211715"/>
        <path d="M78.0874 26.4732C76.1747 24.2872 73.8623 22.4864 71.2743 21.1676L67.5236 20.2779C65.1987 21.3428 60.9918 23.6407 60.6257 23.483C60.3734 23.3747 59.9152 22.3173 59.5878 21.308C59.412 20.805 59.2866 20.2858 59.2132 19.758C54.5937 23.5388 50.1734 27.5567 45.9701 31.7954C45.8147 30.4967 44.3996 29.7274 43.1285 29.9173C42.913 29.9496 42.7023 30.0087 42.5013 30.0932C41.0908 24.2579 41.4413 19.3187 42.6226 15.8512C43.6937 12.7059 46.1125 9.12365 49.1661 7.53817C48.1318 7.04816 46.9505 6.48336 46.9505 6.48336C51.5411 1.86349 57.5793 0.805096 62.8202 0.965399C68.4162 1.13643 72.7879 3.33906 75.411 6.9324L78.4275 9.4293C80.8987 10.7098 83.2187 13.3471 84.4228 16.7129C86.1361 21.5031 85.9371 26.5519 84.5812 30.0324C84.4264 29.979 84.267 29.9398 84.1051 29.9153C82.981 29.7472 81.7441 30.3299 81.3738 31.3678C80.4951 29.6007 79.3904 27.9554 78.0874 26.4732Z" fill="#7A7473"/>
        <path d="M78.0346 10.1038C83.1532 12.7938 85.0717 19.1946 84.8577 24.6209C84.8044 26.1619 84.5393 27.6883 84.0699 29.1572C83.759 30.1147 85.2658 30.5251 85.575 29.5721C86.4857 26.5801 86.6825 23.4164 86.1496 20.3346C85.6479 17.1438 84.4562 14.059 82.3329 11.5963C81.3499 10.4385 80.1588 9.47517 78.8211 8.756C77.9328 8.2894 77.143 9.63588 78.0333 10.1038H78.0346Z" fill="#211715"/>
        <path d="M49.8951 6.37306C46.622 7.59794 44.1924 10.5514 42.7055 13.6241C41.2497 16.6331 40.7382 19.9972 40.8091 23.3197C40.8731 25.6591 41.1852 27.9851 41.7401 30.2586C41.9725 31.2341 43.478 30.8218 43.2452 29.8437C41.7381 23.5142 41.8376 16.2521 46.2064 11.0264C47.312 9.70269 48.6728 8.49018 50.31 7.87562C50.5065 7.81578 50.6725 7.68284 50.7739 7.5042C50.8753 7.32555 50.9043 7.11482 50.8549 6.91543C50.7985 6.71677 50.6662 6.54827 50.4866 6.44631C50.307 6.34434 50.0946 6.3171 49.8951 6.37046V6.37306Z" fill="#211715"/>
        <path d="M76.086 6.39929C73.6018 3.02544 69.828 0.984414 65.7222 0.324991C61.5218 -0.34939 56.9064 0.00665975 52.9304 1.55735C50.4836 2.50123 48.2598 3.94335 46.3999 5.79222C45.6884 6.5027 46.7901 7.60661 47.5035 6.89581C50.4497 3.95377 54.3468 2.28538 58.4542 1.78821C62.3672 1.31413 66.5793 1.53393 70.1453 3.35255C71.9531 4.25649 73.5255 5.5689 74.7382 7.18586C74.8469 7.35992 75.018 7.48586 75.2165 7.5379C75.415 7.58994 75.6259 7.56416 75.806 7.46582C75.9836 7.36029 76.1125 7.18912 76.1649 6.9893C76.2173 6.78948 76.1889 6.57707 76.086 6.39799V6.39929Z" fill="#211715"/>
        <path d="M67.1295 19.6042C65.3343 20.4295 63.5969 21.3738 61.8102 22.2172C61.6255 22.3044 61.4405 22.3905 61.2535 22.4734C61.1885 22.5024 61.1234 22.5313 61.0584 22.5593C61.2275 22.4874 60.9869 22.5873 60.956 22.599C60.8526 22.639 60.7463 22.6692 60.6425 22.7069C60.6159 22.7167 60.5674 22.7144 60.545 22.7303C60.7401 22.5977 60.8991 22.8789 61.1059 22.8789C61.0539 22.8221 61.0525 22.8221 61.1017 22.8789C61.0773 22.8432 61.0545 22.8061 61.0327 22.7684C60.9761 22.6607 60.915 22.5557 60.8617 22.4458C60.7385 22.186 60.6285 21.9201 60.532 21.6492C60.282 21.0409 60.1022 20.4061 59.9958 19.7571C59.9908 19.6049 59.942 19.4574 59.8554 19.3322C59.7688 19.207 59.6479 19.1095 59.5073 19.0512C59.3667 18.9928 59.2122 18.9763 59.0624 19.0034C58.9126 19.0306 58.7738 19.1003 58.6626 19.2043C55.2202 22.0657 51.8544 25.0035 48.6256 28.1046C47.4969 29.1884 46.3785 30.2831 45.2706 31.3887C44.5553 32.0972 45.6608 33.2008 46.3742 32.4923C49.7234 29.1659 53.1479 25.9218 56.7383 22.8545C57.7407 21.9985 58.75 21.1501 59.7662 20.3092L58.4331 19.7564C58.5915 20.948 58.9476 22.1049 59.4866 23.1794C59.8118 23.8658 60.2741 24.4319 61.0942 24.1994C61.6976 23.9982 62.2829 23.7463 62.8439 23.4463C63.649 23.0604 64.4456 22.6565 65.2435 22.2562C66.1303 21.8114 67.0163 21.3647 67.9177 20.9504C68.0952 20.8448 68.224 20.6736 68.2764 20.4739C68.3288 20.2741 68.3005 20.0617 68.1976 19.8826C68.0899 19.7074 67.9188 19.5805 67.7199 19.5284C67.521 19.4762 67.3096 19.5028 67.1298 19.6026L67.1295 19.6042Z" fill="#211715"/>
        <path d="M70.8804 21.841C75.3619 24.1362 78.9374 27.8771 81.0276 32.4578C81.1332 32.6353 81.3043 32.7642 81.504 32.8166C81.7038 32.8689 81.9161 32.8406 82.0951 32.7378C82.2703 32.63 82.3971 32.4589 82.4492 32.26C82.5014 32.0611 82.4748 31.8498 82.3751 31.67C80.157 26.8516 76.387 22.9163 71.6683 20.4936C70.7754 20.0384 69.9846 21.3839 70.8804 21.841Z" fill="#211715"/>
        <path d="M82.4754 31.108C82.8648 30.788 83.3643 30.6336 83.8664 30.678C84.3685 30.7225 84.8331 30.9623 85.1603 31.3457C85.5527 31.8471 85.5745 32.5869 85.5937 33.1926C85.6182 33.8478 85.5767 34.5039 85.4698 35.1508C85.0549 37.5631 83.7757 40.5058 81.0873 40.9649C80.8886 41.0213 80.7201 41.1536 80.6182 41.3332C80.5162 41.5128 80.489 41.7253 80.5423 41.9248C80.6013 42.1218 80.7341 42.2884 80.9129 42.3899C81.0917 42.4914 81.3028 42.52 81.5022 42.4698C84.2371 42.0028 85.8642 39.439 86.6339 36.9788C87.046 35.6617 87.2179 34.2812 87.1414 32.9033C87.0624 31.5522 86.6719 30.2769 85.4298 29.5665C84.7909 29.2119 84.0579 29.0636 83.3314 29.142C82.6048 29.2204 81.9204 29.5217 81.3718 30.0045C81.2271 30.1517 81.1461 30.3498 81.1461 30.5562C81.1461 30.7627 81.2271 30.9608 81.3718 31.108C81.5201 31.2507 81.7179 31.3303 81.9236 31.3303C82.1294 31.3303 82.3271 31.2507 82.4754 31.108Z" fill="#211715"/>
        <path d="M80.4858 39.6862C80.4397 40.4898 80.2893 41.284 80.0384 42.0488C79.9542 42.3278 79.8622 42.6042 79.7695 42.8805C79.7445 42.9557 79.7204 43.0314 79.6928 43.1055C79.6814 43.1381 79.6671 43.1677 79.6563 43.1992C79.6004 43.3618 79.7019 43.0984 79.6661 43.1768C79.3103 43.946 78.9033 44.6905 78.448 45.4054C77.1565 47.5463 75.5044 49.4477 73.5648 51.0255C72.5175 51.8811 71.2954 52.4969 69.9845 52.8294C69.0061 53.0541 69.42 54.5593 70.3994 54.3343C73.1177 53.7106 75.3935 51.7519 77.1871 49.703C78.7055 48.0256 79.9742 46.138 80.9541 44.0986C81.5988 42.7118 81.9698 41.2136 82.0466 39.6862C82.0791 38.6814 80.5183 38.6827 80.4858 39.6862Z" fill="#211715"/>
        <path d="M45.864 30.0043C45.3892 29.584 44.8098 29.2994 44.1869 29.1806C43.5639 29.0618 42.9205 29.1132 42.3243 29.3293C40.9885 29.8476 40.3155 30.9587 40.1457 32.3416C39.8276 35.0672 40.5229 37.8147 42.0993 40.0609C42.9512 41.3064 44.255 42.1711 45.7339 42.4713C45.9333 42.5203 46.1438 42.4912 46.3223 42.3898C46.5008 42.2885 46.6337 42.1226 46.6938 41.9263C46.7471 41.7268 46.7199 41.5143 46.6179 41.3347C46.516 41.1551 46.3475 41.0228 46.1488 40.9664C43.4604 40.5073 42.1819 37.5649 41.7663 35.1523C41.6596 34.5053 41.6181 33.8493 41.6424 33.1941C41.6613 32.5854 41.6857 31.8519 42.0759 31.3472C42.4029 30.9635 42.8675 30.7236 43.3697 30.6792C43.8718 30.6347 44.3714 30.7893 44.7607 31.1095C44.9095 31.2512 45.1071 31.3302 45.3125 31.3302C45.518 31.3302 45.7155 31.2512 45.8643 31.1095C46.009 30.9623 46.0901 30.7642 46.0901 30.5577C46.0901 30.3513 46.009 30.1532 45.8643 30.006L45.864 30.0043Z" fill="#211715"/>
        <path d="M45.2971 39.4133C45.73 42.1476 46.6775 44.775 48.0892 47.1564C49.6803 49.8071 51.9461 51.9883 54.6555 53.4775C56.0929 54.2312 57.6613 54.7029 59.276 54.8672C59.4825 54.8657 59.6802 54.7831 59.8262 54.637C59.9723 54.491 60.0549 54.2933 60.0564 54.0868C60.0519 53.8812 59.9683 53.6853 59.8229 53.5399C59.6775 53.3946 59.4816 53.3109 59.276 53.3064C53.7756 52.7377 49.4968 47.8044 47.7761 42.8473C47.3472 41.5929 47.021 40.3057 46.8006 38.9984C46.7442 38.7998 46.6119 38.6313 46.4323 38.5293C46.2527 38.4274 46.0402 38.4001 45.8407 38.4535C45.6437 38.5124 45.4771 38.6451 45.3755 38.824C45.274 39.0028 45.2454 39.2139 45.2958 39.4133H45.2971Z" fill="#211715"/>
        <path d="M60.4588 46.4573C61.5256 47.0079 62.7136 47.2819 63.9139 47.2543C65.1391 47.2465 66.3913 47.011 67.3743 46.2463C67.5196 46.0994 67.6011 45.9011 67.6011 45.6945C67.6011 45.4878 67.5196 45.2896 67.3743 45.1427C67.2255 45.0009 67.0279 44.9219 66.8225 44.9219C66.617 44.9219 66.4194 45.0009 66.2707 45.1427C66.4983 44.9645 66.2924 45.1209 66.2339 45.1586C66.1634 45.2038 66.0902 45.2458 66.0161 45.2848C65.9689 45.3095 65.7185 45.4187 65.9039 45.3446C65.8063 45.3843 65.7049 45.421 65.6034 45.4539C65.0207 45.6366 64.411 45.718 63.8007 45.6945C63.2188 45.7079 62.6384 45.6297 62.0807 45.463C61.9704 45.4304 61.8631 45.3908 61.7555 45.3534C61.7204 45.341 61.6862 45.3231 61.6505 45.3124C61.8397 45.3693 61.6937 45.3319 61.6466 45.3098C61.5119 45.2464 61.3793 45.1797 61.2473 45.1105C61.0676 45.0105 60.8562 44.9838 60.6573 45.0359C60.4583 45.0881 60.2873 45.2151 60.1798 45.3904C60.0776 45.5697 60.0496 45.7819 60.102 45.9815C60.1543 46.1811 60.2827 46.3522 60.4597 46.4583L60.4588 46.4573Z" fill="#211715"/>
        <path d="M63.5785 38.2386C63.7411 38.8245 63.8714 39.4189 63.9687 40.0191L63.9411 39.8117C63.9527 39.893 63.9549 39.9754 63.9476 40.0572L63.9756 39.8497C63.97 39.8873 63.961 39.9244 63.9486 39.9603L64.0273 39.774C64.0164 39.7987 64.0033 39.8224 63.9882 39.8449L64.1102 39.6872C64.0929 39.7083 64.0734 39.7275 64.052 39.7444L64.21 39.6224C64.1647 39.6504 64.1176 39.6753 64.0689 39.6969L64.2555 39.6182C64.1794 39.6509 64.0996 39.6742 64.0178 39.6878L64.2253 39.6598C64.1512 39.6685 64.0763 39.6685 64.0022 39.6598L64.2097 39.6875C64.1255 39.6758 64.0429 39.655 63.9587 39.6439C63.7553 39.5966 63.5417 39.6245 63.3574 39.7226C63.2689 39.7743 63.1915 39.843 63.1295 39.9246C63.0675 40.0063 63.0222 40.0993 62.9962 40.1985C62.9702 40.2977 62.964 40.401 62.978 40.5025C62.9919 40.6041 63.0257 40.7019 63.0775 40.7904C63.127 40.8784 63.1939 40.9555 63.274 41.017C63.3541 41.0784 63.4459 41.123 63.5437 41.1481C63.7236 41.1722 63.8978 41.2183 64.0806 41.2265C64.3501 41.2284 64.6163 41.1658 64.8567 41.044C65.0067 40.9771 65.1397 40.8772 65.2458 40.7518C65.3518 40.6264 65.4283 40.4786 65.4693 40.3196C65.5233 40.0576 65.5204 39.787 65.4609 39.5262C65.3633 38.9526 65.2313 38.3842 65.0837 37.8214C65.0563 37.7226 65.0097 37.6301 64.9466 37.5493C64.8835 37.4684 64.805 37.4008 64.7158 37.3503C64.6265 37.2998 64.5282 37.2674 64.4264 37.2549C64.3246 37.2423 64.2214 37.25 64.1225 37.2774C64.0237 37.3048 63.9312 37.3514 63.8504 37.4145C63.7696 37.4776 63.702 37.5561 63.6515 37.6453C63.601 37.7346 63.5685 37.8329 63.556 37.9347C63.5435 38.0365 63.5511 38.1397 63.5785 38.2386Z" fill="#211715"/>
        <path d="M54.0371 33.2312C53.74 34.1975 53.9337 36.42 55.7641 36.6089C58.1833 36.5946 58.3117 33.9075 57.4975 32.6442C56.8306 31.6093 54.8702 31.1791 54.0371 33.2312Z" fill="#211715"/>
        <path d="M73.4091 33.2312C73.7066 34.1973 73.5128 36.4198 71.6825 36.6087C69.2633 36.5944 69.1345 33.9072 69.9487 32.6437C70.6156 31.6093 72.576 31.1792 73.4091 33.2312Z" fill="#211715"/>
    </g>
    <defs>
        <clipPath id="clip0_898_475">
            <rect width="128" height="128" fill="white"/>
        </clipPath>
    </defs>
</svg>