<svg xmlns="http://www.w3.org/2000/svg" width="256" height="256" viewBox="0 -9.5 38 38"><g fill="none" fill-rule="evenodd"><path fill="#5c65c0" d="M28.952 19a9.04 9.04 0 0 1-7.2-3.56L16.288 10l5.469-5.44A9.024 9.024 0 1 1 28.952 19m-.1-14.4a5.56 5.56 0 0 0-4.4 2.136L21.112 10l3.342 3.264a5.56 5.56 0 0 0 4.4 2.136 5.4 5.4 0 1 0-.002-10.8"/><path fill="#6f95ff" d="M16.243 15.44a9 9 0 1 1 0-10.88L21.712 10zm-2.7-8.7a5.56 5.56 0 0 0-4.4-2.136 5.4 5.4 0 1 0 0 10.8 5.56 5.56 0 0 0 4.4-2.136L16.888 10z"/></g></svg>