<svg width="64" height="64" viewBox="0 0 64 64" fill="none"
    xmlns="http://www.w3.org/2000/svg">
    <g clip-path="url(#clip0_1033_130)">
        <path d="M32 0C14.3261 0 0 14.3261 0 32C0 49.6739 14.3261 64 32 64C49.6739 64 64 49.6739 64 32C64 14.3261 49.6739 0 32 0ZM32 59C17.0879 59 5 46.9121 5 32C5 17.0879 17.0879 5 32 5C46.9121 5 59 17.0879 59 32C59 46.9121 46.9121 59 32 59Z" fill="#7159C1"/>
        <path d="M46 29.2969V38.6016L39.1875 31.1739L41.2774 29.7599C40.5294 29.5685 39.8223 29.2696 39.1914 28.8595L32 33.9688L20.7851 26H32H36.7031C36.4042 25.377 36.2031 24.707 36.1016 24H32H16V44H32H48V27.8827C47.4277 28.4687 46.7461 28.9414 46 29.2969ZM18 26.5664L24.8125 31.1737L18 38.6015V26.5664ZM32 42H20.4492L26.1445 32.0723L32 36.0312L37.8555 32.0723L43.5508 42H32Z" fill="#7159C1"/>
        <path d="M43 28C45.7617 28 48 25.7617 48 23C48 20.2383 45.7617 18 43 18C40.2383 18 38 20.2383 38 23C38 25.7617 40.2383 28 43 28ZM43 19.1992L45.4004 22H44V26H42V22H40.5996L43 19.1992Z" fill="#7159C1"/>
    </g>
    <defs>
        <clipPath id="clip0_1033_130">
            <rect width="64" height="64" fill="white"/>
        </clipPath>
    </defs>
</svg>