<svg width="40" height="40" viewBox="0 0 40 40" fill="none" xmlns="http://www.w3.org/2000/svg">
<path fill-rule="evenodd" clip-rule="evenodd" d="M28 12H12C10.9 12 10.01 12.9 10.01 14L10 26C10 27.1 10.9 28 12 28H28C29.1 28 30 27.1 30 26V14C30 12.9 29.1 12 28 12ZM12 15.9999L20 21L28 15.9999V26H12V15.9999ZM12 14L20 19L28 14H12Z" fill="#6F95FF"/>
<path fill-rule="evenodd" clip-rule="evenodd" d="M20 40C31.0456 40 40 31.0456 40 20C40 8.9543 31.0456 0 20 0C8.9543 0 0 8.9543 0 20C0 31.0456 8.9543 40 20 40ZM20 36C28.8366 36 36 28.8366 36 20C36 11.1634 28.8366 4 20 4C11.1634 4 4 11.1634 4 20C4 28.8366 11.1634 36 20 36Z" fill="#6F95FF"/>
</svg>
