<svg width="64" height="64" viewBox="0 0 64 64" fill="none"
    xmlns="http://www.w3.org/2000/svg">
    <path fill-rule="evenodd" clip-rule="evenodd" d="M12.8 0C5.73075 0 0 5.73075 0 12.8V51.2C0 58.2691 5.73075 64 12.8 64H51.2C58.2691 64 64 58.2691 64 51.2V12.8C64 5.73075 58.2691 0 51.2 0H12.8ZM6.4 12.8C6.4 9.26538 9.26538 6.4 12.8 6.4H51.2C54.7347 6.4 57.6 9.26538 57.6 12.8V51.2C57.6 54.7347 54.7347 57.6 51.2 57.6H12.8C9.26538 57.6 6.4 54.7347 6.4 51.2V12.8ZM22.4 28.8C22.4 27.0326 20.9673 25.6 19.2 25.6C17.4327 25.6 16 27.0326 16 28.8V48C16 49.7674 17.4327 51.2 19.2 51.2C20.9673 51.2 22.4 49.7674 22.4 48V28.8ZM24 17.6C24 20.251 21.851 22.4 19.2 22.4C16.549 22.4 14.4 20.251 14.4 17.6C14.4 14.949 16.549 12.8 19.2 12.8C21.851 12.8 24 14.949 24 17.6ZM32 25.6C33.0864 25.6 34.0464 26.1414 34.625 26.9693C36.2653 26.0806 38.0915 25.6 40 25.6C46.9101 25.6 51.2 31.7626 51.2 37.0285V37.0528V37.0768V37.1011V37.1254V37.1498V37.1744V37.1987V37.2234V37.248V37.2726V37.2976V37.3222V37.3472V37.3722V37.3971V37.4221V37.447V37.4723V37.4976V37.5226V37.5482V37.5734V37.5987V37.6243V37.6496V37.6752V37.7008V37.7267V37.7523V37.7782V37.8038V37.8298V37.8557V37.8816V37.9078V37.9338V37.96V37.9859V38.0122V38.0384V38.065V38.0912V38.1174V38.144V38.1706V38.1968V38.2234V38.2502V38.2768V38.3034V38.3302V38.3571V38.3837V38.4106V38.4374V38.4643V38.4915V38.5184V38.5456V38.5725V38.5997V38.6269V38.6541V38.6813V38.7085V38.7357V38.7632V38.7904V38.8179V38.8454V38.873V38.9002V38.928V38.9555V38.983V39.0106V39.0384V39.0659V39.0938V39.1213V39.1491V39.177V39.2048V39.2326V39.2605V39.2883V39.3165V39.3443V39.3725V39.4003V39.4285V39.4563V39.4845V39.5126V39.5408V39.569V39.5971V39.6253V39.6534V39.6816V39.7098V39.7382V39.7664V39.7949V39.823V39.8515V39.8797V39.9082V39.9366V39.9651V39.9933V40.0218V40.0502V40.0787V40.1072V40.1357V40.1642V40.1926V40.2214V40.2499V40.2784V40.3069V40.3357V40.3642V40.3926V40.4214V40.4499V40.4787V40.5072V40.5357V40.5645V40.5933V40.6218V40.6506V40.679V40.7078V40.7366V40.7651V40.7939V40.8224V40.8512V40.88V40.9085V40.9373V40.9661V40.9946V41.0234V41.0522V41.081V41.1094V41.1382V41.167V41.1955V41.2243V41.2531V41.2816V41.3104V41.3389V41.3677V41.3962V41.425V41.4538V41.4822V41.511V41.5395V41.568V41.5968V41.6253V41.6541V41.6826V41.711V41.7395V41.7683V41.7968V41.8253V41.8538V41.8822V41.9107V41.9392V41.9677V41.9962V42.0246V42.0531V42.0813V42.1098V42.1382V42.1664V42.1949V42.223V42.2515V42.2797V42.3082V42.3363V42.3645V42.3926V42.4208V42.449V42.4771V42.5053V42.5334V42.5616V42.5894V42.6176V42.6454V42.6736V42.7014V42.7293V42.7571V42.785V42.8128V42.8406V42.8685V42.8963V42.9242V42.9517V42.9795V43.007V43.0346V43.0624V43.0899V43.1174V43.1446V43.1722V43.1997V43.2272V43.2544V43.2816V43.3091V43.3363V43.3635V43.3907V43.4179V43.4448V43.472V43.4989V43.5261V43.553V43.5798V43.6067V43.6336V43.6605V43.687V43.7139V43.7405V43.767V43.7936V43.8202V43.8467V43.8733V43.8995V43.9261V43.9523V43.9786V44.0048V44.031V44.0573V44.0832V44.1094V44.1354V44.1613V44.1872V44.2131V44.2387V44.2646V44.2902V44.3158V44.3414V44.367V44.3926V44.4179V44.4432V44.4688V44.4941V44.519V44.5443V44.5696V44.5946V44.6195V44.6445V44.6694V44.6941V44.719V44.7437V44.7683V44.793V44.8176V44.8419V44.8666V44.8909V44.9152V44.9392V44.9635V44.9875V45.0115V45.0355V45.0595V45.0835V45.1072V45.1309V45.1546V45.1782V45.2016V45.2253V45.2486V45.272V45.295V45.3184V45.3414V45.3645V45.3875V45.4106V45.4333V45.456V45.4787V45.5014V45.5238V45.5462V45.5686V45.591V45.6134V45.6355V45.6576V45.6797V45.7018V45.7235V45.7453V45.767V45.7888V45.8102V45.8317V45.8531V45.8746V45.896V45.9171V45.9382V45.959V45.9802V46.001V46.0218V46.0422V46.063V46.0835V46.104V46.1242V46.1446V46.1648V46.185V46.2048V46.2246V46.2445V46.2643V46.2842V46.3037V46.3232V46.3424V46.3619V46.3811V46.4V46.4192V46.4381V46.457V46.4758V46.4944V46.513V46.5315V46.5498V46.568V46.5862V46.6045V46.6224V46.6403V46.6582V46.6758V46.6934V46.711V46.7283V46.7459V46.7629V46.7802V46.7971V46.8141V46.831V46.8477V46.8643V46.881V46.8973V46.9136V46.9299V46.9459V46.9619V46.9779V46.9936V47.0093V47.025V47.0403V47.0557V47.071V47.0861V47.1011V47.1162V47.1309V47.1456V47.1603V47.1747V47.1891V47.2035V47.2176V47.2317V47.2458V47.2595V47.2733V47.2867V47.3002V47.3136V47.327V47.3402V47.353V47.3661V47.3789V47.3914V47.4042V47.4166V47.4288V47.441V47.4531V47.465V47.4768V47.4886V47.5002V47.5117V47.5232V47.5344V47.5456V47.5565V47.5674V47.5782V47.5888V47.5994V47.6096V47.6198V47.6301V47.64V47.6499V47.6595V47.6691V47.6787V47.688V47.6973V47.7066V47.7155V47.7242V47.7328V47.7414V47.7501V47.7584V47.7664V47.7744V47.7824V47.7901V47.7978V47.8054V47.8128V47.8202V47.8272V47.8339V47.841V47.8477V47.8541V47.8605V47.8669V47.873V47.879V47.8848V47.8906V47.8963V47.9018V47.9069V47.912V47.9171V47.9219V47.9267V47.9312V47.9357V47.9402V47.9443V47.9482V47.952V47.9558V47.9594V47.9629V47.9661V47.9722V47.9776V47.9827V47.9869V47.9907V47.9949V47.9987C51.2 49.7661 49.7674 51.2 48 51.2C46.2326 51.2 44.8 49.7674 44.8 48V47.9962V47.9923V47.9888V47.985V47.9802V47.975V47.9693V47.9629V47.9594V47.9558V47.952V47.9482V47.9443V47.9402V47.9357V47.9312V47.9267V47.9219V47.9171V47.912V47.9069V47.9018V47.8963V47.8906V47.8848V47.879V47.873V47.8669V47.8605V47.8541V47.8477V47.841V47.8339V47.8272V47.8202V47.8128V47.8054V47.7978V47.7901V47.7824V47.7744V47.7664V47.7584V47.7501V47.7414V47.7328V47.7242V47.7155V47.7066V47.6973V47.688V47.6787V47.6691V47.6595V47.6499V47.64V47.6301V47.6198V47.6096V47.5994V47.5888V47.5782V47.5674V47.5565V47.5456V47.5344V47.5232V47.5117V47.5002V47.4886V47.4768V47.465V47.4531V47.441V47.4288V47.4166V47.4042V47.3914V47.3789V47.3661V47.353V47.3402V47.327V47.3136V47.3002V47.2867V47.2733V47.2595V47.2458V47.2317V47.2176V47.2035V47.1891V47.1747V47.1603V47.1456V47.1309V47.1162V47.1011V47.0861V47.071V47.0557V47.0403V47.025V47.0093V46.9936V46.9779V46.9619V46.9459V46.9299V46.9136V46.8973V46.881V46.8643V46.8477V46.831V46.8141V46.7971V46.7802V46.7629V46.7459V46.7283V46.711V46.6934V46.6758V46.6582V46.6403V46.6224V46.6045V46.5862V46.568V46.5498V46.5315V46.513V46.4944V46.4758V46.457V46.4381V46.4192V46.4V46.3811V46.3619V46.3424V46.3232V46.3037V46.2842V46.2643V46.2445V46.2246V46.2048V46.185V46.1648V46.1446V46.1242V46.104V46.0835V46.063V46.0422V46.0218V46.001V45.9802V45.959V45.9382V45.9171V45.896V45.8746V45.8531V45.8317V45.8102V45.7888V45.767V45.7453V45.7235V45.7018V45.6797V45.6576V45.6355V45.6134V45.591V45.5686V45.5462V45.5238V45.5014V45.4787V45.456V45.4333V45.4106V45.3875V45.3645V45.3414V45.3184V45.295V45.272V45.2486V45.2253V45.2016V45.1782V45.1546V45.1309V45.1072V45.0835V45.0595V45.0355V45.0115V44.9875V44.9635V44.9392V44.9152V44.8909V44.8666V44.8419V44.8176V44.793V44.7683V44.7437V44.719V44.6941V44.6694V44.6445V44.6195V44.5946V44.5696V44.5443V44.519V44.4941V44.4688V44.4432V44.4179V44.3926V44.367V44.3414V44.3158V44.2902V44.2646V44.2387V44.2131V44.1872V44.1613V44.1354V44.1094V44.0832V44.0573V44.031V44.0048V43.9786V43.9523V43.9261V43.8995V43.8733V43.8467V43.8202V43.7936V43.767V43.7405V43.7139V43.687V43.6605V43.6336V43.6067V43.5798V43.553V43.5261V43.4989V43.472V43.4448V43.4179V43.3907V43.3635V43.3363V43.3091V43.2816V43.2544V43.2272V43.1997V43.1722V43.1446V43.1174V43.0899V43.0624V43.0346V43.007V42.9795V42.9517V42.9242V42.8963V42.8685V42.8406V42.8128V42.785V42.7571V42.7293V42.7014V42.6736V42.6454V42.6176V42.5894V42.5616V42.5334V42.5053V42.4771V42.449V42.4208V42.3926V42.3645V42.3363V42.3082V42.2797V42.2515V42.223V42.1949V42.1664V42.1382V42.1098V42.0813V42.0531V42.0246V41.9962V41.9677V41.9392V41.9107V41.8822V41.8538V41.8253V41.7968V41.7683V41.7395V41.711V41.6826V41.6541V41.6253V41.5968V41.568V41.5395V41.511V41.4822V41.4538V41.425V41.3962V41.3677V41.3389V41.3104V41.2816V41.2531V41.2243V41.1955V41.167V41.1382V41.1094V41.081V41.0522V41.0234V40.9946V40.9661V40.9373V40.9085V40.88V40.8512V40.8224V40.7939V40.7651V40.7366V40.7078V40.679V40.6506V40.6218V40.5933V40.5645V40.5357V40.5072V40.4787V40.4499V40.4214V40.3926V40.3642V40.3357V40.3069V40.2784V40.2499V40.2214V40.1926V40.1642V40.1357V40.1072V40.0787V40.0502V40.0218V39.9933V39.9651V39.9366V39.9082V39.8797V39.8515V39.823V39.7949V39.7664V39.7382V39.7098V39.6816V39.6534V39.6253V39.5971V39.569V39.5408V39.5126V39.4845V39.4563V39.4285V39.4003V39.3725V39.3443V39.3165V39.2883V39.2605V39.2326V39.2048V39.177V39.1491V39.1213V39.0938V39.0659V39.0384V39.0106V38.983V38.9555V38.928V38.9002V38.873V38.8454V38.8179V38.7904V38.7632V38.7357V38.7085V38.6813V38.6541V38.6269V38.5997V38.5725V38.5456V38.5184V38.4915V38.4643V38.4374V38.4106V38.3837V38.3571V38.3302V38.3034V38.2768V38.2502V38.2234V38.1968V38.1706V38.144V38.1174V38.0912V38.065V38.0384V38.0122V37.9859V37.96V37.9338V37.9078V37.8816V37.8557V37.8298V37.8038V37.7782V37.7523V37.7267V37.7008V37.6752V37.6496V37.6243V37.5987V37.5734V37.5482V37.5226V37.4976V37.4723V37.447V37.4221V37.3971V37.3722V37.3472V37.3222V37.2976V37.2726V37.248V37.2234V37.1987V37.1744V37.1498V37.1254V37.1011V37.0768V37.0528V37.0285C44.8 34.5702 42.6899 32 40 32C38.3229 32 36.4717 32.9117 35.2 35.0819V35.0906V35.1235V35.1565V35.1894V35.2227V35.2557V35.289V35.3222V35.3558V35.3891V35.4224V35.456V35.4896V35.5232V35.5568V35.5904V35.6243V35.6582V35.6918V35.7258V35.7597V35.7936V35.8278V35.8618V35.896V35.9302V35.9642V35.9987V36.033V36.0672V36.1014V36.136V36.1706V36.2048V36.2394V36.2739V36.3085V36.3434V36.3779V36.4128V36.4474V36.4822V36.5171V36.552V36.5869V36.6218V36.6566V36.6918V36.7267V36.7619V36.7968V36.832V36.8672V36.9024V36.9376V36.9728V37.008V37.0435V37.0787V37.1139V37.1494V37.185V37.2202V37.2557V37.2912V37.3267V37.3622V37.3978V37.4333V37.4688V37.5046V37.5402V37.5757V37.6115V37.647V37.6829V37.7187V37.7542V37.7901V37.8259V37.8618V37.8973V37.9331V37.969V38.0048V38.041V38.0768V38.1126V38.1485V38.1843V38.2202V38.2563V38.2922V38.328V38.3642V38.4V38.4362V38.472V38.5082V38.544V38.5798V38.616V38.6522V38.688V38.7242V38.76V38.7962V38.832V38.8682V38.9043V38.9402V38.9763V39.0122V39.0483V39.0845V39.1203V39.1565V39.1923V39.2285V39.2643V39.3005V39.3363V39.3725V39.4083V39.4445V39.4803V39.5165V39.5523V39.5885V39.6243V39.6602V39.696V39.7322V39.768V39.8038V39.8397V39.8755V39.9114V39.9472V39.983V40.0189V40.0547V40.0906V40.1264V40.1619V40.1978V40.2336V40.2691V40.305V40.3405V40.3763V40.4118V40.4474V40.4829V40.5184V40.5542V40.5898V40.625V40.6605V40.696V40.7315V40.7667V40.8022V40.8374V40.873V40.9082V40.9434V40.9786V41.0138V41.049V41.0842V41.1194V41.1542V41.1894V41.2243V41.2595V41.2944V41.3293V41.3642V41.399V41.4339V41.4685V41.5034V41.5379V41.5728V41.6074V41.6419V41.6765V41.711V41.7456V41.7798V41.8144V41.8486V41.8829V41.9171V41.9514V41.9856V42.0198V42.0541V42.088V42.1219V42.1558V42.1898V42.2237V42.2576V42.2915V42.3251V42.3587V42.3923V42.4259V42.4595V42.4931V42.5264V42.5597V42.5933V42.6266V42.6595V42.6928V42.7261V42.759V42.792V42.825V42.8579V42.8906V42.9235V42.9562V42.9888V43.0214V43.0541V43.0864V43.119V43.1514V43.1837V43.2157V43.248V43.28V43.312V43.344V43.376V43.408V43.4397V43.4714V43.503V43.5347V43.5661V43.5978V43.6291V43.6605V43.6915V43.7229V43.7539V43.785V43.816V43.8467V43.8778V43.9085V43.9392V43.9696V44.0003V44.0307V44.0611V44.0915V44.1216V44.1517V44.1818V44.2118V44.2419V44.2717V44.3014V44.3309V44.3606V44.3901V44.4195V44.449V44.4781V44.5075V44.5366V44.5654V44.5946V44.6234V44.6522V44.6806V44.7094V44.7379V44.7664V44.7946V44.8227V44.8509V44.879V44.9069V44.9347V44.9626V44.9904V45.0179V45.0454V45.073V45.1002V45.1274V45.1546V45.1818V45.2086V45.2355V45.2621V45.2886V45.3152V45.3418V45.3683V45.3946V45.4205V45.4467V45.4726V45.4986V45.5242V45.5498V45.5754V45.601V45.6262V45.6515V45.6765V45.7014V45.7264V45.7514V45.776V45.8006V45.825V45.8496V45.8739V45.8979V45.9219V45.9459V45.9699V45.9936V46.017V46.0406V46.064V46.0874V46.1104V46.1334V46.1565V46.1792V46.2019V46.2243V46.247V46.2691V46.2915V46.3136V46.3357V46.3574V46.3792V46.4006V46.4224V46.4438V46.465V46.4861V46.5072V46.528V46.5488V46.5693V46.5898V46.6102V46.6307V46.6506V46.6707V46.6906V46.7104V46.7299V46.7494V46.769V46.7882V46.807V46.8262V46.8451V46.8637V46.8822V46.9008V46.919V46.9373V46.9552V46.9731V46.991V47.0086V47.0259V47.0435V47.0605V47.0778V47.0947V47.1114V47.128V47.1446V47.161V47.1773V47.1933V47.2093V47.225V47.2406V47.2563V47.2717V47.287V47.3021V47.3168V47.3318V47.3462V47.361V47.3754V47.3894V47.4035V47.4173V47.431V47.4448V47.4582V47.4714V47.4848V47.4976V47.5104V47.5232V47.5357V47.5482V47.5603V47.5725V47.5843V47.5962V47.6077V47.6192V47.6304V47.6416V47.6525V47.6634V47.6739V47.6845V47.6947V47.705V47.7149V47.7248V47.7344V47.744V47.7533V47.7626V47.7715V47.7802V47.7891V47.7974V47.8058V47.8141V47.8221V47.8298V47.8374V47.8451V47.8525V47.8595V47.8666V47.8733V47.88V47.8864V47.8928V47.8989V47.905V47.9107V47.9162V47.9216V47.9267V47.9318V47.937V47.9414V47.9459V47.9504V47.9546V47.9587V47.9626V47.9661V47.9696V47.9728V47.9789V47.984V47.9885V47.9923V47.9965V47.9997C35.2 49.767 33.7674 51.2 32 51.2C30.2326 51.2 28.8 49.7674 28.8 48V47.9965V47.9923V47.9885V47.984V47.9789V47.9728V47.9696V47.9661V47.9626V47.9587V47.9546V47.9504V47.9459V47.9414V47.937V47.9318V47.9267V47.9216V47.9162V47.9107V47.905V47.8989V47.8928V47.8864V47.88V47.8733V47.8666V47.8595V47.8525V47.8451V47.8374V47.8298V47.8221V47.8141V47.8058V47.7974V47.7891V47.7802V47.7715V47.7626V47.7533V47.744V47.7344V47.7248V47.7149V47.705V47.6947V47.6845V47.6739V47.6634V47.6525V47.6416V47.6304V47.6192V47.6077V47.5962V47.5843V47.5725V47.5603V47.5482V47.5357V47.5232V47.5104V47.4976V47.4848V47.4714V47.4582V47.4448V47.431V47.4173V47.4035V47.3894V47.3754V47.361V47.3462V47.3318V47.3168V47.3021V47.287V47.2717V47.2563V47.2406V47.225V47.2093V47.1933V47.1773V47.161V47.1446V47.128V47.1114V47.0947V47.0778V47.0605V47.0435V47.0259V47.0086V46.991V46.9731V46.9552V46.9373V46.919V46.9008V46.8822V46.8637V46.8451V46.8262V46.807V46.7882V46.769V46.7494V46.7299V46.7104V46.6906V46.6707V46.6506V46.6307V46.6102V46.5898V46.5693V46.5488V46.528V46.5072V46.4861V46.465V46.4438V46.4224V46.4006V46.3792V46.3574V46.3357V46.3136V46.2915V46.2691V46.247V46.2243V46.2019V46.1792V46.1565V46.1334V46.1104V46.0874V46.064V46.0406V46.017V45.9936V45.9699V45.9459V45.9219V45.8979V45.8739V45.8496V45.825V45.8006V45.776V45.7514V45.7264V45.7014V45.6765V45.6515V45.6262V45.601V45.5754V45.5498V45.5242V45.4986V45.4726V45.4467V45.4205V45.3946V45.3683V45.3418V45.3152V45.2886V45.2621V45.2355V45.2086V45.1818V45.1546V45.1274V45.1002V45.073V45.0454V45.0179V44.9904V44.9626V44.9347V44.9069V44.879V44.8509V44.8227V44.7946V44.7664V44.7379V44.7094V44.6806V44.6522V44.6234V44.5946V44.5654V44.5366V44.5075V44.4781V44.449V44.4195V44.3901V44.3606V44.3309V44.3014V44.2717V44.2419V44.2118V44.1818V44.1517V44.1216V44.0915V44.0611V44.0307V44.0003V43.9696V43.9392V43.9085V43.8778V43.8467V43.816V43.785V43.7539V43.7229V43.6915V43.6605V43.6291V43.5978V43.5661V43.5347V43.503V43.4714V43.4397V43.408V43.376V43.344V43.312V43.28V43.248V43.2157V43.1837V43.1514V43.119V43.0864V43.0541V43.0214V42.9888V42.9562V42.9235V42.8906V42.8579V42.825V42.792V42.759V42.7261V42.6928V42.6595V42.6266V42.5933V42.5597V42.5264V42.4931V42.4595V42.4259V42.3923V42.3587V42.3251V42.2915V42.2576V42.2237V42.1898V42.1558V42.1219V42.088V42.0541V42.0198V41.9856V41.9514V41.9171V41.8829V41.8486V41.8144V41.7798V41.7456V41.711V41.6765V41.6419V41.6074V41.5728V41.5379V41.5034V41.4685V41.4339V41.399V41.3642V41.3293V41.2944V41.2595V41.2243V41.1894V41.1542V41.1194V41.0842V41.049V41.0138V40.9786V40.9434V40.9082V40.873V40.8374V40.8022V40.7667V40.7315V40.696V40.6605V40.625V40.5898V40.5542V40.5184V40.4829V40.4474V40.4118V40.3763V40.3405V40.305V40.2691V40.2336V40.1978V40.1619V40.1264V40.0906V40.0547V40.0189V39.983V39.9472V39.9114V39.8755V39.8397V39.8038V39.768V39.7322V39.696V39.6602V39.6243V39.5885V39.5523V39.5165V39.4803V39.4445V39.4083V39.3725V39.3363V39.3005V39.2643V39.2285V39.1923V39.1565V39.1203V39.0845V39.0483V39.0122V38.9763V38.9402V38.9043V38.8682V38.832V38.7962V38.76V38.7242V38.688V38.6522V38.616V38.5798V38.544V38.5082V38.472V38.4362V38.4V38.3642V38.328V38.2922V38.2563V38.2202V38.1843V38.1485V38.1126V38.0768V38.041V38.0048V37.969V37.9331V37.8973V37.8618V37.8259V37.7901V37.7542V37.7187V37.6829V37.647V37.6115V37.5757V37.5402V37.5046V37.4688V37.4333V37.3978V37.3622V37.3267V37.2912V37.2557V37.2202V37.185V37.1494V37.1139V37.0787V37.0435V37.008V36.9728V36.9376V36.9024V36.8672V36.832V36.7968V36.7619V36.7267V36.6918V36.6566V36.6218V36.5869V36.552V36.5171V36.4822V36.4474V36.4128V36.3779V36.3434V36.3085V36.2739V36.2394V36.2048V36.1706V36.136V36.1014V36.0672V36.033V35.9987V35.9642V35.9302V35.896V35.8618V35.8278V35.7936V35.7597V35.7258V35.6918V35.6582V35.6243V35.5904V35.5568V35.5232V35.4896V35.456V35.4224V35.3891V35.3558V35.3222V35.289V35.2557V35.2227V35.1894V35.1565V35.1235V35.0906V35.0576V35.0246V34.9917V34.959V34.9264V34.8938V34.8611V34.8288V34.7962V34.7638V34.7315V34.6992V34.6672V34.6349V34.6029V34.5709V34.5389V34.5069V34.4752V34.4435V34.4118V34.3802V34.3485V34.3171V34.2858V34.2733V34.2605V34.248V34.2352V34.2227V34.2099V34.1971V34.1843V34.1715V34.1587V34.1459V34.1331V34.1203V34.1075V34.0944V34.0816V34.0685V34.0554V34.0426V34.0294V34.0163V34.0032V33.9901V33.977V33.9638V33.9507V33.9376V33.9242V33.911V33.8976V33.8845V33.871V33.8576V33.8445V33.831V33.8176V33.8042V33.7907V33.7773V33.7638V33.7504V33.7366V33.7232V33.7098V33.696V33.6826V33.6688V33.6554V33.6416V33.6278V33.6144V33.6006V33.5869V33.5731V33.5594V33.5456V33.5318V33.5181V33.5043V33.4902V33.4765V33.4627V33.449V33.4349V33.4211V33.407V33.3933V33.3792V33.3651V33.3514V33.3373V33.3232V33.3094V33.2954V33.2813V33.2672V33.2531V33.239V33.225V33.2109V33.1968V33.1827V33.1686V33.1542V33.1402V33.1261V33.112V33.0976V33.0835V33.0694V33.055V33.041V33.0266V33.0125V32.9981V32.984V32.9696V32.9555V32.9411V32.9267V32.9126V32.8982V32.8838V32.8698V32.8554V32.841V32.8266V32.8125V32.7981V32.7837V32.7693V32.7549V32.7405V32.7264V32.712V32.6976V32.6832V32.6688V32.6544V32.64V32.6256V32.6112V32.5968V32.5824V32.568V32.5536V32.5392V32.5248V32.5104V32.496V32.4816V32.4672V32.4528V32.4384V32.424V32.4096V32.3952V32.3808V32.3664V32.352V32.3376V32.3229V32.3085V32.2941V32.2797V32.2653V32.2509V32.2365V32.2221V32.2077V32.1933V32.1792V32.1648V32.1504V32.136V32.1216V32.1072V32.0928V32.0784V32.064V32.0496V32.0355V32.0211V32.0067V31.9923V31.9782V31.9638V31.9494V31.935V31.921V31.9066V31.8922V31.8781V31.8637V31.8496V31.8352V31.8211V31.8067V31.7926V31.7782V31.7642V31.7501V31.7357V31.7216V31.7075V31.6931V31.679V31.665V31.6509V31.6368V31.6227V31.6086V31.5946V31.5805V31.5664V31.5523V31.5382V31.5242V31.5104V31.4963V31.4822V31.4682V31.4544V31.4403V31.4266V31.4125V31.3987V31.3846V31.3709V31.3571V31.3434V31.3293V31.3155V31.3018V31.288V31.2742V31.2605V31.2467V31.233V31.2195V31.2058V31.192V31.1786V31.1648V31.151V31.1376V31.1242V31.1104V31.097V31.0835V31.0701V31.0566V31.0429V31.0294V31.0163V31.0029V30.9894V30.976V30.9629V30.9494V30.936V30.9229V30.9098V30.8963V30.8832V30.8701V30.857V30.8438V30.8307V30.8176V30.8045V30.7914V30.7786V30.7654V30.7523V30.7395V30.7267V30.7136V30.7008V30.688V30.6752V30.6624V30.6496V30.6368V30.624V30.6115V30.5987V30.5862V30.5734V30.561V30.5485V30.5357V30.5232V30.5107V30.4986V30.4861V30.4736V30.4611V30.449V30.4365V30.4243V30.4122V30.4V30.3878V30.3757V30.3635V30.3514V30.3392V30.3274V30.3152V30.3034V30.2915V30.2794V30.2675V30.2557V30.2438V30.2323V30.2205V30.2086V30.1971V30.1853V30.1738V30.1622V30.1507V30.1392V30.1277V30.1162V30.105V30.0934V30.0822V30.0707V30.0595V30.0483V30.0371V30.0259V30.015V30.0038V29.993V29.9818V29.9709V29.96V29.9491V29.9382V29.9274V29.9165V29.9059V29.895V29.8845V29.8739V29.8634V29.8528V29.8422V29.8317V29.8214V29.8109V29.8006V29.7904V29.7802V29.7699V29.7597V29.7494V29.7395V29.7293V29.7194V29.7094V29.6995V29.6896V29.6797V29.6701V29.6602V29.6506V29.641V29.6314V29.6218V29.6122V29.6026V29.5933V29.5837V29.5744V29.5651V29.5558V29.5466V29.5376V29.5283V29.5194V29.5101V29.5011V29.4922V29.4835V29.4746V29.4659V29.457V29.4483V29.4397V29.431V29.4224V29.4141V29.4054V29.3971V29.3888V29.3805V29.3722V29.3642V29.3558V29.3478V29.3398V29.3318V29.3238V29.3158V29.3082V29.3002V29.2925V29.2848V29.2771V29.2694V29.2621V29.2544V29.247V29.2397V29.2323V29.2253V29.2179V29.2109V29.2035V29.1965V29.1894V29.1827V29.1757V29.169V29.1622V29.1555V29.1488V29.1421V29.1357V29.129V29.1226V29.1162V29.1101V29.1037V29.0976V29.0912V29.0851V29.0794V29.0733V29.0672V29.0614V29.0557V29.0499V29.0442V29.0387V29.033V29.0275V29.0221V29.0166V29.0115V29.0061V29.001V28.9958V28.9907V28.9856V28.9808V28.976V28.9712V28.9664V28.9616V28.9568V28.9523V28.9478V28.9434V28.9389V28.9347V28.9306V28.9261V28.9222V28.9181V28.9139V28.9101V28.9062V28.9024V28.8986V28.895V28.8915V28.888V28.8845V28.881V28.8778V28.8742V28.871V28.865V28.8592V28.8534V28.848V28.8429V28.8381V28.8336V28.8291V28.8253V28.8214V28.8166V28.8134V28.8096V28.8064V28.8026C28.8 27.0352 30.2326 25.6 32 25.6Z" fill="#7159C1"/>
</svg>