<svg xmlns="http://www.w3.org/2000/svg" xml:space="preserve" viewBox="0 0 512.001 512.001"><path d="M256.211 303.867v43.574l-41.809 32.681-41.81-32.681v-43.574z" style="fill:#88acb5"/><path d="M172.589 347.441h83.619v43.901h-83.619zM411.66 8.17h-32.681v283.898l42.06-21.787V17.55c0-5.153-4.226-9.38-9.379-9.38" style="fill:#a7cbcf"/><path d="M378.979 8.17H17.551c-5.153 0-9.379 4.227-9.379 9.379v252.732l32.681 21.787h347.506V17.55c0-5.153-4.227-9.38-9.38-9.38" style="fill:#c7e7eb"/><path d="m388.359 270.282-9.379 55.372h32.681c5.153 0 9.379-4.216 9.379-9.379v-45.993z" style="fill:#367596"/><path d="M8.171 270.282v45.993c0 5.164 4.227 9.379 9.379 9.379h361.428c5.153 0 9.379-4.216 9.379-9.379v-45.993z" style="fill:#5195af"/><path d="M494.451 194.026H461.77v54.468l42.06-21.787v-23.291c.001-5.163-4.226-9.39-9.379-9.39m-32.68 222.655v87.149h32.681c5.153 0 9.379-4.227 9.379-9.379v-55.982z" style="fill:#111449"/><path d="M461.771 194.026H318.214c-5.153 0-9.379 4.227-9.379 9.39v23.291l32.681 21.787H471.15v-45.078c0-5.163-4.227-9.39-9.379-9.39M341.516 416.681l-32.681 21.787v55.982c0 5.153 4.227 9.379 9.379 9.379H461.77c5.153 0 9.379-4.227 9.379-9.379v-77.77H341.516z" style="fill:#27467a"/><path d="M422.673 479.319h-32.681a8.17 8.17 0 0 1-8.17-8.17 8.17 8.17 0 0 1 8.17-8.17h32.681a8.17 8.17 0 0 1 8.17 8.17 8.17 8.17 0 0 1-8.17 8.17" style="fill:#111449"/><path d="M471.15 226.707H308.835v211.761H471.15l10.894-105.88z" style="fill:#ffeab5"/><path d="M471.15 226.707h32.681v211.761H471.15z" style="fill:#ffcd60"/><path d="M276.154 333.828a8.17 8.17 0 0 0 8.17-8.17 8.17 8.17 0 0 0-8.17-8.17h-258.6c-.646 0-1.212-.566-1.212-1.214V17.554c0-.646.568-1.214 1.212-1.214h394.102c.646 0 1.212.568 1.212 1.214v143.797a8.17 8.17 0 0 0 8.17 8.17 8.17 8.17 0 0 0 8.17-8.17V17.554C429.21 7.874 421.336 0 411.657 0H17.554C7.875 0 .001 7.874.001 17.554v298.72c0 9.679 7.874 17.554 17.553 17.554h147.274v49.344h-62.823a8.17 8.17 0 0 0-8.17 8.17 8.17 8.17 0 0 0 8.17 8.17h174.15a8.17 8.17 0 0 0 8.17-8.17 8.17 8.17 0 0 0-8.17-8.17h-11.773v-49.344zm-28.113 49.343h-66.873v-49.344h66.873z"/><path d="M276.154 262.116H40.852a8.17 8.17 0 0 0-8.17 8.17 8.17 8.17 0 0 0 8.17 8.17h235.302a8.17 8.17 0 0 0 8.17-8.17 8.17 8.17 0 0 0-8.17-8.17m218.294-76.256h-176.23c-9.679 0-17.553 7.875-17.553 17.554v291.033c0 9.679 7.874 17.554 17.553 17.554h176.229c9.679 0 17.553-7.874 17.553-17.554V203.413c.001-9.679-7.873-17.553-17.552-17.553m-177.443 49.022H495.66v195.416H317.005zm1.213-32.681h176.229c.646 0 1.212.566 1.212 1.214v15.127H317.005v-15.127c0-.648.568-1.214 1.213-1.214m176.23 293.459h-176.23c-.646 0-1.212-.568-1.212-1.214v-47.808h178.655v47.808c0 .646-.568 1.214-1.213 1.214"/><path d="M422.673 462.979h-32.681a8.17 8.17 0 0 0-8.17 8.17 8.17 8.17 0 0 0 8.17 8.17h32.681a8.17 8.17 0 0 0 8.17-8.17 8.17 8.17 0 0 0-8.17-8.17"/></svg>