<svg width="48" height="48" viewBox="0 0 48 48" fill="none"
    xmlns="http://www.w3.org/2000/svg">
    <path d="M24.019 28.4874V32.5725L20.0994 35.6363L16.1797 32.5725V28.4874H24.019Z" fill="#7159C1"/>
    <path d="M24.019 32.5726H16.1797V36.6883H24.019V32.5726Z" fill="#7159C1"/>
    <path d="M38.5931 0.765991H35.5293V27.3814L39.4724 25.3389V1.64536C39.4724 1.16227 39.0762 0.765991 38.5931 0.765991Z" fill="#7159C1"/>
    <path d="M35.5287 0.765991H1.6449C1.16181 0.765991 0.765625 1.16227 0.765625 1.64527V25.3389L3.82946 27.3814H36.4081V1.64536C36.4081 1.16227 36.0118 0.765991 35.5287 0.765991Z" fill="#7159C1"/>
    <path d="M36.4086 25.3389L35.5293 30.53H38.5931C39.0762 30.53 39.4724 30.1347 39.4724 29.6507V25.3389H36.4086Z" fill="#7159C1"/>
    <path d="M0.765625 25.3389V29.6507C0.765625 30.1348 1.16191 30.53 1.6449 30.53H35.5287C36.0118 30.53 36.408 30.1347 36.408 29.6507V25.3389H0.765625Z" fill="#7159C1"/>
    <path d="M46.3549 18.1899H43.291V23.2963L47.2341 21.2538V19.0703C47.2342 18.5862 46.8379 18.1899 46.3549 18.1899Z" fill="#7159C1"/>
    <path d="M43.291 39.0638V47.234H46.3549C46.8379 47.234 47.2341 46.8378 47.2341 46.3548V41.1065L43.291 39.0638Z" fill="#7159C1"/>
    <path d="M43.2908 18.1899H32.8962H29.8324C29.3493 18.1899 28.9531 18.5862 28.9531 19.0703V21.2538L32.017 23.2963H44.1701V19.0703C44.1701 18.5862 43.7738 18.1899 43.2908 18.1899Z" fill="#7159C1"/>
    <path d="M32.017 39.0638L28.9531 41.1063V46.3546C28.9531 46.8377 29.3494 47.2339 29.8324 47.2339H32.8962H43.2908C43.7738 47.2339 44.17 46.8376 44.17 46.3546V39.0637H32.017V39.0638Z" fill="#7159C1"/>
    <path d="M39.6247 44.936H36.5609C36.1378 44.936 35.7949 44.5931 35.7949 44.1701C35.7949 43.7471 36.1378 43.4042 36.5609 43.4042H39.6247C40.0478 43.4042 40.3906 43.7471 40.3906 44.1701C40.3907 44.5931 40.0479 44.936 39.6247 44.936Z" fill="#7159C1"/>
    <path d="M44.1701 21.2538H28.9531V41.1063H44.1701L45.1914 31.1801L44.1701 21.2538Z" fill="#7159C1"/>
    <path d="M47.2338 21.2538H44.1699V41.1063H47.2338V21.2538Z" fill="#7159C1"/>
    <path d="M25.8893 31.2963C26.3124 31.2963 26.6552 30.9534 26.6552 30.5304C26.6552 30.1074 26.3124 29.7644 25.8893 29.7644H1.64559C1.58503 29.7644 1.53197 29.7114 1.53197 29.6506V1.64568C1.53197 1.58512 1.58522 1.53187 1.64559 1.53187H38.5926C38.6531 1.53187 38.7062 1.58512 38.7062 1.64568V15.1266C38.7062 15.5496 39.049 15.8926 39.4721 15.8926C39.8952 15.8926 40.2381 15.5496 40.2381 15.1266V1.64568C40.2383 0.738186 39.5001 0 38.5927 0H1.64559C0.738186 0 0 0.738186 0 1.64568V29.6506C0 30.558 0.738186 31.2963 1.64559 31.2963H15.4525V35.9223H9.56286C9.13976 35.9223 8.79692 36.2652 8.79692 36.6882C8.79692 37.1112 9.13976 37.4542 9.56286 37.4542H25.8894C26.3125 37.4542 26.6553 37.1112 26.6553 36.6882C26.6553 36.2652 26.3125 35.9223 25.8894 35.9223H24.7857V31.2963H25.8893ZM23.2537 35.9222H16.9844V31.2962H23.2537V35.9222Z" fill="white"/>
    <path d="M25.8899 24.5734H3.83039C3.4073 24.5734 3.06445 24.9163 3.06445 25.3393C3.06445 25.7623 3.4073 26.1052 3.83039 26.1052H25.8899C26.313 26.1052 26.6558 25.7623 26.6558 25.3393C26.6558 24.9163 26.3131 24.5734 25.8899 24.5734Z" fill="white"/>
    <path d="M46.3546 17.4243H29.8331C28.9257 17.4243 28.1875 18.1626 28.1875 19.07V46.3543C28.1875 47.2617 28.9257 48 29.8331 48H46.3545C47.2619 48 48.0001 47.2618 48.0001 46.3543V19.0699C48.0002 18.1625 47.262 17.4243 46.3546 17.4243ZM29.7194 22.0201H46.4682V40.3403H29.7194V22.0201ZM29.8331 18.9563H46.3545C46.4151 18.9563 46.4682 19.0093 46.4682 19.0701V20.4882H29.7194V19.0701C29.7194 19.0093 29.7726 18.9563 29.8331 18.9563ZM46.3546 46.468H29.8331C29.7725 46.468 29.7195 46.4148 29.7195 46.3542V41.8722H46.4683V46.3542C46.4683 46.4148 46.4151 46.468 46.3546 46.468Z" fill="white"/>
    <path d="M39.6247 43.4042H36.5609C36.1378 43.4042 35.7949 43.7471 35.7949 44.1701C35.7949 44.5931 36.1378 44.936 36.5609 44.936H39.6247C40.0478 44.936 40.3906 44.5931 40.3906 44.1701C40.3907 43.7471 40.0479 43.4042 39.6247 43.4042Z" fill="white"/>
</svg>