<svg width="38" height="32" viewBox="0 0 38 32" fill="none"
    xmlns="http://www.w3.org/2000/svg">
    <path d="M1 25.39C1 26.95 1.66 28.27 2.98 29.35C4.3 30.43 5.896 30.98 7.768 31H30.268C32.116 31 33.7 30.45 35.02 29.35C36.34 28.25 37 26.93 37 25.39V6.64C37 5.08 36.34 3.75 35.02 2.65C33.7 1.55 32.116 1 30.268 1H7.768C5.896 1 4.3 1.55 2.98 2.65C1.66 3.75 1 5.08 1 6.64L1 25.39ZM5.5 25.39V12.25H32.5V25.39C32.5 25.91 32.284 26.35 31.852 26.71C31.42 27.07 30.892 27.25 30.268 27.25H7.768C7.144 27.25 6.604 27.07 6.148 26.71C5.692 26.35 5.476 25.91 5.5 25.39ZM5.5 10.39V6.64C5.5 6.12 5.716 5.68 6.148 5.32C6.58 4.96 7.12 4.77 7.768 4.75H30.268C30.868 4.75 31.396 4.94 31.852 5.32C32.308 5.7 32.524 6.14 32.5 6.64V10.39H5.5ZM7.768 8.5H10V6.64H7.768V8.5ZM12.268 8.5H14.5V6.64H12.268V8.5ZM16.768 8.5H30.268V6.64H16.768V8.5Z" fill="white" stroke="white" stroke-width="0.1"/>
</svg>