<svg width="64" height="64" viewBox="0 0 64 64" fill="none"
    xmlns="http://www.w3.org/2000/svg">
    <path fill-rule="evenodd" clip-rule="evenodd" d="M7.44192 31.9999C7.44192 17.6932 18.7702 6.09522 32.7442 6.09522C46.7182 6.09522 58.0465 17.6932 58.0465 31.9999C58.0465 46.3066 46.7182 57.9046 32.7442 57.9046C27.7665 57.9046 23.1331 56.4363 19.2238 53.9004C18.4962 53.4286 17.6047 53.3024 16.7794 53.5545L8.20894 56.1733L11.4359 48.4427C11.8173 47.529 11.7397 46.4825 11.2279 45.6383C8.82813 41.6791 7.44192 37.0099 7.44192 31.9999ZM32.7442 0C15.4821 0 1.48844 14.3269 1.48844 31.9999C1.48844 37.6017 2.89685 42.8747 5.37199 47.4596L0.239543 59.7545C-0.214178 60.8416 -0.0130637 62.0991 0.755561 62.981C1.52419 63.8633 2.7217 64.2108 3.82807 63.8725L17.2217 59.7804C21.7971 62.4654 27.0994 63.9999 32.7442 63.9999C50.0063 63.9999 64 49.673 64 31.9999C64 14.3269 50.0063 0 32.7442 0ZM39.5684 38.651L35.6563 41.4722C33.8242 40.4037 31.7985 38.9122 29.7665 36.8319C27.6543 34.6693 26.0882 32.4367 24.9336 30.3887L27.4197 28.2282C28.4866 27.3011 28.7786 25.7381 28.1213 24.4732L24.9536 18.378C24.527 17.5572 23.7579 16.9807 22.8648 16.8123C21.9717 16.6439 21.0525 16.9021 20.3683 17.5134L19.4291 18.3526C17.1705 20.3707 15.8348 23.687 16.9419 27.0448C18.0896 30.5258 20.539 36.0045 25.5569 41.1418C30.9555 46.669 36.4392 48.8456 39.6461 49.691C42.2299 50.3718 44.675 49.4591 46.3979 48.0218L48.1587 46.5529C48.9118 45.9248 49.3181 44.9596 49.2473 43.9676C49.1761 42.9756 48.6367 42.0814 47.802 41.5722L42.8062 38.5246C41.7971 37.9092 40.529 37.9586 39.5684 38.651Z" fill="#7159C1"/>
</svg>
