<svg width="42" height="42" viewBox="0 0 42 42" fill="none" xmlns="http://www.w3.org/2000/svg">
<path fill-rule="evenodd" clip-rule="evenodd" d="M13.8889 13H17C17.4888 13 17.8888 13.4 17.8888 13.8889C17.8888 15 18.0666 16.0667 18.3956 17.0622C18.4934 17.3734 18.4222 17.72 18.1734 17.9688L16.2178 19.9244C17.4978 22.44 19.56 24.4934 22.0756 25.7822L24.0312 23.8266C24.2088 23.6578 24.4312 23.5688 24.6622 23.5688C24.7512 23.5688 24.8488 23.5778 24.9378 23.6134C25.9334 23.9422 27.0088 24.12 28.1112 24.12C28.6 24.12 29 24.52 29 25.0088V28.1112C29 28.6 28.6 29 28.1112 29C19.7644 29 13 22.2356 13 13.8889C13 13.4 13.4 13 13.8889 13ZM16.1467 14.7778C16.2 15.5689 16.3333 16.3422 16.5467 17.08L15.48 18.1466C15.1156 17.08 14.8844 15.9511 14.8044 14.7778H16.1467ZM24.9112 25.4622C25.6666 25.6756 26.44 25.8088 27.2222 25.8622V27.1866C26.0488 27.1066 24.92 26.8756 23.8444 26.52L24.9112 25.4622Z" fill="#6F95FF" stroke="#6F95FF" stroke-width="0.256"/>
<path fill-rule="evenodd" clip-rule="evenodd" d="M21 41C32.0456 41 41 32.0456 41 21C41 9.9543 32.0456 1 21 1C9.9543 1 1 9.9543 1 21C1 32.0456 9.9543 41 21 41ZM21 37C29.8366 37 37 29.8366 37 21C37 12.1634 29.8366 5 21 5C12.1634 5 5 12.1634 5 21C5 29.8366 12.1634 37 21 37Z" fill="#6F95FF" stroke="#6F95FF" stroke-width="0.256"/>
</svg>
