<svg xmlns="http://www.w3.org/2000/svg" xml:space="preserve" width="200" height="200" viewBox="0 0 512.001 512.001"><path d="m124.848 269.271-47.582 72.932 92.531 92.531 72.932-47.582z" style="fill:#5c65c0"/><path d="m399.814 264.006-151.82-151.82-134.242 20.97-83.473 83.472 108.702 4.571 151.82 151.82 4.571 108.702 83.472-83.473z" style="fill:#ee3840"/><path d="M499.255 12.745c-89.728-24.901-173.329 21.509-212.564 60.744L99.687 260.493l151.82 151.82L438.51 225.31c39.235-39.235 85.646-122.837 60.745-212.565" style="fill:#6f95ff"/><circle cx="394.032" cy="119.129" r="42.81" style="fill:#fff"/><path d="M100.53 409.819c-4.524-4.523-11.86-4.523-16.384 0l-62.022 62.023c-4.524 4.524-4.524 11.86 0 16.385a11.56 11.56 0 0 0 8.192 3.393c2.965 0 5.93-1.132 8.192-3.393l62.022-62.023c4.524-4.525 4.524-11.861 0-16.385m-36.537-20.152c4.524-4.524 4.524-11.86 0-16.385-4.524-4.523-11.86-4.523-16.385 0L3.394 417.499c-4.524 4.524-4.524 11.86 0 16.385 2.261 2.261 5.227 3.393 8.192 3.393s5.93-1.132 8.192-3.393zM504.624 15.441a11.59 11.59 0 0 0-8.064-8.066c-42.222-11.718-87.955-9.438-132.256 6.59-34.328 12.42-67.714 33.241-91.597 57.126l-36.025 36.025-130.51 20.386a11.6 11.6 0 0 0-6.404 3.254l-83.472 83.472A11.586 11.586 0 0 0 24 233.995l82.339 3.463-20.636 20.636c-4.524 4.524-4.524 11.86 0 16.385l12.045 12.044-35.975 55.144a11.58 11.58 0 0 0 1.511 14.522l92.531 92.53a11.584 11.584 0 0 0 14.523 1.511l55.141-35.976 12.045 12.045c4.524 4.523 11.86 4.523 16.385 0l20.636-20.636 3.463 82.336a11.584 11.584 0 0 0 19.766 7.705l83.472-83.472a11.6 11.6 0 0 0 3.255-6.404l20.387-130.509 36.024-36.025c23.884-23.884 44.706-57.27 57.126-91.596 16.025-44.302 18.304-90.036 6.586-132.257M165.549 425.686l-79.235-79.235 28.176-43.187 38.93 38.931-4.578 4.578c-4.525 4.524-4.525 11.86 0 16.385 4.524 4.523 11.86 4.523 16.385 0l4.578-4.578 38.93 38.93zM424.525 222.91l-38.695 38.696-.014.014-40.263 40.263c-4.524 4.524-4.524 11.86 0 16.385 4.524 4.523 11.86 4.523 16.385 0l15.156-15.156-14.904 95.408-62.142 62.143-3.248-77.256 32.372-32.372c4.524-4.524 4.524-11.86 0-16.385-4.524-4.523-11.86-4.523-16.385 0l-35.938 35.938-.058.058-31.076 31.075-10.33-10.33a12 12 0 0 0-.359-.358l-48.837-48.838L326.303 202.08c4.524-4.524 4.525-11.86 0-16.385-4.523-4.522-11.858-4.523-16.384 0L169.804 325.812l-48.839-48.839q-.173-.18-.356-.356l-10.33-10.332 31.076-31.076.057-.057 35.938-35.938c4.525-4.524 4.525-11.86 0-16.385-4.523-4.523-11.86-4.523-16.384 0l-32.372 32.372-77.256-3.25 62.142-62.142 95.408-14.903-15.156 15.154 16.384 16.385 40.141-40.141q.131-.127.258-.258l38.574-38.574C321.328 55.236 397.877 7.47 483.953 28.046c20.576 86.077-27.19 162.628-59.428 194.864M122.333 448.007l-44.216 44.216c-4.524 4.524-4.524 11.86 0 16.385a11.56 11.56 0 0 0 8.192 3.393c2.965 0 5.93-1.132 8.192-3.393l44.216-44.216c4.524-4.524 4.524-11.86 0-16.385-4.523-4.524-11.859-4.524-16.384 0" style="fill:#413b6b"/><path d="M355.565 79.507c-10.274 10.275-15.932 23.935-15.932 38.464s5.658 28.19 15.932 38.464c10.604 10.604 24.534 15.905 38.464 15.905s27.859-5.301 38.462-15.905c10.275-10.274 15.932-23.934 15.932-38.464s-5.658-28.189-15.932-38.464c-21.208-21.208-55.716-21.208-76.926 0m60.542 60.543c-12.175 12.177-31.983 12.176-44.159 0-5.898-5.898-9.145-13.738-9.145-22.08 0-8.34 3.248-16.182 9.145-22.08 6.088-6.088 14.083-9.131 22.08-9.131 7.995 0 15.993 3.045 22.079 9.131 5.898 5.898 9.146 13.739 9.146 22.08.001 8.343-3.248 16.182-9.146 22.08" style="fill:#413b6b"/></svg>