<svg width="50" height="28" viewBox="0 0 50 28" fill="none" xmlns="http://www.w3.org/2000/svg">
<path fill-rule="evenodd" clip-rule="evenodd" d="M13.5602 27.8831C6.08011 27.8831 0 21.6304 0 13.9431C0 6.25589 6.08324 0.0031387 13.5602 0.0031387C17.7789 0.0031387 21.7402 2.02147 24.3079 5.43349L21.2568 8.41861C19.499 5.83213 16.6269 4.29092 13.5602 4.29092C8.38722 4.29092 4.18105 8.62264 4.18105 13.9431C4.18105 19.2636 8.39036 23.5953 13.5602 23.5953C16.2848 23.5953 20.2116 17.5403 23.3725 12.6781C27.6069 6.15544 31.6027 0 36.4712 0C43.9324 0 50 6.23391 50 13.8992C50 21.5644 43.9324 27.7983 36.4712 27.7983C32.2682 27.7983 28.31 25.7863 25.7549 22.3774L28.7777 19.3578C30.5324 21.9568 33.4076 23.5106 36.4712 23.5106C41.6253 23.5106 45.8189 19.1977 45.8189 13.8992C45.8189 8.60066 41.6253 4.28778 36.4712 4.28778C33.8471 4.28778 29.9642 10.258 26.8504 15.0574C22.5658 21.6555 18.5197 27.8831 13.5602 27.8831Z" fill="#7159C1"/>
</svg>
