<svg width="156" height="128" viewBox="0 0 156 128" fill="none"
    xmlns="http://www.w3.org/2000/svg">
    <path d="M4.72301 40.6611L135.35 40.6519C135.434 40.6516 135.516 40.6679 135.593 40.6997C135.671 40.7315 135.741 40.7783 135.8 40.8373C135.859 40.8964 135.906 40.9665 135.937 41.0437C135.969 41.1208 135.985 41.2035 135.985 41.287C135.981 48.3607 135.939 108.376 135.939 109.828C126.23 109.828 16.3281 109.932 4.08594 109.934C4.08594 107.93 4.08594 48.2775 4.08594 41.2992C4.08585 41.2154 4.10227 41.1325 4.13424 41.0551C4.16622 40.9777 4.21312 40.9074 4.27229 40.8482C4.33145 40.7889 4.4017 40.7419 4.47904 40.7098C4.55638 40.6777 4.63928 40.6612 4.72301 40.6611Z" fill="#1BCF6C"/>
    <path d="M4.72402 41.3008H16.5476H37.3228L63.0957 41.2989L89.9138 41.297H113.824H130.873H134.696C134.85 41.2867 135.004 41.2867 135.157 41.297C135.387 41.3289 135.31 41.2621 135.346 41.4911C135.456 42.1947 135.346 43.0064 135.346 43.7164L135.344 47.1035C135.339 54.264 135.334 61.4243 135.329 68.5845C135.323 76.8294 135.318 85.0741 135.312 93.3187C135.309 98.4972 135.305 103.675 135.302 108.854C135.302 109.181 135.302 109.507 135.302 109.834L135.941 109.194C134.1 109.194 132.26 109.195 130.419 109.197L120.274 109.205L106.61 109.216L90.5304 109.23L73.1389 109.245L55.5394 109.26L38.8358 109.274L24.1314 109.286L12.5301 109.295C10.0651 109.297 7.60033 109.298 5.13562 109.299H4.08631L4.72594 109.939V102.95C4.72594 97.879 4.72594 92.8079 4.72594 87.7367V41.8582C4.72594 41.8109 4.71698 41.3018 4.72594 41.3008C5.52963 41.193 5.54051 39.9122 4.72594 40.0215C3.49497 40.1866 3.44668 41.1518 3.44668 42.1397V84.8945C3.44668 90.3313 3.44668 95.7692 3.44668 101.208C3.44668 104.03 3.39966 106.856 3.44668 109.677C3.44668 109.762 3.44668 109.848 3.44668 109.932C3.44907 110.101 3.51723 110.263 3.63667 110.382C3.75611 110.502 3.91741 110.57 4.08631 110.572C6.14975 110.572 8.21341 110.571 10.2773 110.569L20.9466 110.561L34.99 110.55L51.3048 110.536L68.7862 110.521L86.3309 110.506L102.835 110.492L117.195 110.48L128.308 110.471C130.561 110.47 132.815 110.468 135.069 110.467H135.938C136.107 110.464 136.269 110.396 136.388 110.277C136.507 110.157 136.576 109.996 136.578 109.827C136.578 105.985 136.58 102.143 136.585 98.3008L136.602 74.4125C136.607 66.6018 136.613 58.7912 136.618 50.9806C136.62 48.4343 136.621 45.8879 136.623 43.3415C136.623 42.661 136.666 41.9663 136.623 41.2858C136.533 39.7852 134.918 40.0123 133.843 40.0123H119.281H96.6993H70.1176L43.5556 40.0187H21.0304H6.56167H4.72402C3.90241 40.0215 3.89953 41.3008 4.72402 41.3008Z" fill="#211715"/>
    <path d="M139.359 109.805C139.359 108.151 139.341 108.811 139.341 106.457L0.665856 106.462C0.665856 108.278 0.638672 106.769 0.638672 109.813H4.06069C4.05334 110.306 4.04566 111.284 4.04566 112.901L135.953 112.893C135.953 111.721 135.943 110.843 135.938 109.805L139.359 109.805Z" fill="white"/>
    <path d="M140 109.805C140 108.689 139.981 107.573 139.981 106.457C139.979 106.288 139.911 106.127 139.791 106.007C139.672 105.888 139.51 105.82 139.342 105.817H123.763H108.892H91.1335H71.7959H52.3339H34.2052H18.7172H0.666814C0.497895 105.82 0.336545 105.888 0.217089 106.007C0.097634 106.127 0.0295008 106.288 0.0271843 106.457C0.0265447 107.579 0 108.696 0 109.813C0.00247769 109.982 0.0706626 110.143 0.190084 110.263C0.309505 110.382 0.470761 110.45 0.63963 110.453H4.06165L3.42202 109.813C3.40763 110.843 3.40731 111.872 3.40699 112.901C3.40939 113.07 3.47755 113.231 3.59698 113.351C3.71642 113.47 3.87773 113.539 4.04662 113.541H8.72743H18.8537H33.0286H50.029H68.4714H86.9497H104.212H118.987H129.869H135.953C136.122 113.538 136.284 113.47 136.403 113.351C136.522 113.231 136.591 113.07 136.593 112.901C136.593 111.872 136.584 110.843 136.578 109.813L135.938 110.453H139.36C140.184 110.453 140.185 109.174 139.36 109.174H135.938C135.769 109.176 135.608 109.244 135.489 109.364C135.369 109.483 135.301 109.645 135.299 109.813C135.304 110.843 135.313 111.872 135.314 112.901L135.953 112.262H131.764H122.022H108.124H91.2951H72.9185H54.4012H36.9933H21.9662H10.7256H4.0463L4.68593 112.901C4.68593 111.872 4.68593 110.843 4.70096 109.813C4.69865 109.644 4.63051 109.483 4.51106 109.363C4.3916 109.244 4.23025 109.176 4.06133 109.174H0.63963L1.27926 109.813C1.27926 108.696 1.3058 107.579 1.30644 106.462L0.666814 107.102H15.511H30.1509H47.7653H67.048H86.5436H104.794H120.493H132.294H139.34L138.7 106.462C138.7 107.578 138.719 108.694 138.719 109.81C138.721 110.628 140 110.63 140 109.805Z" fill="#211715"/>
    <path d="M132.937 109.237C131.322 109.237 129.708 109.238 128.093 109.242L119.15 109.254L108.642 109.268C105.461 109.272 102.28 109.277 99.0989 109.281C97.0892 109.283 95.0794 109.285 93.0694 109.287H92.6783C91.8554 109.287 91.8538 110.566 92.6783 110.566C94.4927 110.566 96.3068 110.564 98.1206 110.561L107.371 110.549L117.898 110.535C120.988 110.531 124.078 110.526 127.168 110.522C128.991 110.52 130.814 110.518 132.637 110.516H132.936C133.759 110.516 133.761 109.237 132.936 109.237H132.937Z" fill="#211715"/>
    <path d="M88.2375 109.237C87.2896 109.237 86.3416 109.237 85.3937 109.237L79.2967 109.24L70.7682 109.246L60.5217 109.252L49.4087 109.26L38.1663 109.267L27.5663 109.274L18.3496 109.279L11.361 109.284L7.32588 109.285H6.88741C6.06421 109.285 6.06293 110.565 6.88741 110.565C7.94707 110.565 9.00672 110.565 10.0664 110.565L16.4262 110.561L25.145 110.556L35.5096 110.549L46.6673 110.542L57.8822 110.535L68.3827 110.528L77.4261 110.522L84.1701 110.518C85.409 110.518 86.648 110.517 87.887 110.516H88.2388C89.062 110.516 89.0632 109.237 88.2388 109.237H88.2375Z" fill="#211715"/>
    <path d="M10.707 106.458C10.707 104.184 10.7275 104.564 10.7275 103.207C13.7581 103.207 18.7472 103.204 22.9502 103.204C22.9502 104.963 22.9643 105.216 22.9643 106.452C20.4684 106.451 14.6033 106.458 10.707 106.458Z" fill="#3F88C9"/>
    <path d="M11.3457 106.458C11.3457 105.374 11.3655 104.291 11.3661 103.207L10.7265 103.847C14.8005 103.847 18.8748 103.846 22.9492 103.843L22.3096 103.204C22.3096 104.286 22.3233 105.369 22.3236 106.452L22.9633 105.812C18.8777 105.812 14.792 105.814 10.706 105.818C9.88283 105.818 9.88123 107.097 10.706 107.097C14.7918 107.097 18.8775 107.095 22.9633 107.091C23.1322 107.089 23.2935 107.021 23.413 106.901C23.5324 106.782 23.6006 106.621 23.6029 106.452C23.6029 105.369 23.5891 104.286 23.5888 103.204C23.5864 103.035 23.5183 102.873 23.3988 102.754C23.2794 102.635 23.1181 102.566 22.9492 102.564C18.8748 102.564 14.8005 102.565 10.7265 102.567C10.5576 102.57 10.3963 102.638 10.2769 102.757C10.1574 102.877 10.0893 103.038 10.0869 103.207C10.0869 104.291 10.0664 105.374 10.0664 106.458C10.0661 107.28 11.3453 107.282 11.3457 106.458Z" fill="#211715"/>
    <path d="M27.3223 106.26C27.3223 104.668 27.336 104.572 27.336 103.622C29.3729 103.622 32.7259 103.62 35.5505 103.62C35.5505 104.851 35.5601 105.391 35.5601 106.256C33.882 106.256 29.9409 106.26 27.3223 106.26Z" fill="white"/>
    <path d="M38.6172 106.26C38.6172 104.668 38.6309 104.572 38.6309 103.622C40.6675 103.622 44.0205 103.62 46.8451 103.62C46.8451 104.851 46.8547 105.391 46.8547 106.256C45.1766 106.256 41.2358 106.26 38.6172 106.26Z" fill="#FFDA71"/>
    <path d="M49.8594 106.26C49.8594 104.668 49.8734 104.572 49.8734 103.622C51.91 103.622 55.263 103.62 58.0876 103.62C58.0876 104.851 58.0972 105.391 58.0972 106.256C56.4181 106.256 52.4771 106.26 49.8594 106.26Z" fill="#F4B3B3"/>
    <path d="M27.9609 106.26C27.9609 105.381 27.9743 104.501 27.9747 103.622L27.335 104.262C30.0733 104.262 32.8114 104.261 35.5495 104.259L34.9098 103.62C34.9098 104.498 34.9191 105.379 34.9194 106.256L35.5591 105.616C32.8131 105.616 30.0672 105.618 27.3213 105.62C26.4981 105.62 26.4968 106.9 27.3213 106.9C30.0672 106.9 32.8131 106.898 35.5591 106.895C35.728 106.893 35.8893 106.825 36.0087 106.705C36.1281 106.586 36.1963 106.425 36.1987 106.256C36.1987 105.377 36.1894 104.497 36.1891 103.62C36.1866 103.451 36.1184 103.289 35.999 103.17C35.8796 103.051 35.7183 102.982 35.5495 102.98C32.8112 102.98 30.0731 102.981 27.335 102.983C27.1662 102.985 27.0049 103.053 26.8855 103.173C26.7661 103.292 26.6979 103.453 26.6954 103.622C26.6954 104.502 26.682 105.381 26.6816 106.26C26.6816 107.083 27.9609 107.084 27.9609 106.26Z" fill="#211715"/>
    <path d="M39.2558 106.26C39.2558 105.381 39.2693 104.501 39.2696 103.622L38.6299 104.262C41.3678 104.262 44.1058 104.261 46.8441 104.259L46.2044 103.62C46.2044 104.498 46.2137 105.379 46.214 106.256L46.8537 105.616C44.1082 105.616 41.3623 105.618 38.6162 105.62C37.793 105.62 37.7917 106.9 38.6162 106.9C41.3621 106.9 44.108 106.898 46.8537 106.895C47.0226 106.893 47.1839 106.825 47.3034 106.706C47.4229 106.586 47.491 106.425 47.4933 106.256C47.4933 105.377 47.484 104.497 47.4837 103.62C47.4813 103.451 47.4131 103.289 47.2937 103.17C47.1743 103.051 47.013 102.982 46.8441 102.98C44.106 102.98 41.368 102.981 38.6299 102.983C38.4611 102.985 38.2997 103.053 38.1803 103.173C38.0609 103.292 37.9927 103.453 37.9903 103.622C37.9903 104.502 37.9769 105.381 37.9766 106.26C37.9762 107.083 39.2555 107.084 39.2558 106.26Z" fill="#211715"/>
    <path d="M50.498 106.26C50.498 105.381 50.5114 104.501 50.5121 103.622L49.8725 104.262C52.6105 104.262 55.3485 104.261 58.0866 104.259L57.447 103.62C57.447 104.498 57.4562 105.379 57.4565 106.256L58.0962 105.616C55.3502 105.616 52.6043 105.618 49.8584 105.62C49.0355 105.62 49.0339 106.9 49.8584 106.9C52.6043 106.9 55.3502 106.898 58.0962 106.895C58.2651 106.893 58.4264 106.825 58.5458 106.705C58.6653 106.586 58.7334 106.425 58.7358 106.256C58.7358 105.377 58.7265 104.497 58.7262 103.62C58.7238 103.451 58.6557 103.289 58.5362 103.17C58.4168 103.051 58.2555 102.982 58.0866 102.98C55.3483 102.98 52.6103 102.981 49.8725 102.983C49.7036 102.985 49.5423 103.053 49.4228 103.173C49.3034 103.292 49.2352 103.453 49.2328 103.622C49.2328 104.502 49.2191 105.381 49.2188 106.26C49.2188 107.083 50.498 107.084 50.498 106.26Z" fill="#211715"/>
    <path d="M9.80469 103.383C9.80469 101.071 9.82803 101.457 9.82803 100.078C13.3051 100.078 19.0288 100.074 23.8506 100.074C23.8506 101.862 23.867 102.121 23.867 103.376C21.0024 103.376 14.2747 103.383 9.80469 103.383Z" fill="#AD7B59"/>
    <path d="M15.1523 103.347C15.1523 100.759 15.1581 101.192 15.1581 99.6472C15.9896 99.6472 17.3613 99.6431 18.5162 99.6431C18.5162 101.645 18.52 101.934 18.52 103.341C17.834 103.341 16.2228 103.347 15.1523 103.347Z" fill="white"/>
    <path d="M10.4433 103.383C10.4433 102.281 10.4663 101.179 10.4667 100.078L9.82704 100.717C14.5015 100.717 19.1757 100.716 23.8497 100.713L23.21 100.074C23.21 101.175 23.226 102.276 23.2263 103.376L23.866 102.737C19.1785 102.737 14.4911 102.739 9.80369 102.743C8.98049 102.743 8.97921 104.022 9.80369 104.022C14.4913 104.022 19.1788 104.02 23.866 104.016C24.0349 104.014 24.1962 103.946 24.3157 103.826C24.4351 103.707 24.5033 103.545 24.5056 103.376C24.5056 102.276 24.4896 101.175 24.4893 100.074C24.4869 99.9048 24.4187 99.7435 24.2993 99.6241C24.1798 99.5046 24.0185 99.4365 23.8497 99.4341C19.1757 99.4341 14.5015 99.4354 9.82704 99.4379C9.65817 99.4404 9.49691 99.5086 9.37749 99.628C9.25807 99.7474 9.18989 99.9087 9.18741 100.078C9.18741 101.179 9.16438 102.281 9.16406 103.383C9.16374 104.206 10.443 104.207 10.4433 103.383Z" fill="#211715"/>
    <path d="M15.791 103.347C15.791 102.114 15.7967 100.881 15.7967 99.6472L15.1571 100.287C16.2765 100.287 17.3958 100.283 18.5152 100.283L17.8755 99.643C17.8755 100.876 17.8794 102.108 17.8794 103.341L18.519 102.701C17.3965 102.701 16.2739 102.708 15.1513 102.708C14.9817 102.708 14.819 102.775 14.6991 102.895C14.5791 103.015 14.5117 103.178 14.5117 103.347C14.5117 103.517 14.5791 103.68 14.6991 103.8C14.819 103.92 14.9817 103.987 15.1513 103.987C16.2739 103.987 17.3965 103.98 18.519 103.98C18.6879 103.978 18.8491 103.91 18.9685 103.79C19.088 103.671 19.1562 103.51 19.1586 103.341C19.1586 102.108 19.1548 100.876 19.1548 99.643C19.1523 99.4742 19.0841 99.3129 18.9647 99.1935C18.8453 99.0741 18.684 99.0059 18.5152 99.0034C17.3958 99.0034 16.2765 99.0076 15.1571 99.0076C14.9882 99.0101 14.827 99.0782 14.7076 99.1977C14.5881 99.3171 14.52 99.4783 14.5175 99.6472C14.5175 100.881 14.5117 102.114 14.5117 103.347C14.5117 103.517 14.5791 103.68 14.6991 103.8C14.819 103.92 14.9817 103.987 15.1513 103.987C15.321 103.987 15.4837 103.92 15.6036 103.8C15.7236 103.68 15.791 103.517 15.791 103.347Z" fill="#211715"/>
    <path d="M97.2625 54.7126C99.074 54.0849 100.643 52.9039 101.746 51.3363C99.6693 50.3287 97.8433 48.8704 96.4014 47.0676C94.7851 45.0845 93.6062 42.7823 92.9417 40.3118L92.2595 40.2065C91.4925 40.0784 90.7719 39.7535 90.168 39.2637C90.0622 39.178 89.9604 39.0888 89.8626 38.9961C89.3282 39.9897 88.9863 41.0753 88.8547 42.1958C88.7746 42.8677 88.7413 43.5443 88.7551 44.2209C88.78 45.827 89.1847 47.4707 89.2653 49.0768C89.34 50.683 88.6741 52.5195 87.1486 53.0364C86.4541 54.1555 92.2612 56.4894 97.2625 54.7126Z" fill="#957F6E"/>
    <path d="M89.1727 38.5948C88.4589 39.9645 88.0522 41.4733 87.9809 43.0162C87.8763 44.7239 88.186 46.3732 88.3793 48.0624C88.517 49.2651 88.5708 50.6044 87.7877 51.6216C87.6561 51.7935 87.4987 51.9439 87.3209 52.0674C87.0251 52.2696 86.65 52.3171 86.4528 52.6447C86.3741 52.7823 86.3235 52.9341 86.304 53.0913C86.2845 53.2486 86.2965 53.4081 86.3392 53.5607C86.479 54.1048 86.9906 54.5022 87.4437 54.7811C88.0593 55.1405 88.7194 55.4178 89.4071 55.6057C91.2744 56.1472 93.2346 56.2902 95.1607 56.0253C97.7306 55.7215 100.098 54.4812 101.811 52.5415C101.956 52.3895 102.036 52.1878 102.036 51.9781C102.036 51.7684 101.956 51.5668 101.811 51.4147C101.661 51.2664 101.458 51.1833 101.247 51.1833C101.036 51.1833 100.833 51.2664 100.683 51.4147C99.8558 52.3508 98.8483 53.11 97.7205 53.6467C96.5928 54.1834 95.3682 54.4865 94.1203 54.5377C93.043 54.6069 91.9613 54.5377 90.9017 54.3319C90.4247 54.2386 89.9541 54.1156 89.4924 53.9637C89.3042 53.9013 89.1193 53.8309 88.935 53.7592C88.7454 53.6842 89.0409 53.8073 88.927 53.7556C88.8819 53.7353 88.8364 53.7154 88.7916 53.6945C88.7066 53.655 88.6219 53.6138 88.5386 53.5703C88.3759 53.4853 88.2249 53.3857 88.0689 53.2895C87.8922 53.1802 88.1754 53.4037 88.0134 53.247C87.9666 53.2018 87.9171 53.1474 87.867 53.1062C87.7309 52.996 87.956 53.2589 87.8736 53.1168C87.7638 52.9266 87.9145 53.2898 87.8736 53.1371C87.8328 52.9844 87.8793 53.3655 87.8853 53.2098C87.8753 53.4717 87.8487 53.4143 87.8703 53.3426C87.8902 53.2778 87.7565 53.5683 87.8328 53.4375L87.3564 53.8027C87.9026 53.5957 88.3963 53.2704 88.8019 52.8501C89.2076 52.4297 89.5151 51.9248 89.7026 51.3716C90.1713 50.1462 90.079 48.8634 89.9127 47.5899C89.5508 44.8199 89.1681 41.9698 90.5471 39.3976C91.0315 38.4939 89.6564 37.6882 89.171 38.5935L89.1727 38.5948Z" fill="#211715"/>
    <path d="M141.203 113.979C143.878 113.29 144.232 113.669 147.106 111.562C149.542 109.777 152.86 108.23 154.31 105.449C154.967 104.09 155.238 102.577 155.094 101.074C154.873 97.3835 154.179 93.7364 153.029 90.2226C151.779 86.5194 149.51 82.7025 148.162 79.0348C147.176 76.351 146.197 73.6646 145.286 70.9546C144.294 68.0049 143.195 64.9556 140.971 62.7791C139.744 61.5797 138.244 60.7162 136.716 59.9217C135.516 59.2133 134.409 58.6084 133.511 58.129C134.15 57.2408 134.507 56.1809 134.536 55.087C134.503 52.965 132.713 51.1988 130.714 50.4877C130.062 50.2553 129.38 50.1083 128.755 49.8155C127.427 49.1937 125.889 47.2754 123.842 46.5779L95.9625 46.2695C93.8899 46.973 92.2306 48.9118 90.9024 49.5333C90.2763 49.8261 89.5937 49.9738 88.9437 50.2052C86.9441 50.9167 85.1547 52.6828 85.1215 54.8045C85.1026 56.0139 85.6437 57.157 86.3539 58.1483C85.4635 58.6227 84.3689 59.2212 83.1837 59.9207C81.6566 60.7152 80.1557 61.5787 78.9293 62.7781C76.7051 64.9546 75.6058 68.0039 74.6135 70.9536C73.7022 73.6636 72.7236 76.35 71.7379 79.0338C70.3907 82.7022 68.1193 86.519 66.871 90.2216C65.7196 93.7355 65.0247 97.3828 64.8034 101.074C64.6591 102.576 64.9301 104.09 65.5869 105.448C67.0363 108.229 70.3542 109.777 72.791 111.562C75.6649 113.669 76.0192 113.29 78.6946 113.978L141.203 113.979Z" fill="#7159C1"/>
    <path d="M127.462 29.2898C127.752 29.0381 128.093 28.852 128.461 28.7442C128.83 28.6363 129.217 28.6093 129.597 28.665C129.97 28.7176 130.326 28.8532 130.64 29.0616C130.953 29.27 131.216 29.5461 131.409 29.8695C131.633 30.3158 131.76 30.8042 131.782 31.303C131.945 33.2536 131.568 35.2116 130.694 36.9626C130.281 37.8477 129.683 38.6334 128.939 39.266C128.335 39.7558 127.614 40.0806 126.847 40.2088L126.489 40.2642C126.317 40.907 126.124 41.4481 126.03 41.7356C125.438 43.3404 122.209 48.7783 118.095 51.0056C118.402 52.3578 118.168 53.9735 120.094 54.669C120.218 54.7139 123.73 55.74 125.486 56.3147C124.738 57.7997 121.967 59.4194 119.546 60.1657C119.546 60.1657 116.421 61.1819 109.841 61.1819C103.261 61.1819 99.7633 59.8457 99.7633 59.8457C97.458 59.1329 94.8406 57.721 93.909 56.393C94.2251 56.2934 94.4459 56.2221 94.4459 56.2221C96.2688 55.6368 99.4402 54.7095 99.5584 54.6667C101.38 54.0087 101.269 52.5274 101.512 51.2247C99.5337 50.216 97.792 48.7991 96.4019 47.0676C94.7852 45.0846 93.6059 42.7823 92.9413 40.3117L92.2591 40.2065C91.4921 40.0783 90.7715 39.7535 90.1676 39.2636C89.4237 38.6311 88.8251 37.8454 88.4127 36.9603C87.5379 35.2092 87.1613 33.2513 87.3241 31.3006C87.3466 30.802 87.4736 30.3136 87.6969 29.8671C87.8898 29.5438 88.1527 29.2677 88.4663 29.0593C88.7798 28.8509 89.1361 28.7154 89.5089 28.6627C89.889 28.6074 90.2764 28.6348 90.6449 28.7431C91.0134 28.8513 91.3541 29.0378 91.6439 29.2898C91.6439 29.2898 91.6253 12.2231 109.921 12.2231C128.217 12.2231 127.462 29.2898 127.462 29.2898Z" fill="white"/>
    <path d="M133.058 73.913C133.324 77.5316 132.972 82.0818 129.4 84.0325C128.499 84.5242 129.303 85.9006 130.204 85.4086C134.284 83.1803 134.961 78.1162 134.653 73.913C134.648 73.7032 134.562 73.5034 134.414 73.3551C134.265 73.2067 134.065 73.1212 133.856 73.1162C133.645 73.118 133.443 73.2026 133.294 73.3516C133.145 73.5006 133.061 73.7022 133.059 73.913H133.058Z" fill="#211715"/>
    <path d="M77.8319 96.78C76.9747 97.2418 76.1096 97.6883 75.2497 98.1452C75.0686 98.253 74.9372 98.4277 74.8837 98.6316C74.8302 98.8355 74.859 99.0522 74.9639 99.2351C75.0737 99.4141 75.2484 99.5438 75.4516 99.5971C75.6547 99.6503 75.8706 99.623 76.0541 99.5209C76.914 99.0644 77.7804 98.6176 78.6363 98.1561C78.8173 98.0481 78.9487 97.8734 79.0022 97.6695C79.0557 97.4655 79.0269 97.2488 78.9221 97.0659C78.8123 96.8868 78.6376 96.7571 78.4345 96.7039C78.2313 96.6506 78.0154 96.6779 77.8319 96.78Z" fill="#211715"/>
    <path d="M141.415 114.747C142.931 114.361 144.439 114.175 145.817 113.381C146.745 112.847 147.582 112.175 148.47 111.58C149.336 111.001 150.222 110.452 151.077 109.854C152.841 108.621 154.493 107.173 155.321 105.135C156.298 102.73 155.86 100.004 155.521 97.512C155.18 94.9142 154.587 92.356 153.749 89.8737C152.906 87.421 151.73 85.0971 150.627 82.7556C149.519 80.4051 148.618 77.9963 147.739 75.5535C146.87 73.145 146.11 70.6919 145.19 68.303C144.36 66.1451 143.317 64.0254 141.678 62.3585C139.929 60.5797 137.602 59.4752 135.449 58.2767C134.965 58.0071 134.478 57.7416 133.988 57.48C133.084 56.9963 132.278 58.3717 133.184 58.8557C134.239 59.4201 135.268 60.0283 136.314 60.6076C137.331 61.1325 138.315 61.7201 139.26 62.3671C141.058 63.6761 142.261 65.5246 143.159 67.5301C144.128 69.691 144.786 71.9933 145.574 74.2226C146.436 76.6577 147.27 79.1177 148.304 81.4858C149.302 83.7711 150.464 85.9815 151.437 88.2785C152.371 90.523 153.074 92.8569 153.536 95.2439C153.786 96.5001 153.98 97.7658 154.117 99.0411C154.291 100.243 154.348 101.46 154.286 102.673C154.094 104.824 152.88 106.438 151.248 107.752C150.39 108.414 149.498 109.032 148.577 109.604C147.581 110.251 146.635 110.965 145.643 111.613C145.266 111.865 144.872 112.093 144.465 112.294C144.169 112.433 143.861 112.544 143.544 112.626C142.703 112.856 141.837 112.991 140.992 113.206C139.998 113.459 140.419 114.996 141.415 114.742L141.415 114.747Z" fill="#211715"/>
    <path d="M85.243 73.913C84.9342 78.1166 85.6105 83.1803 89.6916 85.4086C90.5919 85.9003 91.397 84.5249 90.4956 84.0325C86.9231 82.0818 86.5709 77.5313 86.8365 73.913C86.8347 73.7022 86.7501 73.5006 86.6011 73.3516C86.4521 73.2026 86.2505 73.118 86.0397 73.1162C85.8296 73.1201 85.6293 73.2053 85.4807 73.3539C85.3321 73.5025 85.2469 73.7029 85.243 73.913Z" fill="#211715"/>
    <path d="M78.9051 113.21C77.4647 112.844 76.0471 112.684 74.8383 111.979C73.9287 111.448 73.1044 110.79 72.2303 110.205C71.4156 109.659 70.5833 109.142 69.7762 108.584C68.2043 107.499 66.5928 106.177 65.9584 104.305C65.6169 103.211 65.4983 102.06 65.6098 100.919C65.7008 99.6372 65.8379 98.3577 66.0348 97.0879C66.4055 94.5859 67.0239 92.127 67.8809 89.7473C68.7145 87.4815 69.8217 85.3283 70.8422 83.1442C71.9232 80.8306 72.8036 78.4529 73.6697 76.053C74.5176 73.7042 75.2689 71.3182 76.1487 68.9817C77.0078 66.6996 78.1376 64.4717 80.0173 62.8606C81.0012 62.062 82.07 61.3741 83.2043 60.8092C84.3832 60.1828 85.5282 59.4919 86.7064 58.8621C87.6111 58.3781 86.806 57.003 85.902 57.4861C84.8294 58.0597 83.7856 58.6845 82.7177 59.2662C81.6555 59.8085 80.6347 60.4281 79.6634 61.12C77.7904 62.574 76.3198 64.4824 75.3911 66.6641C74.3712 68.9233 73.6648 71.3119 72.8418 73.6467C71.9687 76.1197 71.1337 78.6265 70.0667 81.0258C69.015 83.3898 67.8205 85.6878 66.8319 88.0798C65.8489 90.4983 65.1274 93.015 64.6796 95.5869C64.4452 96.8863 64.2679 98.1967 64.1378 99.5103C63.9659 100.798 63.9548 102.102 64.1046 103.392C64.4402 105.656 65.7728 107.476 67.5204 108.882C69.1597 110.203 70.9956 111.26 72.7067 112.482C73.4774 113.061 74.3146 113.545 75.2005 113.924C75.8368 114.155 76.4923 114.328 77.1592 114.443C77.6014 114.536 78.0416 114.636 78.4795 114.747C79.4738 115 79.8981 113.464 78.9031 113.211L78.9051 113.21Z" fill="#211715"/>
    <path d="M140.99 97.8882C141.534 98.0302 142.069 98.2036 142.592 98.4077C142.657 98.4333 142.721 98.4599 142.786 98.4861C142.886 98.5263 142.642 98.4227 142.739 98.4665L142.833 98.5077C142.955 98.5626 143.077 98.6199 143.198 98.6796C143.428 98.7939 143.649 98.923 143.862 99.0661C144.045 99.1713 144.262 99.2003 144.466 99.1468C144.67 99.0933 144.845 98.9616 144.952 98.7802C145.054 98.5966 145.081 98.3809 145.028 98.1779C144.975 97.9748 144.845 97.8001 144.667 97.69C144.164 97.3664 143.627 97.0982 143.067 96.8902C142.527 96.6774 141.976 96.4971 141.415 96.3504C141.211 96.2943 140.994 96.3213 140.81 96.4257C140.626 96.5301 140.491 96.7032 140.435 96.907C140.379 97.1108 140.406 97.3285 140.51 97.5124C140.615 97.6962 140.788 97.831 140.991 97.8872L140.99 97.8882Z" fill="#211715"/>
    <path d="M93.0659 56.5456C93.7687 57.7883 95.1438 58.6348 96.3688 59.2855C97.4248 59.8292 98.5235 60.2857 99.6538 60.6503C101.229 61.1446 102.849 61.4817 104.491 61.6565C107.839 62.0584 111.221 62.1009 114.578 61.7834C116.271 61.6731 117.951 61.4051 119.594 60.9829C120.755 60.643 121.872 60.1697 122.924 59.5723C124.279 58.8154 125.781 57.7966 126.357 56.2877C126.411 56.084 126.384 55.8671 126.28 55.6837C126.175 55.5003 126.003 55.3653 125.801 55.3077C125.597 55.2561 125.381 55.2851 125.199 55.3888C125.016 55.4925 124.88 55.6628 124.82 55.8641C124.853 55.7781 124.751 56.0012 124.721 56.0513C124.66 56.1562 124.592 56.257 124.518 56.3531C124.324 56.5858 124.111 56.8014 123.88 56.9975C123.337 57.4578 122.746 57.8596 122.119 58.1963C121.213 58.7098 120.253 59.1207 119.257 59.4213C117.944 59.7782 116.602 60.014 115.246 60.1258C112.066 60.4643 108.861 60.4874 105.677 60.1948C103.87 60.0502 102.083 59.7175 100.345 59.2022C99.5382 58.957 98.748 58.6594 97.9796 58.3111C96.7413 57.7355 95.1129 56.9297 94.441 55.7412C93.9364 54.8485 92.559 55.6509 93.0649 56.5456H93.0659Z" fill="#211715"/>
    <path d="M109.829 81.2349C96.7203 81.3298 83.6746 81.4058 79.0428 81.4218C78.8677 81.4222 78.6944 81.4571 78.5329 81.5246C78.3713 81.592 78.2246 81.6907 78.1013 81.815C77.9779 81.9392 77.8803 82.0866 77.814 82.2487C77.7477 82.4107 77.714 82.5842 77.7149 82.7593C77.7414 90.2851 78.1046 116.33 78.3812 125.903C78.3912 126.254 78.5393 126.587 78.7932 126.829C79.0471 127.072 79.3863 127.204 79.7373 127.198C83.9236 127.134 96.889 127.174 109.829 127.218C122.769 127.174 135.734 127.134 139.92 127.198C140.271 127.204 140.61 127.072 140.864 126.829C141.118 126.587 141.266 126.254 141.277 125.903C141.553 116.33 141.916 90.2851 141.943 82.7593C141.944 82.5842 141.91 82.4107 141.844 82.2487C141.778 82.0866 141.68 81.9392 141.557 81.815C141.433 81.6907 141.287 81.592 141.125 81.5246C140.963 81.4571 140.79 81.4222 140.615 81.4218C135.983 81.4058 122.938 81.3298 109.829 81.2349Z" fill="white"/>
    <path d="M109.828 80.438C100.667 80.5044 91.5056 80.562 82.344 80.6106L80.2388 80.6203C79.6057 80.6229 78.8837 80.5379 78.2861 80.7707C77.3277 81.1441 76.914 82.0236 76.918 83.0053C76.92 83.4541 76.9226 83.9029 76.926 84.3518C76.9434 86.9364 76.969 89.5209 77.0027 92.1053C77.0843 98.9935 77.185 105.882 77.3048 112.77C77.3585 115.851 77.4189 118.933 77.4857 122.014C77.5122 123.187 77.5414 124.359 77.573 125.529C77.6016 126.555 77.9481 127.472 78.9823 127.861C79.5593 128.078 80.2438 127.987 80.849 127.982C89.2439 127.906 97.6411 127.974 106.036 128.001C115.598 128.035 125.161 127.946 134.724 127.963C136.131 127.966 137.538 127.969 138.945 127.983C139.625 127.989 140.339 128.074 140.962 127.735C141.858 127.246 142.06 126.373 142.086 125.434C142.159 122.799 142.213 120.164 142.264 117.529C142.398 110.624 142.509 103.719 142.596 96.8135C142.636 93.7761 142.672 90.7388 142.703 87.7018C142.715 86.5445 142.725 85.3871 142.733 84.2296C142.736 83.7881 142.742 83.3469 142.74 82.9053C142.764 82.4138 142.621 81.9287 142.335 81.5282C142.049 81.1276 141.637 80.835 141.165 80.6973C140.576 80.536 139.876 80.6223 139.269 80.6196C138.554 80.6165 137.84 80.6132 137.125 80.6096C135.344 80.601 133.562 80.5915 131.78 80.5811C127.038 80.5539 122.296 80.5242 117.555 80.4921C114.979 80.4746 112.404 80.4566 109.828 80.438C108.802 80.4307 108.802 82.0242 109.828 82.0315C118.862 82.0979 127.897 82.1548 136.932 82.2022L138.957 82.2118C139.502 82.2141 140.07 82.1716 140.614 82.2184C141.217 82.2702 141.145 82.8562 141.142 83.3163C141.14 83.7663 141.137 84.216 141.134 84.6655C141.115 87.2408 141.089 89.8161 141.056 92.3915C140.976 99.1141 140.877 105.837 140.761 112.559C140.708 115.586 140.65 118.613 140.585 121.641C140.558 122.829 140.529 124.018 140.498 125.206C140.486 125.627 140.59 126.298 140.033 126.398C139.781 126.419 139.526 126.417 139.274 126.393C138.998 126.39 138.722 126.387 138.446 126.385C130.171 126.321 121.894 126.38 113.619 126.408C104.237 126.439 94.8538 126.356 85.4712 126.369C84.0016 126.371 82.5319 126.374 81.0622 126.386C80.5803 126.435 80.095 126.437 79.6127 126.393C79.0347 126.277 79.1652 125.515 79.1532 125.074C79.0822 122.43 79.0284 119.786 78.9776 117.142C78.8482 110.401 78.741 103.66 78.6563 96.9181C78.6169 93.9537 78.5817 90.9895 78.5507 88.0255C78.539 86.8631 78.5288 85.7012 78.5202 84.5397C78.5168 84.097 78.5141 83.6544 78.5119 83.2117C78.5095 82.6862 78.5138 82.2267 79.1599 82.2191C86.8596 82.1248 94.564 82.1374 102.263 82.0863C104.784 82.0693 107.306 82.0517 109.827 82.0335C110.853 82.0242 110.855 80.4307 109.828 80.438Z" fill="#211715"/>
    <path d="M84.0377 122.343C90.3899 122.303 96.7427 122.337 103.094 122.357C110.848 122.381 118.603 122.344 126.357 122.333C129.445 122.328 132.532 122.324 135.619 122.343C136.645 122.349 136.646 120.756 135.619 120.749C129.267 120.71 122.914 120.744 116.564 120.763C108.809 120.787 101.055 120.751 93.2997 120.739C90.2122 120.735 87.1248 120.73 84.0373 120.749C83.0122 120.756 83.0102 122.349 84.0377 122.343Z" fill="#211715"/>
    <path d="M109.829 98.7842C108.871 98.7931 107.914 98.8058 106.956 98.8068C106.746 98.8098 106.545 98.8947 106.396 99.0436C106.247 99.1925 106.162 99.3936 106.159 99.6042C106.155 100.609 106.153 101.613 106.155 102.617C106.155 103.207 106.156 103.797 106.162 104.387C106.164 104.599 106.162 104.812 106.17 105.024C106.165 105.142 106.185 105.261 106.228 105.371C106.272 105.481 106.338 105.581 106.423 105.664C106.508 105.747 106.61 105.811 106.721 105.852C106.832 105.893 106.951 105.909 107.069 105.901C108.79 105.901 110.511 105.889 112.232 105.897C112.522 105.94 112.817 105.906 113.089 105.798C113.478 105.57 113.485 105.157 113.49 104.762C113.498 104.209 113.499 103.657 113.5 103.105C113.503 101.938 113.502 100.772 113.497 99.6052C113.494 99.3948 113.409 99.194 113.26 99.0453C113.112 98.8965 112.911 98.8116 112.701 98.8084C111.743 98.8084 110.785 98.7948 109.828 98.7858C109.617 98.7858 109.414 98.8698 109.264 99.0192C109.115 99.1686 109.031 99.3713 109.031 99.5826C109.031 99.7939 109.115 99.9966 109.264 100.146C109.414 100.295 109.617 100.379 109.828 100.379C110.785 100.388 111.743 100.401 112.701 100.402L111.904 99.6052C111.911 101.439 111.937 103.276 111.89 105.109L111.999 104.707L112.687 104.312C112.371 104.284 112.045 104.303 111.729 104.303C111.095 104.303 110.462 104.31 109.828 104.31C109.209 104.31 108.591 104.304 107.972 104.304C107.64 104.304 107.3 104.282 106.969 104.312L107.657 104.707L107.766 105.109C107.721 103.276 107.746 101.439 107.753 99.6052L106.956 100.402C107.913 100.402 108.87 100.388 109.828 100.379C110.039 100.379 110.242 100.295 110.392 100.146C110.541 99.9966 110.625 99.7939 110.625 99.5826C110.625 99.3713 110.541 99.1686 110.392 99.0192C110.242 98.8698 110.039 98.7858 109.828 98.7858L109.829 98.7842Z" fill="#211715"/>
    <path d="M97.5806 63.614C95.8048 63.4729 94.0326 62.7841 92.4491 61.976C90.7287 61.1398 89.1609 60.0209 87.8109 58.6658C86.5643 57.3604 85.3904 55.4455 86.1712 53.6117C86.5308 52.8201 87.1054 52.1454 87.8295 51.6642C88.7239 51.0517 89.7032 50.8466 90.7025 50.4731C92.7027 49.7255 94.0247 47.8534 96.0262 47.0895C96.2267 47.0282 96.3961 46.8924 96.4996 46.7101C96.6031 46.5277 96.6328 46.3127 96.5826 46.1091C96.5251 45.9063 96.39 45.7342 96.2066 45.6301C96.0233 45.5259 95.8063 45.4982 95.6026 45.5527C94.5276 45.9961 93.5248 46.5974 92.6273 47.3368C91.9401 47.868 91.2612 48.5091 90.4578 48.864C89.8848 49.1179 89.2584 49.2408 88.6707 49.4565C88.1672 49.6377 87.6842 49.8714 87.2296 50.1537C86.2864 50.7297 85.5034 51.5339 84.9529 52.4922C82.5241 56.9152 87.4796 61.0401 90.9097 62.9587C92.952 64.1014 95.2288 65.0203 97.5806 65.2072C97.7914 65.2056 97.9931 65.1211 98.1421 64.972C98.2912 64.823 98.3757 64.6213 98.3773 64.4105C98.3732 64.2004 98.288 64.0001 98.1394 63.8516C97.9909 63.703 97.7906 63.6181 97.5806 63.614Z" fill="#211715"/>
    <path d="M94.658 56.9913C96.2937 56.4674 97.9446 55.989 99.5873 55.4924C100.423 55.2715 101.145 54.7456 101.612 54.0184C102.071 53.2548 102.122 52.3704 102.267 51.5159C102.317 51.3123 102.287 51.0975 102.183 50.9154C102.08 50.7332 101.91 50.5977 101.71 50.5365C101.506 50.4821 101.289 50.5099 101.106 50.6141C100.923 50.7183 100.787 50.8904 100.73 51.0933C100.664 51.4916 100.62 51.892 100.545 52.2884C100.511 52.4713 100.467 52.652 100.412 52.8295C100.402 52.8584 100.291 53.126 100.349 53.0062C100.315 53.0775 100.277 53.1479 100.237 53.2156C100.05 53.5069 99.7763 53.7324 99.4548 53.8607C99.307 53.9177 99.156 53.9662 99.0026 54.0061C97.4114 54.4822 95.8173 54.9496 94.2353 55.4565C93.2623 55.7683 93.6783 57.3074 94.659 56.993L94.658 56.9913Z" fill="#211715"/>
    <path d="M125.419 55.455C123.878 54.961 122.325 54.5042 120.774 54.0414C120.302 53.9465 119.868 53.7147 119.527 53.3748C119.418 53.2496 119.534 53.4007 119.455 53.2752C119.398 53.1854 119.346 53.092 119.301 52.9956C119.359 53.1198 119.272 52.9179 119.263 52.8914C119.23 52.7918 119.199 52.6885 119.173 52.5856C119.09 52.2166 119.026 51.8435 118.982 51.4678C118.924 51.2648 118.789 51.0924 118.606 50.9883C118.423 50.8841 118.205 50.8565 118.002 50.9114C117.801 50.9723 117.632 51.1078 117.528 51.29C117.425 51.4722 117.395 51.6871 117.446 51.8905C117.573 52.7818 117.72 53.648 118.297 54.373C118.786 54.9386 119.437 55.3396 120.163 55.5214C121.775 56.0051 123.392 56.4775 124.996 56.9914C125.975 57.3051 126.394 55.767 125.419 55.455H125.419Z" fill="#211715"/>
    <path d="M123.628 47.3465C125.279 47.9315 126.432 49.3079 127.872 50.2348C128.713 50.7756 129.695 50.9429 130.613 51.2971C131.396 51.6016 132.101 52.0768 132.676 52.6881C133.224 53.2458 133.587 53.9587 133.716 54.7299C133.848 55.7009 133.481 56.6501 132.987 57.4661C131.951 59.1745 130.29 60.3779 128.563 61.3204C127.468 61.918 126.328 62.4687 125.183 62.969C124.203 63.4434 123.152 63.7564 122.072 63.896C121.862 63.9012 121.663 63.9868 121.515 64.1351C121.366 64.2834 121.281 64.483 121.275 64.6927C121.277 64.9035 121.361 65.1053 121.51 65.2544C121.66 65.4035 121.861 65.4879 122.072 65.4895C124.432 65.2903 126.628 64.0862 128.707 63.0408C130.721 62.0285 132.637 60.7089 133.968 58.8631C135.29 57.0312 135.829 54.7133 134.642 52.6732C134.112 51.7966 133.388 51.0538 132.525 50.5027C131.593 49.8892 130.55 49.6349 129.513 49.2677C128.613 48.9493 127.908 48.2864 127.176 47.6994C126.249 46.8969 125.192 46.2578 124.051 45.8094C123.848 45.7533 123.63 45.7803 123.446 45.8847C123.262 45.989 123.128 46.1621 123.071 46.3658C123.015 46.5696 123.042 46.7873 123.147 46.9711C123.251 47.1549 123.424 47.2897 123.628 47.3459V47.3465Z" fill="#211715"/>
    <path d="M118.297 17.8512C118.93 19.954 119.913 22.658 120.643 23.8668C121.639 25.5141 124.342 29.1121 126.923 30.0895C127.283 29.0709 128.495 28.4993 129.597 28.6639C129.709 28.6804 129.82 28.7055 129.929 28.739C131.432 25.2803 130.673 19.4338 130.073 16.5179C128.218 7.48431 119.051 0.313441 109.438 0.838641C99.8249 0.313441 90.6585 7.48431 88.8024 16.5179C88.2997 18.9544 88.3598 23.1228 88.817 25.0679L89.5364 28.6619C90.0291 28.586 90.5332 28.6572 90.9856 28.8667C91.4379 29.0762 91.8183 29.4146 92.0791 29.8395C95.708 27.0933 102.072 23.1288 105.224 20.5107C104.949 22.1574 103.974 24.9593 105.202 24.6705C110.362 23.5155 115.305 21.1793 118.272 17.5305" fill="#957F6E"/>
    <path d="M89.5858 24.856C89.3684 23.7844 89.2582 22.6937 89.2568 21.6003C89.2158 20.3079 89.2669 19.0144 89.4098 17.7293C89.7243 15.3913 90.5357 13.1477 91.7895 11.1494C94.3781 6.95937 98.4024 3.85402 103.112 2.41254C104.275 2.05449 105.471 1.81295 106.682 1.69147C107.955 1.5703 109.245 1.60117 110.522 1.60748C112.996 1.62933 115.44 2.14103 117.715 3.11303C122.238 5.02195 125.911 8.51252 128.049 12.9325C128.949 14.9714 129.52 17.1402 129.742 19.358C130.049 21.8074 130.219 24.4042 129.69 26.8366C129.569 27.4046 129.396 27.9603 129.173 28.4966C129.118 28.7005 129.146 28.9178 129.25 29.1014C129.354 29.285 129.527 29.4201 129.73 29.4773C129.934 29.5279 130.149 29.4984 130.331 29.3948C130.514 29.2913 130.649 29.1216 130.71 28.9208C131.724 26.5103 131.709 23.6801 131.513 21.1162C131.331 18.7196 130.998 16.2447 130.186 13.9719C128.416 9.01206 124.63 4.87321 119.984 2.43644C117.617 1.1882 115.034 0.400738 112.373 0.115871C111.057 0.0118549 109.735 -0.0221661 108.415 0.0139513C107.07 0.0197658 105.728 0.16158 104.412 0.437232C99.2019 1.56927 94.5831 4.56036 91.419 8.85105C89.8722 10.9229 88.7594 13.2857 88.1473 15.7978C87.592 18.3713 87.4719 21.0196 87.7921 23.6327C87.8454 24.1859 87.9313 24.7355 88.0494 25.2786C88.2781 26.2779 89.8149 25.855 89.5858 24.855V24.856Z" fill="#211715"/>
    <path d="M117.528 18.063C117.908 19.3169 118.329 20.5595 118.81 21.7785C119.164 22.7517 119.612 23.6884 120.146 24.5755C121.252 26.3558 122.623 27.9567 124.212 29.3229C125.126 30.0825 126.161 30.7866 127.341 31.0422C128.34 31.259 128.768 29.7229 127.764 29.5055C125.929 29.1071 124.407 27.4591 123.221 26.0628C122.059 24.7342 121.121 23.2257 120.443 21.5963C119.921 20.3015 119.469 18.9736 119.065 17.6387C118.769 16.6597 117.23 17.077 117.528 18.0623V18.063Z" fill="#211715"/>
    <path d="M117.709 16.9656C115.973 18.9973 113.814 20.6254 111.384 21.7363C110.136 22.331 108.845 22.8304 107.522 23.2302C106.82 23.446 106.11 23.6383 105.394 23.8072L105.192 23.8543L105.126 23.8696C104.976 23.8979 104.946 23.9065 105.036 23.8955C105.054 23.8623 105.015 23.8835 105.081 23.8991C105.137 23.908 105.192 23.9258 105.242 23.9519C105.305 23.9939 105.359 24.0478 105.4 24.1106C105.324 24.0233 105.403 24.1329 105.418 24.1597C105.404 24.1233 105.394 24.085 105.391 24.0459C105.391 24.1651 105.394 24.1123 105.396 24.0243C105.426 22.9689 105.801 21.8382 105.994 20.7204C106.034 20.5521 106.019 20.3753 105.951 20.2161C105.883 20.057 105.766 19.9239 105.616 19.8369C105.467 19.7498 105.293 19.7133 105.121 19.7328C104.949 19.7523 104.788 19.8268 104.662 19.9452C103.068 21.2665 101.329 22.4504 99.6115 23.6302C97.6528 24.9758 95.6738 26.2941 93.7297 27.6615C92.7686 28.3374 91.8175 29.028 90.8936 29.753C90.7453 29.903 90.6621 30.1055 90.6621 30.3164C90.6621 30.5273 90.7453 30.7298 90.8936 30.8798C91.0454 31.0245 91.2472 31.1052 91.4569 31.1052C91.6667 31.1052 91.8684 31.0245 92.0203 30.8798C95.4876 28.1519 99.4056 25.7815 103.028 23.1754C103.967 22.4998 104.898 21.8086 105.789 21.0703L104.457 20.2951C104.253 21.48 103.826 22.6622 103.803 23.8722C103.771 24.1415 103.81 24.4143 103.914 24.6643C104.019 24.9144 104.186 25.1332 104.4 25.2998C104.972 25.665 105.692 25.3755 106.287 25.2261C109.4 24.4936 112.363 23.2268 115.043 21.482C116.464 20.5412 117.742 19.3996 118.836 18.0927C118.98 17.9405 119.06 17.7388 119.06 17.5292C119.06 17.3196 118.98 17.1179 118.836 16.9656C118.686 16.8177 118.483 16.7349 118.273 16.7349C118.062 16.7349 117.86 16.8177 117.709 16.9656Z" fill="#211715"/>
    <path d="M126.023 38.2202C125.979 38.9888 125.836 39.7485 125.599 40.4807C125.514 40.7659 125.42 41.0481 125.325 41.3299C125.3 41.406 125.275 41.483 125.247 41.5583C125.225 41.6174 125.126 41.8392 125.229 41.6101C124.883 42.3642 124.485 43.0933 124.038 43.7923C122.78 45.8749 121.174 47.7262 119.291 49.2657C118.263 50.1111 117.061 50.7193 115.771 51.0468C114.773 51.2762 115.196 52.813 116.195 52.5832C118.869 51.9687 121.108 50.0399 122.868 48.0221C124.349 46.3844 125.587 44.5421 126.543 42.552C127.176 41.1906 127.54 39.7201 127.615 38.2209C127.649 37.1954 126.055 37.1964 126.022 38.2209L126.023 38.2202Z" fill="#211715"/>
    <path d="M91.5977 37.9629C92.5691 43.5681 95.6068 49.0531 100.8 51.7581C102.203 52.4891 103.732 52.9467 105.306 53.1063C105.517 53.105 105.719 53.0207 105.868 52.8715C106.017 52.7224 106.101 52.5205 106.102 52.3096C106.098 52.0997 106.012 51.8997 105.864 51.7512C105.716 51.6028 105.516 51.5174 105.306 51.5128C99.9508 50.9577 95.7778 46.1552 94.0963 41.3305C93.6722 40.0952 93.3502 38.8272 93.1335 37.5392C93.0759 37.3364 92.9408 37.1644 92.7575 37.0603C92.5741 36.9562 92.3572 36.9284 92.1535 36.9828C91.9523 37.043 91.7822 37.1785 91.6785 37.3611C91.5748 37.5437 91.5457 37.7593 91.5971 37.9629H91.5977Z" fill="#211715"/>
    <path d="M128.024 29.8523C128.216 29.6945 128.437 29.5773 128.675 29.5075C128.913 29.4378 129.163 29.417 129.409 29.4465C129.655 29.476 129.893 29.5551 130.108 29.679C130.323 29.803 130.51 29.9692 130.659 30.1677C130.917 30.6533 131.039 31.1991 131.014 31.7482C131.047 32.4223 131.009 33.098 130.9 33.7641C130.497 36.1185 129.257 38.9892 126.634 39.441C126.431 39.4988 126.26 39.6337 126.156 39.8167C126.052 39.9997 126.024 40.2162 126.078 40.4197C126.138 40.6208 126.274 40.791 126.456 40.8947C126.639 40.9984 126.854 41.0277 127.058 40.9764C129.773 40.51 131.384 37.9454 132.127 35.4987C132.519 34.2132 132.677 32.8681 132.595 31.5268C132.51 30.2112 132.112 28.9739 130.899 28.289C130.268 27.9412 129.545 27.7965 128.829 27.8747C128.113 27.9528 127.439 28.2499 126.898 28.7255C126.75 28.8758 126.667 29.0782 126.667 29.2889C126.667 29.4997 126.75 29.702 126.898 29.8523C127.049 29.9978 127.251 30.079 127.461 30.079C127.671 30.079 127.873 29.9978 128.024 29.8523Z" fill="#211715"/>
    <path d="M92.2063 28.7255C91.7332 28.3066 91.1552 28.0242 90.534 27.9083C89.9129 27.7924 89.2719 27.8474 88.6796 28.0675C87.3736 28.5827 86.7209 29.6816 86.5549 31.0338C86.2417 33.7066 86.9238 36.4012 88.4711 38.603C89.31 39.828 90.592 40.6791 92.0466 40.9767C92.2502 41.0267 92.4652 40.9969 92.6475 40.8933C92.8298 40.7898 92.9656 40.6204 93.027 40.42C93.0813 40.2162 93.0534 39.9993 92.9493 39.8159C92.8451 39.6326 92.6731 39.4976 92.4702 39.44C89.8475 38.9894 88.6066 36.1201 88.2042 33.763C88.0992 33.1215 88.0602 32.471 88.0877 31.8216C88.1076 31.2725 88.1322 30.6404 88.4452 30.1666C88.5939 29.968 88.7813 29.8016 88.9961 29.6776C89.2109 29.5535 89.4487 29.4743 89.695 29.4448C89.9413 29.4154 90.1911 29.4362 90.4291 29.506C90.6672 29.5759 90.8885 29.6933 91.0799 29.8512C91.2319 29.9957 91.4335 30.0763 91.6432 30.0763C91.853 30.0763 92.0546 29.9957 92.2066 29.8512C92.3544 29.7009 92.4371 29.4986 92.4371 29.2879C92.4371 29.0771 92.3544 28.8748 92.2066 28.7245L92.2063 28.7255Z" fill="#211715"/>
    <path d="M106.444 44.8735C107.493 45.4153 108.661 45.685 109.842 45.658C111.05 45.6503 112.281 45.4163 113.25 44.662C113.399 44.512 113.482 44.3096 113.482 44.0986C113.482 43.8877 113.399 43.6852 113.25 43.5352C113.098 43.3907 112.897 43.3101 112.687 43.3101C112.477 43.3101 112.276 43.3907 112.124 43.5352C112.359 43.3517 112.155 43.507 112.094 43.5455C112.025 43.59 111.954 43.6312 111.881 43.669C111.831 43.6956 111.581 43.7998 111.779 43.7241C111.682 43.7613 111.585 43.7992 111.486 43.831C110.919 44.0116 110.325 44.091 109.731 44.0654C109.164 44.081 108.599 44.0049 108.057 43.84C107.949 43.8068 107.844 43.7693 107.738 43.7328C107.705 43.7212 107.671 43.7032 107.635 43.6929C107.831 43.7504 107.691 43.7182 107.639 43.6929C107.506 43.6309 107.378 43.5661 107.249 43.4981C107.065 43.3959 106.849 43.3686 106.646 43.4219C106.443 43.4752 106.268 43.6049 106.158 43.7839C106.054 43.9669 106.026 44.1834 106.079 44.3872C106.133 44.5909 106.264 44.7656 106.444 44.8738V44.8735Z" fill="#211715"/>
    <path d="M109.482 36.8124C109.64 37.3855 109.768 37.9669 109.862 38.554L109.834 38.3422C109.845 38.4218 109.847 38.5025 109.84 38.5826L109.869 38.3708C109.863 38.4076 109.855 38.4438 109.843 38.479L109.923 38.2884C109.912 38.3127 109.899 38.3361 109.885 38.3582L110.009 38.1968C109.992 38.2176 109.973 38.2364 109.952 38.2529L110.113 38.1284C110.069 38.156 110.023 38.1804 109.976 38.2015L110.166 38.1211C110.091 38.1524 110.013 38.1747 109.933 38.1875L110.145 38.159C110.073 38.1678 109.999 38.1678 109.927 38.159L110.139 38.1875C110.056 38.1759 109.976 38.156 109.893 38.145C109.686 38.0965 109.468 38.1251 109.279 38.2254C109.097 38.332 108.964 38.5067 108.911 38.7111C108.857 38.9155 108.887 39.1328 108.994 39.3153C109.044 39.4051 109.112 39.4838 109.194 39.5466C109.276 39.6093 109.37 39.6549 109.47 39.6804C109.649 39.7047 109.822 39.7505 110.004 39.7585C110.273 39.7603 110.539 39.6974 110.78 39.5752C110.93 39.5081 111.064 39.4078 111.17 39.2819C111.277 39.1561 111.354 39.0078 111.395 38.8482C111.45 38.5861 111.447 38.3153 111.387 38.0544C111.292 37.493 111.162 36.9369 111.018 36.3868C110.962 36.1831 110.827 36.01 110.643 35.9057C110.46 35.8013 110.242 35.7742 110.038 35.8304C109.834 35.8866 109.661 36.0214 109.557 36.2052C109.453 36.389 109.425 36.6067 109.482 36.8104V36.8124Z" fill="#211715"/>
    <path d="M100.179 31.9055C99.8882 32.8507 100.079 35.0262 101.869 35.2101C104.235 35.1958 104.361 32.5672 103.564 31.3312C102.912 30.319 100.994 29.8984 100.179 31.9055Z" fill="#211715"/>
    <path d="M119.133 31.9055C119.424 32.8507 119.234 35.0262 117.444 35.2101C115.077 35.1958 114.951 32.5672 115.748 31.3312C116.4 30.319 118.318 29.8984 119.133 31.9055Z" fill="#211715"/>
</svg>