<svg width="36" height="36" viewBox="0 0 36 36" fill="none"
    xmlns="http://www.w3.org/2000/svg">
    <path d="M17.9994 0C8.05994 0 0 8.09013 0 18.0726C0 26.0559 5.15671 32.8297 12.312 35.219C13.2114 35.3857 13.5395 34.8277 13.5395 34.3481C13.5395 33.9195 13.5238 32.7832 13.5151 31.2747C8.50703 32.3681 7.45084 28.8523 7.45084 28.8523C6.63329 26.7643 5.45342 26.2097 5.45342 26.2097C3.81832 25.0879 5.57652 25.1094 5.57652 25.1094C7.38232 25.2366 8.33284 26.9727 8.33284 26.9727C9.94006 29.7343 12.5472 28.9359 13.5726 28.4731C13.7346 27.306 14.2008 26.5088 14.7147 26.0576C10.7187 25.6006 6.51716 24.0515 6.51716 17.1273C6.51716 15.1548 7.218 13.5412 8.36942 12.2766C8.18303 11.8196 7.56581 9.98303 8.54477 7.49555C8.54477 7.49555 10.0568 7.01013 13.4948 9.34781C14.9307 8.94716 16.4706 8.74684 18.0017 8.73871C19.5294 8.74684 21.0704 8.94658 22.5087 9.34781C25.9438 7.01013 27.4535 7.49555 27.4535 7.49555C28.4348 9.98303 27.8175 11.8196 27.6317 12.2766C28.7861 13.5412 29.4828 15.1543 29.4828 17.1273C29.4828 24.0689 25.2743 25.596 21.2644 26.0443C21.9106 26.6023 22.4861 27.7043 22.4861 29.3911C22.4861 31.8077 22.4646 33.7552 22.4646 34.3481C22.4646 34.8323 22.7892 35.395 23.7019 35.2167C30.8479 32.8227 36 26.0535 36 18.0726C36 8.09013 27.9401 0 17.9994 0Z" fill="white"/>
    <path d="M17.9994 0C8.05994 0 0 8.09013 0 18.0726C0 26.0559 5.15671 32.8297 12.312 35.219C13.2114 35.3857 13.5395 34.8277 13.5395 34.3481C13.5395 33.9195 13.5238 32.7832 13.5151 31.2747C8.50703 32.3681 7.45084 28.8523 7.45084 28.8523C6.63329 26.7643 5.45342 26.2097 5.45342 26.2097C3.81832 25.0879 5.57652 25.1094 5.57652 25.1094C7.38232 25.2366 8.33284 26.9727 8.33284 26.9727C9.94006 29.7343 12.5472 28.9359 13.5726 28.4731C13.7346 27.306 14.2008 26.5088 14.7147 26.0576C10.7187 25.6006 6.51716 24.0515 6.51716 17.1273C6.51716 15.1548 7.218 13.5412 8.36942 12.2766C8.18303 11.8196 7.56581 9.98303 8.54477 7.49555C8.54477 7.49555 10.0568 7.01013 13.4948 9.34781C14.9307 8.94716 16.4706 8.74684 18.0017 8.73871C19.5294 8.74684 21.0704 8.94658 22.5087 9.34781C25.9438 7.01013 27.4535 7.49555 27.4535 7.49555C28.4348 9.98303 27.8175 11.8196 27.6317 12.2766C28.7861 13.5412 29.4828 15.1543 29.4828 17.1273C29.4828 24.0689 25.2743 25.596 21.2644 26.0443C21.9106 26.6023 22.4861 27.7043 22.4861 29.3911C22.4861 31.8077 22.4646 33.7552 22.4646 34.3481C22.4646 34.8323 22.7892 35.395 23.7019 35.2167C30.8479 32.8227 36 26.0535 36 18.0726C36 8.09013 27.9401 0 17.9994 0Z" fill="white"/>
    <path d="M27.4714 7.54614C28.4242 10.0069 27.8163 11.8232 27.631 12.2767C28.7854 13.5413 29.4821 15.1543 29.4821 17.1274C29.4821 24.069 25.2736 25.5961 21.2637 26.0443C21.9099 26.6023 22.4853 27.7044 22.4853 29.3912C22.4853 31.8078 22.4639 33.7553 22.4639 34.3481C22.4639 34.8324 22.7884 35.395 23.7012 35.2168C30.8478 32.8228 35.9999 26.0536 35.9999 18.0727C35.9999 15.9272 35.6259 13.8705 34.9425 11.9614C32.4608 9.34847 29.6987 7.60827 27.4714 7.54614Z" fill="white"/>
    <path d="M14.0068 27.0118C14.2089 26.6042 14.4556 26.2872 14.7152 26.0578C12.525 25.807 10.2756 25.2223 8.6875 23.6086C9.90918 25.6421 11.8985 26.567 14.0068 27.0118Z" fill="white"/>
    <path d="M0.937161 19.2908C0.937161 9.30832 8.9971 1.21819 18.9366 1.21819C24.4556 1.21819 29.3923 3.71439 32.6932 7.64071C29.4329 3.01877 24.0689 0 17.9994 0C8.05994 0 0 8.09013 0 18.0726C0 22.5232 1.60548 26.5953 4.26426 29.743C2.17335 26.7915 0.937161 23.1881 0.937161 19.2908Z" fill="white"/>
    <path d="M23.4225 30.6098C23.4225 28.9236 22.8471 27.8198 22.2008 27.2618C26.2108 26.8147 30.4199 25.2865 30.4199 18.3455C30.4199 16.3724 29.7231 14.76 28.5676 13.4953C28.7546 13.0384 29.373 11.2012 28.3894 8.71429C28.3894 8.71429 28.2024 8.65681 27.8163 8.67887C28.2378 10.5544 27.7861 11.8956 27.631 12.2765C28.7854 13.5412 29.4821 15.1542 29.4821 17.1273C29.4821 24.0689 25.2736 25.596 21.2637 26.0442C21.9099 26.6022 22.4853 27.7043 22.4853 29.3911C22.4853 31.8077 22.4639 33.7552 22.4639 34.348C22.4639 34.7742 22.7176 35.2602 23.4016 35.2486C23.4063 34.4316 23.4225 32.6973 23.4225 30.6098Z" fill="white"/>
    <path d="M8.52539 30.3992C8.90339 31.1772 10.1738 33.0411 13.5253 32.6486C13.5207 32.2387 13.5172 31.7794 13.5149 31.2748C10.9293 31.8392 9.40275 31.1738 8.52539 30.3992Z" fill="white"/>
    <path d="M9.17165 28.0324C9.0561 27.8582 8.83952 27.5626 8.52539 27.2671C8.7292 27.5696 8.94578 27.8233 9.17165 28.0324Z" fill="white"/>
</svg>