<svg width="130" height="123" viewBox="0 0 130 123" fill="none"
    xmlns="http://www.w3.org/2000/svg">
    <path d="M129.112 88.1175C129.105 83.0485 129.079 72.6742 129.079 68.9883C129.079 68.9883 129.079 68.937 129.082 68.8373C106.22 55.6844 71.7955 35.788 56.1609 26.7388C42.922 34.3985 16.2777 49.7943 0.863281 58.6492C0.863281 62.9493 0.894668 75.689 0.892123 79.4686C14.9527 87.6123 51.7719 108.893 74.4079 121.908C90.4768 112.671 116.75 97.4878 129.114 90.3315V90.1368C129.114 89.6414 129.113 88.9509 129.112 88.1175Z" fill="white"/>
    <path d="M55.8553 26.9128C42.5642 34.6027 16.3504 49.7495 1.0293 58.5514C12.6391 65.2755 54.6193 89.5445 74.0793 100.706C88.2883 92.5619 119.404 74.5873 129.078 68.9864C129.078 68.9864 129.078 68.935 129.081 68.8354C106.219 55.6825 71.7949 35.7861 56.1603 26.7368L55.8553 26.9128Z" fill="#7159C1"/>
    <path d="M129.961 88.1176C129.956 84.6962 129.949 81.2747 129.941 77.8532C129.935 74.8502 129.865 71.8388 129.93 68.8362C129.931 68.6881 129.892 68.5425 129.818 68.414C129.744 68.2855 129.638 68.1785 129.511 68.1037C119.416 62.296 109.326 56.4797 99.2411 50.655C89.238 44.8812 79.2371 39.1035 69.2384 33.3217C65.0215 30.8837 60.8052 28.4449 56.5895 26.0052C56.4592 25.9301 56.3116 25.8906 56.1613 25.8906C56.011 25.8906 55.8633 25.9301 55.7331 26.0052C49.0143 29.8926 42.2938 33.7774 35.5716 37.6595C27.6985 42.2073 19.8234 46.7515 11.9464 51.2921C8.11098 53.5019 4.27426 55.7098 0.436272 57.9156C0.308732 57.9908 0.202949 58.0979 0.129325 58.2263C0.0557016 58.3547 0.0167717 58.5001 0.0163639 58.6481C0.0163639 63.5471 0.0237158 68.4461 0.0384196 73.3454C0.0406818 74.555 0.0425198 75.7646 0.0439336 76.974C-0.0197269 77.8418 -0.0141955 78.7134 0.0604754 79.5804C0.15803 80.158 0.791285 80.3884 1.24809 80.6539L2.41111 81.3253L4.96958 82.806C9.25859 85.2887 13.5493 87.7703 17.8417 90.2507C23.1187 93.3017 28.3962 96.3512 33.6743 99.3992C39.285 102.64 44.8961 105.879 50.5076 109.116C55.9022 112.228 61.2979 115.339 66.6948 118.447C69.0913 119.827 71.4538 121.335 73.9117 122.601C74.6366 122.974 75.3174 122.363 75.9383 122.007L77.7197 120.983C78.9696 120.264 80.2194 119.544 81.4692 118.825C87.0366 115.619 92.6019 112.41 98.165 109.197C103.751 105.973 109.336 102.747 114.919 99.5196C119.49 96.8775 124.061 94.2336 128.632 91.588C129.116 91.3077 129.847 91.0506 129.947 90.4407C130.013 89.6672 130.018 88.8897 129.96 88.1155C129.96 87.0238 128.263 87.0216 128.263 88.1155C128.263 88.8527 128.263 89.5901 128.263 90.3279L128.683 89.5954C122.222 93.3355 115.758 97.0727 109.293 100.807C101.46 105.331 93.6265 109.852 85.7913 114.37C81.8544 116.64 77.9163 118.907 73.977 121.172H74.8334C64.5285 115.247 54.2298 109.311 43.9371 103.365C33.7693 97.4963 23.6033 91.622 13.439 85.7424C9.39856 83.4079 5.35924 81.0718 1.32105 78.7342L1.74096 79.4667C1.74435 73.8195 1.72357 68.1724 1.71551 62.5253C1.71353 61.2325 1.7124 59.9398 1.71211 58.6473L1.29178 59.3798C8.53513 55.2189 15.774 51.0496 23.0082 46.872C30.7388 42.4108 38.4686 37.9464 46.1978 33.4787C49.6622 31.4758 53.1261 29.4727 56.5895 27.4693H55.7331C64.1007 32.3123 72.4706 37.1518 80.8428 41.988C91.3258 48.0448 101.811 54.0976 112.299 60.1462C117.749 63.2892 123.201 66.4297 128.655 69.5679L128.234 68.8354C128.169 71.8379 128.239 74.8494 128.245 77.8524C128.252 81.2738 128.258 84.6953 128.264 88.1168C128.266 89.2085 129.962 89.2107 129.961 88.1176Z" fill="#211715"/>
    <path d="M73.4023 100.648C73.4023 106.512 73.4125 112.375 73.4329 118.239C73.4349 119.424 73.4363 120.611 73.4371 121.797C73.4371 122.889 75.1337 122.89 75.1337 121.797C75.1337 116.071 75.1125 110.345 75.1032 104.619C75.1009 103.295 75.0995 101.97 75.0989 100.646C75.0989 99.5544 73.4023 99.5527 73.4023 100.646V100.648Z" fill="#211715"/>
    <path d="M1.44821 59.7699C4.87251 61.754 8.29766 63.7367 11.7237 65.7177C16.5414 68.5044 21.3602 71.2896 26.18 74.0735C31.6509 77.2345 37.1224 80.3943 42.5945 83.5528C47.9781 86.6598 53.3627 89.7646 58.7483 92.8671C63.3034 95.4909 67.8602 98.1116 72.4186 100.729L73.8209 101.535C74.7693 102.079 75.6252 100.614 74.6768 100.07C70.2707 97.5438 65.8672 95.013 61.4662 92.4777C56.142 89.412 50.8194 86.344 45.4983 83.2737C39.9962 80.0988 34.495 76.9226 28.9946 73.7452C24.0558 70.889 19.117 68.033 14.1782 65.1774C10.541 63.0736 6.90447 60.9689 3.26866 58.8635L2.30456 58.3049C1.35786 57.7564 0.502777 59.2223 1.44821 59.7699Z" fill="#211715"/>
    <path d="M74.2589 107.063C70.4582 104.884 66.6599 102.7 62.8641 100.512C58.2332 97.8459 53.6036 95.177 48.9753 92.5057C44.2013 89.7513 39.4284 86.9956 34.6564 84.2386C30.3482 81.7502 26.0405 79.2606 21.7334 76.7697C18.5761 74.9439 15.4188 73.1172 12.2617 71.2897C11.9812 71.1268 11.7006 70.9643 11.4198 70.802C10.4731 70.2535 9.61801 71.719 10.5634 72.267C13.535 73.9882 16.5073 75.7088 19.4803 77.4289C23.6823 79.8607 27.8846 82.2898 32.0873 84.7162C36.835 87.459 41.5832 90.2009 46.332 92.9417C51.0163 95.6447 55.7015 98.3462 60.3875 101.046C64.3179 103.311 68.2515 105.573 72.1882 107.833L73.4025 108.529C74.3513 109.073 75.2068 107.608 74.2589 107.064V107.063Z" fill="#211715"/>
    <path d="M69.6039 111.254C65.9226 109.143 62.2466 107.022 58.5761 104.891C57.6294 104.343 56.7743 105.808 57.7197 106.356C61.392 108.483 65.0679 110.604 68.7476 112.718C69.6964 113.262 70.5519 111.797 69.6039 111.254Z" fill="#211715"/>
    <path d="M105.787 106.197C103.828 107.322 97.4763 110.99 94.587 112.655C91.7991 111.054 86.8543 108.204 83.1621 106.073C86.6512 104.066 90.4889 101.857 94.3707 99.6157C98.16 101.803 103.136 104.675 105.787 106.197Z" fill="#1BCF6C"/>
    <path d="M83.1608 106.922H83.1651L82.7371 106.806C86.2847 108.858 89.8353 110.905 93.3888 112.946C93.7148 113.19 94.082 113.374 94.4729 113.488C94.8971 113.546 95.2907 113.229 95.6419 113.026L97.6481 111.87L102.209 109.24C103.543 108.47 104.878 107.701 106.214 106.932C106.34 106.856 106.444 106.748 106.516 106.62C106.589 106.492 106.627 106.347 106.627 106.199C106.627 106.052 106.589 105.907 106.516 105.779C106.444 105.651 106.34 105.543 106.214 105.467C102.405 103.28 98.5993 101.086 94.7978 98.8854C93.8503 98.3383 92.9952 99.8041 93.9414 100.35C97.7452 102.547 101.551 104.741 105.357 106.932V105.466C101.621 107.612 97.8882 109.764 94.1599 111.923H95.0158C93.1496 110.851 91.2833 109.777 89.417 108.7C88.3708 108.098 87.3246 107.495 86.2783 106.891L84.7209 105.992C84.2853 105.74 83.6762 105.224 83.1613 105.224C82.0695 105.224 82.0678 106.921 83.1613 106.921L83.1608 106.922Z" fill="#211715"/>
    <path d="M121.643 82.8835C116.424 85.906 111.202 88.9243 105.979 91.9383C98.9545 95.994 91.9277 100.046 84.8984 104.094C81.2632 106.186 77.6267 108.277 73.9889 110.365C73.0413 110.908 73.8951 112.374 74.8452 111.83C81.5632 107.984 88.2727 104.123 94.9737 100.246C101.613 96.4179 108.251 92.5864 114.887 88.7512C117.424 87.2845 119.962 85.8168 122.499 84.3481C123.443 83.801 122.59 82.3342 121.643 82.8831L121.643 82.8835Z" fill="#211715"/>
    <path d="M74.6005 101.385C81.9719 97.1599 89.336 92.9222 96.6927 88.6717C104.629 84.0951 112.564 79.5143 120.496 74.9292C123.499 73.1933 126.503 71.4564 129.506 69.7185C130.45 69.1718 129.597 67.7051 128.649 68.2535C122.383 71.8823 116.114 75.5064 109.843 79.1258C101.603 83.8839 93.3602 88.6375 85.1147 93.3865C81.3257 95.5675 77.5356 97.7457 73.7445 99.921C72.7974 100.464 73.6508 101.93 74.6009 101.386L74.6005 101.385Z" fill="#211715"/>
    <path d="M111.227 57.022C111.221 53.2378 111.202 45.4932 111.202 42.7401C111.202 42.7401 111.202 42.7019 111.205 42.6273C94.1376 32.8082 68.4371 17.9545 56.7653 11.1978C46.8826 16.9161 26.99 28.4097 15.4824 35.0205C15.4824 38.2305 15.5062 47.7416 15.5041 50.5631C26.0013 56.6412 53.4888 72.5302 70.389 82.2471C82.3857 75.3508 102 64.0154 111.23 58.6733V58.5278C111.228 58.16 111.228 57.6447 111.227 57.022Z" fill="white"/>
    <path d="M56.0248 11.6269C45.9169 17.4743 26.7097 28.5717 15.4824 35.0213C15.4824 38.2313 15.5062 47.7424 15.5041 50.5639C20.0692 53.2076 27.8468 57.7061 36.5716 62.7463C36.5652 58.873 36.5487 50.3157 36.547 47.06C54.2904 36.81 69.2392 28.1662 77.6704 23.2855C69.3176 18.46 61.758 14.0883 56.7653 11.1973L56.0248 11.6269Z" fill="#1BCF6C"/>
    <path d="M112.074 57.022C112.066 52.2292 111.946 47.4206 112.051 42.6273C112.051 42.4791 112.012 42.3335 111.938 42.205C111.865 42.0765 111.759 41.9695 111.631 41.8947C104.097 37.5599 96.5659 33.2195 89.0384 28.8733C81.5716 24.5634 74.1066 20.2512 66.6433 15.9368C63.4932 14.1127 60.3427 12.2891 57.1915 10.4661C57.0613 10.3911 56.9136 10.3516 56.7633 10.3516C56.613 10.3516 56.4654 10.3911 56.3351 10.4661C51.3121 13.3718 46.2877 16.2762 41.2621 19.1794C35.3993 22.5658 29.535 25.9495 23.6693 29.3306C20.7978 30.985 17.9256 32.638 15.0526 34.2893C14.9251 34.3645 14.8192 34.4715 14.7455 34.5999C14.6718 34.7284 14.6328 34.8738 14.6323 35.0218C14.6323 38.7224 14.638 42.4229 14.6493 46.1235C14.651 47.0193 14.6523 47.9151 14.6531 48.8109C14.6531 49.4145 14.5229 50.203 14.6845 50.79C14.8571 51.4169 16.0375 51.8546 16.572 52.1643L18.523 53.2942C25.6722 57.4311 32.8232 61.5647 39.9761 65.6951C48.1803 70.4334 56.3869 75.1672 64.5959 79.8964L67.4046 81.5133L68.6978 82.2572C69.1312 82.5461 69.5857 82.8022 70.0572 83.0233C70.6171 83.24 71.1405 82.7917 71.6075 82.5232L73.0187 81.7118L75.8719 80.0691C80.0142 77.6836 84.1553 75.2958 88.2952 72.9056C95.8773 68.5298 103.457 64.1495 111.035 59.7646C111.498 59.4965 112.03 59.2874 112.073 58.6745C112.112 58.1295 112.073 57.5683 112.073 57.0203C112.073 55.929 110.376 55.9269 110.376 57.0203C110.376 57.5709 110.376 58.1223 110.376 58.6745L110.797 57.942C105.984 60.7278 101.169 63.5115 96.3528 66.2931C90.4942 69.6784 84.6339 73.0607 78.7718 76.44C75.8336 78.1332 72.8949 79.8252 69.9559 81.5158H70.8122C63.1286 77.0976 55.4495 72.6723 47.775 68.24C40.1926 63.8616 32.6116 59.4808 25.032 55.0977C21.9965 53.3431 18.9627 51.5877 15.9306 49.8314L16.3505 50.5639C16.3531 46.3602 16.3378 42.1564 16.3315 37.9523C16.3315 36.9756 16.3306 35.9986 16.3289 35.0214L15.909 35.7539C21.3237 32.6435 26.7349 29.5265 32.1425 26.4031C37.9002 23.0812 43.6563 19.7568 49.4109 16.4301C52.005 14.9314 54.5985 13.4318 57.1915 11.9311H56.3351C62.5803 15.5457 68.8272 19.1578 75.0758 22.7673C82.9002 27.2884 90.7265 31.8062 98.5546 36.3206C102.626 38.6675 106.7 41.0145 110.774 43.3615L110.354 42.6289C110.249 47.4218 110.37 52.2296 110.377 57.0237C110.379 58.1138 112.075 58.1159 112.074 57.022Z" fill="#211715"/>
    <path d="M69.4199 66.3774C69.4199 69.9674 69.4454 73.557 69.4458 77.147C69.4458 78.2383 71.1424 78.2404 71.1424 77.147C71.1424 73.557 71.1169 69.9674 71.1165 66.3774C71.1165 65.2861 69.4199 65.2839 69.4199 66.3774Z" fill="#211715"/>
    <path d="M70.8581 65.8535C64.4204 62.1623 57.9894 58.4596 51.5653 54.7455C44.6344 50.7466 37.7053 46.7442 30.7781 42.7382C28.1543 41.2212 25.5309 39.7031 22.908 38.1841C21.9617 37.6361 21.1062 39.1015 22.0516 39.6491C27.5246 42.8192 32.9994 45.9854 38.476 49.1475C45.6721 53.3042 52.8704 57.4578 60.0707 61.6082C63.3791 63.5143 66.6894 65.4178 70.0018 67.3185C70.9506 67.8627 71.8061 66.3973 70.8581 65.8535Z" fill="#211715"/>
    <path d="M70.6399 67.1123C75.2922 64.4461 79.9402 61.7715 84.5838 59.0886C89.5752 56.2098 94.5653 53.3288 99.5542 50.4457C101.465 49.343 103.374 48.2383 105.284 47.1319C106.229 46.5851 105.376 45.1184 104.428 45.6673C100.472 47.9577 96.5154 50.2447 92.557 52.5283C87.3764 55.5197 82.194 58.5085 77.0098 61.4948C74.6017 62.8804 72.193 64.2645 69.7835 65.6473C68.8364 66.1902 69.6902 67.6569 70.6399 67.1123Z" fill="#211715"/>
    <path d="M37.022 47.7641C43.2304 44.1781 49.4381 40.591 55.6451 37.003C60.686 34.0905 65.7266 31.1759 70.7669 28.2592C72.9227 27.0122 75.0784 25.7647 77.2339 24.5169C78.1785 23.9702 77.3255 22.5034 76.3775 23.0519C72.209 25.4653 68.0396 27.8774 63.8694 30.2883C58.2604 33.5316 52.651 36.7741 47.0412 40.0157C43.4156 42.1105 39.791 44.2049 36.1673 46.2991C35.2219 46.8454 36.0753 48.3117 37.0232 47.7641H37.022Z" fill="#211715"/>
    <path d="M35.6953 47.0522C35.7008 51.8633 35.7212 56.6745 35.7216 61.4856C35.7216 62.5774 37.4182 62.5791 37.4182 61.4856C37.4182 56.6745 37.3974 51.8633 37.3919 47.0522C37.3919 45.9609 35.6953 45.9588 35.6953 47.0522Z" fill="#211715"/>
    <path d="M62.4694 47.3389C62.4231 48.2475 62.1922 49.1373 61.7908 49.9537C60.9484 51.6079 59.3231 52.74 57.6116 53.461C55.9002 54.1821 55.655 53.9946 53.8842 54.5537C52.5036 54.9893 51.0581 55.6166 50.4664 57.0137C50.2184 57.7294 50.0712 58.4762 50.0291 59.2324C49.9018 62.0946 49.9247 65.0717 49.8891 68.017C49.8913 68.2225 49.8279 68.4234 49.7081 68.5904C49.5884 68.7575 49.4185 68.882 49.2232 68.9459C47.2045 69.5342 45.0771 69.6476 43.0073 69.2772C42.7933 69.2061 42.6026 69.0781 42.4559 68.9069C42.2322 68.6956 42.0708 68.427 41.9893 68.1303C41.8298 66.7933 41.7531 65.5056 41.7077 64.2162C40.2261 64.5453 38.5329 65.1137 36.9572 64.729C35.8616 64.4618 34.8365 63.6262 34.6668 62.5111L34.5277 61.5903C34.283 57.0858 34.0386 57.6529 33.7939 53.1497C33.7116 51.6342 33.6455 50.036 34.3377 48.6851C34.9332 47.6747 35.7557 46.8166 36.7401 46.1788C38.6394 44.7903 40.6993 43.6358 42.875 42.7402C42.875 42.7402 59.6357 46.7603 62.4694 47.3389Z" fill="#7159C1"/>
    <path d="M59.0451 48.8487C60.0207 48.3024 61.2774 47.6874 62.4905 46.9604C64.5035 45.7558 66.4173 44.2335 66.813 42.1904C66.9485 41.3062 66.9442 40.4062 66.8003 39.5233C66.413 36.3965 65.6733 32.4053 63.7248 29.8328C62.5371 28.2588 60.6624 26.2275 58.8343 25.291C58.8343 25.291 55.663 23.7556 52.5819 23.5545C47.6355 23.2322 45.1042 25.3406 45.1042 25.3406C42.2378 27.5125 40.2501 30.6446 39.5054 34.1629L38.6418 39.1323L38.3301 40.926L59.0451 48.8487Z" fill="white"/>
    <path d="M39.2151 73.3267C39.1247 72.8826 39.1321 72.4241 39.2367 71.9832C39.3414 71.5422 39.5408 71.1294 39.8212 70.7733C40.4625 70.0115 41.2456 69.3813 42.1269 68.9176C43.0176 69.6149 46.6364 69.7498 49.2263 68.9473C49.3142 68.9203 49.3976 68.8801 49.4736 68.8281C49.5054 69.1301 49.5257 69.3172 49.5257 69.3172C49.7951 71.7772 48.305 72.7664 47.3592 73.3292C46.2328 73.9983 45.0197 74.509 43.7539 74.8468C42.9933 75.0818 42.1929 75.1603 41.4011 75.0776C41.0059 75.0308 40.6255 74.8985 40.2866 74.6897C39.9478 74.4809 39.6585 74.2008 39.439 73.8687C39.3395 73.6993 39.2641 73.5169 39.2151 73.3267Z" fill="white"/>
    <path d="M31.6383 67.9966C31.7532 67.6722 31.9167 67.3672 32.1231 67.0919C32.8204 66.2826 33.6694 65.6177 34.6222 65.1349C35.1077 64.8007 35.658 64.5722 36.2374 64.4643C36.4681 64.5799 36.7111 64.6693 36.9618 64.7306C38.5375 65.1153 40.2303 64.5474 41.7123 64.2183C41.7441 65.1471 41.7933 66.0756 41.8777 67.0219L41.2122 67.1317C41.2619 68.1921 40.3215 69.0196 39.4092 69.5621C38.32 70.2089 37.147 70.7026 35.9231 71.0293C35.1877 71.2566 34.4137 71.3317 33.6484 71.2498C33.2663 71.2057 32.8985 71.0783 32.571 70.8767C32.2435 70.675 31.9642 70.4039 31.7528 70.0826C31.5828 69.7642 31.4844 69.4126 31.4647 69.0523C31.4449 68.6919 31.5042 68.3316 31.6383 67.9966Z" fill="white"/>
    <path d="M48.6772 69.3168C48.763 69.8485 48.7061 70.3935 48.5124 70.8961C48.3186 71.3987 47.9949 71.8408 47.5744 72.1773C46.3546 73.046 44.9805 73.6744 43.5255 74.0287C42.3489 74.34 40.0105 74.5449 39.9876 72.741C39.9673 71.1292 41.6308 70.1961 42.832 69.4848C43.7715 68.93 42.9168 67.4628 41.9756 68.0202C40.556 68.8591 39.1304 69.7991 38.5294 71.4134C38.2266 72.1521 38.2069 72.9766 38.4742 73.7289C38.7415 74.4813 39.2769 75.1086 39.9779 75.4907C41.6079 76.3445 43.5297 75.8869 45.1673 75.2926C46.5058 74.8502 47.757 74.1779 48.8646 73.3059C49.4234 72.8157 49.8532 72.1958 50.1162 71.5006C50.3793 70.8054 50.4676 70.0562 50.3733 69.3189C50.3676 69.0958 50.2763 68.8833 50.1185 68.7255C49.9606 68.5677 49.7482 68.4764 49.525 68.4706C49.3005 68.4722 49.0857 68.5621 48.9269 68.7208C48.7682 68.8796 48.6783 69.0944 48.6767 69.3189L48.6772 69.3168Z" fill="#211715"/>
    <path d="M35.8999 63.662C35.1498 63.8649 34.4401 64.1948 33.8016 64.6375C33.1655 65.0027 32.571 65.436 32.0287 65.9299C30.9844 66.9249 30.2977 68.4786 30.76 69.9169C31.2486 71.4379 32.8443 72.1763 34.3543 72.1369C35.9826 72.0945 37.6516 71.4447 39.0848 70.7113C40.4951 69.9903 42.0746 68.8951 42.0628 67.1315C42.0556 66.0402 40.359 66.038 40.3662 67.1315C40.3746 68.3781 38.5355 69.1293 37.6092 69.5453C36.9387 69.8428 36.2432 70.0804 35.5309 70.2554C34.8136 70.49 34.0423 70.5036 33.3172 70.2944C32.0914 69.8346 32.122 68.5011 32.8201 67.5718C33.2622 67.0424 33.7974 66.5984 34.3992 66.2616C34.9887 65.8277 35.6502 65.5014 36.3533 65.2979C37.4226 65.0803 36.97 63.4444 35.9024 63.662H35.8999Z" fill="#211715"/>
    <path d="M42.6556 41.923C40.2449 42.9033 37.9725 44.1945 35.8964 45.7637C34.857 46.4816 34.0184 47.4534 33.4605 48.5868C33.0025 49.7771 32.8159 51.0545 32.9142 52.3261C32.9757 54.1563 33.1517 55.9738 33.3714 57.79C33.5699 59.4319 33.5602 61.1043 33.8549 62.7313C33.9857 63.311 34.2566 63.8498 34.644 64.3005C35.0313 64.7512 35.5232 65.1001 36.0766 65.3165C37.5018 65.929 39.0716 65.7012 40.537 65.37C41.6016 65.1295 41.1512 63.4931 40.0861 63.734C38.5028 64.092 35.8306 64.3703 35.4786 62.2007C35.2466 60.7688 35.2483 59.2923 35.0735 57.8375C34.8903 56.3106 34.7401 54.79 34.6549 53.2567C34.535 52.1755 34.5718 51.0826 34.7643 50.0119C35.047 48.9825 35.6617 48.0751 36.5131 47.431C38.5033 45.8158 40.7266 44.5112 43.1073 43.5615C43.3206 43.4957 43.5007 43.3511 43.611 43.1572C43.7214 42.9632 43.7536 42.7345 43.7011 42.5176C43.6405 42.3012 43.4969 42.1174 43.3015 42.0062C43.1062 41.8951 42.8748 41.8654 42.6577 41.9238L42.6556 41.923Z" fill="#211715"/>
    <path d="M42.4784 50.1029C41.0248 51.1132 40.6601 52.6974 40.6338 54.3626C40.607 56.0516 40.697 57.7401 40.7496 59.4278C40.8187 61.6419 40.8089 63.8589 40.9574 66.0696C41.0261 67.0939 40.951 68.3456 41.6012 69.1943C42.2252 70.0087 42.9899 70.1796 43.9574 70.2814C44.8861 70.3721 45.8215 70.3688 46.7496 70.2716C47.715 70.2137 48.6682 70.0264 49.5837 69.7147C50.6908 69.2834 50.7391 68.2221 50.7493 67.1957C50.7603 66.0293 50.7646 64.8629 50.776 63.6973C50.7871 62.5441 50.8044 61.3904 50.8426 60.2375C50.8177 59.2935 50.9421 58.3514 51.2112 57.4462C51.7774 55.9125 53.7875 55.4077 55.2025 55.0663C57.0373 54.6235 58.8035 54.0483 60.3313 52.8913C61.2553 52.2008 62.0074 51.3064 62.5289 50.2775C63.0505 49.2487 63.3274 48.1134 63.3381 46.9599C63.3805 45.8678 61.6839 45.8699 61.6415 46.9599C61.6373 47.8277 61.4363 48.6832 61.0536 49.4619C60.6709 50.2407 60.1165 50.9225 59.4321 51.4559C58.2182 52.3633 56.819 52.9916 55.3344 53.2959C53.8223 53.6318 52.2164 54.0594 50.9783 55.0349C49.6037 56.1165 49.2644 57.7694 49.1766 59.4346C49.065 61.5371 49.0782 63.6485 49.0637 65.7544C49.0603 66.2694 49.0562 66.7841 49.0514 67.2988C49.0805 67.5384 49.0778 67.7809 49.0434 68.0198C48.9954 68.156 49.0154 68.1047 48.9259 68.1539C48.5369 68.3076 48.1278 68.4046 47.7111 68.4419C47.2806 68.5195 46.8462 68.5742 46.4098 68.6056C45.5934 68.6731 44.7726 68.6666 43.9574 68.5861C43.6902 68.5835 43.4261 68.5288 43.1799 68.4249C42.785 68.1899 42.7957 67.7348 42.7558 67.3395C42.5615 65.3422 42.5306 63.3355 42.4907 61.3306C42.4525 59.4261 42.3554 57.523 42.3299 55.6181C42.3206 54.9009 42.3087 54.176 42.3639 53.4622C42.3685 53.4028 42.3732 53.3434 42.3791 53.284C42.3965 53.1144 42.3681 53.3358 42.3838 53.256C42.4254 53.0301 42.4869 52.8082 42.5675 52.5931C42.7162 52.1838 42.9825 51.8276 43.333 51.5692C44.2238 50.9499 43.3755 49.4785 42.4767 50.1042L42.4784 50.1029Z" fill="#211715"/>
    <path d="M44.6753 24.6075C41.6278 26.9003 39.5033 30.2096 38.6876 33.935C38.4606 35 40.0957 35.4552 40.3235 34.3859C41.0154 31.0835 42.862 28.1359 45.5316 26.0725C45.7205 25.9541 45.8571 25.7682 45.9136 25.5525C45.9701 25.3369 45.9422 25.1079 45.8358 24.9121C45.7212 24.7189 45.5352 24.5786 45.318 24.5216C45.1008 24.4646 44.8699 24.4955 44.6753 24.6075Z" fill="#211715"/>
    <path d="M39.4694 42.7386C38.5261 42.1503 38.1338 41.1565 37.9798 40.1017C37.8072 38.9191 38.0095 37.4138 39.7303 36.9837C40.3484 36.8606 40.9902 36.9805 41.5223 37.3184C42.0825 37.6443 42.5364 38.1254 42.8292 38.7035C43.1221 39.2817 43.2413 39.9323 43.1727 40.5767C43.0564 41.9789 41.7344 43.2641 40.3423 43.0609C40.032 43.0155 39.7347 42.9057 39.4694 42.7386Z" fill="white"/>
    <path d="M39.8998 42.0061C39.7051 41.8819 39.5329 41.7254 39.3908 41.5433C39.4667 41.6384 39.3569 41.492 39.3408 41.4687C39.3006 41.4076 39.2624 41.3456 39.2263 41.2825C39.1974 41.2316 39.1698 41.1803 39.1435 41.1281C39.1435 41.1281 39.0388 40.8893 39.0863 41.0089C38.9894 40.7579 38.9146 40.4989 38.8628 40.2348C38.8475 40.1606 38.8339 40.0864 38.8203 40.0113C38.8106 39.9536 38.7881 39.7488 38.8127 39.9761C38.8013 39.8688 38.7902 39.764 38.7847 39.6542C38.7766 39.4562 38.781 39.2578 38.7979 39.0604C38.8097 38.9017 38.7979 39.0604 38.7936 39.0888C38.8046 39.0349 38.8131 38.9802 38.8254 38.9263C38.8517 38.8072 38.8899 38.6939 38.9277 38.5781C38.8661 38.769 38.9641 38.5073 38.9959 38.4509C39.0277 38.3945 39.2 38.1807 39.0744 38.3198C39.1439 38.2419 39.2172 38.1676 39.2941 38.0971C39.3925 38.0085 39.1287 38.1921 39.3247 38.0746C39.3904 38.0356 39.4519 37.9928 39.5215 37.9567C39.5685 37.9313 39.6165 37.9067 39.6652 37.8859C39.5435 37.9385 39.6771 37.8859 39.6975 37.8778C39.8237 37.8365 39.9521 37.8025 40.0822 37.776C39.8926 37.8083 40.1607 37.7811 40.2306 37.7824C40.3006 37.7837 40.3706 37.7875 40.4402 37.7951C40.5 37.8011 40.4974 37.8011 40.433 37.7951C40.4779 37.8028 40.5225 37.8125 40.5661 37.8235C40.8137 37.882 41.0453 37.994 41.2448 38.1518C41.2545 38.1586 41.372 38.2477 41.2872 38.1794C41.333 38.2146 41.3771 38.2528 41.4208 38.2905C41.5376 38.3919 41.6481 38.5002 41.7516 38.615C42.0238 38.9181 42.2093 39.289 42.2886 39.6885C42.2856 39.6745 42.3361 39.9379 42.3175 39.8196C42.2988 39.7013 42.3319 39.9731 42.3306 39.9579C42.3401 40.0884 42.3428 40.2194 42.3387 40.3502C42.3387 40.4257 42.3327 40.5008 42.3264 40.5759C42.3293 40.539 42.3573 40.4316 42.3221 40.6064C42.293 40.7471 42.255 40.8858 42.2084 41.0216C42.1236 41.2761 42.2449 40.958 42.1754 41.0976C42.1372 41.1756 42.096 41.2515 42.0515 41.3262C42 41.4298 41.9321 41.5245 41.8505 41.6065C41.755 41.7131 41.6516 41.8124 41.5413 41.9034C41.6329 41.8284 41.5239 41.9149 41.5086 41.9247C41.4373 41.9705 41.3669 42.0171 41.2923 42.0578C41.1045 42.1599 40.8965 42.2192 40.6832 42.2317C40.4045 42.2407 40.1301 42.1611 39.8994 42.0044C39.7051 41.8908 39.4737 41.8591 39.256 41.9162C39.0383 41.9732 38.8523 42.1144 38.7387 42.3087C38.6251 42.503 38.5934 42.7344 38.6505 42.9521C38.7075 43.1698 38.8487 43.3558 39.043 43.4694C40.6124 44.4025 42.4362 43.7689 43.4228 42.3272C43.8305 41.6793 44.0454 40.9288 44.0425 40.1633C44.0395 39.3978 43.8189 38.649 43.4062 38.0042C42.566 36.7123 40.9886 35.7516 39.4192 36.1876C38.7594 36.3703 38.1762 36.7614 37.7569 37.3027C37.3376 37.844 37.1047 38.5064 37.0928 39.191C36.988 40.8176 37.6501 42.5677 39.0439 43.4694C39.2381 43.583 39.4696 43.6147 39.6872 43.5576C39.795 43.5294 39.8962 43.4802 39.9849 43.4128C40.0737 43.3455 40.1483 43.2613 40.2046 43.1651C40.2608 43.0689 40.2975 42.9626 40.3127 42.8522C40.3278 42.7418 40.321 42.6295 40.2928 42.5217C40.2645 42.4139 40.2153 42.3128 40.148 42.224C40.0806 42.1352 39.9964 42.0606 39.9002 42.0044L39.8998 42.0061Z" fill="#211715"/>
    <path d="M44.9258 31.5449V41.0009C44.9258 42.0926 46.6224 42.0943 46.6224 41.0009V31.5449C46.6224 30.4535 44.9258 30.4514 44.9258 31.5449Z" fill="#211715"/>
    <path d="M45.4786 42.6099C42.8696 43.0518 40.2068 44.0698 36.3594 44.7081C38.7308 45.8512 43.1907 48.047 47.4556 50.1797C51.1614 48.671 52.2162 48.408 54.5355 47.5185C50.6553 45.517 45.4862 42.6065 45.4786 42.6099Z" fill="white"/>
    <path d="M45.2538 41.7914C42.1779 42.3241 39.2182 43.3701 36.1346 43.8901C35.4288 44.0089 35.2986 45.135 35.9323 45.4404C38.4394 46.65 40.9372 47.883 43.4287 49.1203C44.1772 49.4916 44.9252 49.8635 45.6729 50.2362C46.0648 50.4318 46.4546 50.6315 46.8482 50.8232C47.0491 50.9322 47.2746 50.988 47.5032 50.9852C47.7318 50.9825 47.9559 50.9213 48.1541 50.8076C49.3242 50.3359 50.5022 49.885 51.6882 49.4549C52.7138 49.0859 53.7432 48.7271 54.7616 48.3377C55.3889 48.0977 55.6684 47.1501 54.9643 46.787C52.9547 45.7483 50.9658 44.6701 48.9838 43.5805C47.9624 43.0189 46.958 42.3831 45.9078 41.8771C44.9285 41.405 44.067 42.8675 45.0515 43.3421C46.1017 43.8481 47.1061 44.4839 48.1278 45.0455C50.1099 46.1351 52.0987 47.2133 54.1084 48.252L54.3111 46.7018C51.955 47.6027 49.57 48.4124 47.2316 49.3629L47.8852 49.4477C44.1951 47.6027 40.505 45.767 36.7891 43.9762L36.5863 45.5269C39.6699 45.0069 42.6292 43.9613 45.7055 43.4282C45.9217 43.3671 46.1052 43.2235 46.2163 43.0282C46.3275 42.833 46.3573 42.6018 46.2993 42.3848C46.2354 42.17 46.0908 41.9883 45.896 41.8777C45.7011 41.7671 45.471 41.7362 45.2538 41.7914Z" fill="#211715"/>
    <path d="M52.3098 46.5379C52.5601 44.5109 54.6817 42.8202 57.406 43.993C57.8174 45.2578 58.5321 47.1699 58.9715 48.7681C58.3726 49.2525 57.8548 49.6732 57.8548 49.6732C56.9785 50.731 55.0426 50.5406 53.9899 49.9001C53.4189 49.5577 52.9575 49.0594 52.6599 48.4638C52.3623 47.8683 52.2409 47.2001 52.3098 46.5379Z" fill="white"/>
    <path d="M57.1122 42.9825C55.9756 42.6202 54.7429 42.7124 53.6728 43.2396C52.7557 43.727 52.0511 44.536 51.6941 45.5113C50.8543 47.7169 52.1827 50.2007 54.3434 50.9922C55.6654 51.4761 57.4736 51.4057 58.4542 50.2711C58.6084 50.1094 58.6944 49.8946 58.6944 49.6712C58.6944 49.4477 58.6084 49.2329 58.4542 49.0712C58.2942 48.914 58.0788 48.8259 57.8545 48.8259C57.6301 48.8259 57.4148 48.914 57.2547 49.0712C57.2123 49.1183 57.1699 49.1611 57.1275 49.2073C57.0995 49.2387 56.971 49.3414 57.1029 49.2413C57.0132 49.3055 56.919 49.3629 56.8208 49.4131C56.7784 49.4355 56.6304 49.4835 56.7848 49.4313C56.7368 49.4474 56.6902 49.4644 56.6418 49.4788C56.5195 49.5155 56.3948 49.5439 56.2686 49.5636C56.4382 49.5369 56.2686 49.5636 56.2232 49.5636C56.1574 49.5662 56.0921 49.5717 56.0264 49.5725C55.9072 49.5747 55.7888 49.5666 55.6701 49.5615C55.6277 49.5615 55.4538 49.5399 55.6192 49.5615C55.567 49.5547 55.5149 49.5454 55.4631 49.5356C55.3223 49.5101 55.183 49.4771 55.0457 49.4368C54.9367 49.405 54.8298 49.3673 54.7234 49.3282C54.8871 49.3885 54.6114 49.2739 54.5656 49.2493C54.4684 49.1962 54.3745 49.1372 54.2844 49.0729C54.0778 48.9295 54.3527 49.1323 54.2394 49.0381C54.1809 48.9898 54.1232 48.9406 54.0672 48.8897C53.9858 48.8153 53.9073 48.7381 53.8318 48.6581C53.7996 48.6233 53.7678 48.5881 53.7364 48.552C53.7364 48.552 53.5909 48.3743 53.6702 48.4761C53.7495 48.5779 53.6155 48.3981 53.6147 48.3968C53.5892 48.3599 53.5642 48.3226 53.5404 48.2848C53.4756 48.1833 53.4163 48.0784 53.3627 47.9705C53.339 47.923 53.3165 47.8742 53.2944 47.8255C53.3059 47.8513 53.3555 47.9951 53.308 47.8522C53.2758 47.7534 53.2401 47.6567 53.213 47.5553C53.1918 47.476 53.1748 47.3962 53.1583 47.3161C53.1553 47.3008 53.1265 47.104 53.1451 47.2495C53.1634 47.3899 53.1409 47.1803 53.1392 47.1528C53.1311 46.9645 53.135 46.776 53.1506 46.5882C53.1396 46.7787 53.146 46.6171 53.1646 46.5225C53.187 46.4073 53.2153 46.2933 53.2495 46.181C53.2728 46.1064 53.3021 46.0343 53.3267 45.9601C53.386 45.7798 53.2571 46.0737 53.3216 45.9741C53.347 45.9342 53.364 45.8846 53.3856 45.8421C53.4258 45.7641 53.469 45.6876 53.5154 45.6127C53.5455 45.5639 53.7483 45.2886 53.6002 45.4719C53.7104 45.3332 53.8308 45.2029 53.9603 45.0821C53.9926 45.0528 54.1962 44.8857 54.102 44.9574C53.9913 45.0422 54.1508 44.9247 54.161 44.9179C54.2114 44.8853 54.2611 44.8513 54.3128 44.8204C54.3976 44.7678 54.4884 44.719 54.5792 44.6749C54.5898 44.6698 54.7743 44.5901 54.6462 44.6422C54.5253 44.6923 54.7234 44.6155 54.748 44.6074C54.8576 44.5695 54.9692 44.5375 55.0822 44.5116C55.1569 44.4942 55.4516 44.4564 55.2413 44.476C55.4923 44.4558 55.7444 44.4533 55.9958 44.4683C56.0323 44.4683 56.1621 44.4883 55.9861 44.4637C56.0599 44.4738 56.1333 44.487 56.2062 44.5014C56.3585 44.5315 56.5082 44.5714 56.6571 44.6159C56.7645 44.6455 56.8767 44.6537 56.9873 44.6399C57.0978 44.6262 57.2046 44.5908 57.3015 44.5358C57.3984 44.4807 57.4835 44.4072 57.552 44.3193C57.6204 44.2313 57.6709 44.1308 57.7005 44.0234C57.7301 43.916 57.7383 43.8038 57.7245 43.6932C57.7107 43.5826 57.6753 43.4759 57.6203 43.379C57.5653 43.2821 57.4917 43.197 57.4038 43.1285C57.3159 43.0601 57.2154 43.0096 57.108 42.98L57.1122 42.9825Z" fill="#211715"/>
    <path d="M59.711 37.0326C59.6787 36.8061 59.6982 36.9338 59.711 37.0661C59.7203 37.1772 59.7292 37.2879 59.7373 37.3991C59.7597 37.7168 59.7767 38.0353 59.7916 38.353C59.8234 39.049 59.8467 39.748 59.8302 40.4449C59.8272 40.581 59.8229 40.7176 59.8136 40.8538C59.8085 40.9331 59.8034 41.2355 59.8043 41.0082C59.8043 41.2325 59.7275 41.0082 59.8357 40.9899C59.7165 41.012 59.4883 41.2559 59.364 41.356C58.5111 42.0448 57.6823 42.7624 56.8276 43.4487C56.7194 43.5533 56.642 43.6855 56.6035 43.831C56.5651 43.9765 56.5672 44.1297 56.6096 44.2741C57.1394 45.8812 57.7387 47.4658 58.1857 49.0992C58.2217 49.2237 58.2853 49.3383 58.3719 49.4346C58.4585 49.5309 58.5657 49.6064 58.6856 49.6554C58.8055 49.7043 58.9349 49.7255 59.0642 49.7174C59.1934 49.7092 59.3191 49.6719 59.4319 49.6082C62.9494 47.6406 67.8648 45.6356 67.7605 40.8623C67.6691 38.7625 67.3392 36.68 66.7773 34.6548C66.3365 32.7244 65.5177 30.9004 64.3681 29.2881C62.9769 27.4642 61.3181 25.6438 59.2639 24.5605C58.2986 24.0515 57.4401 25.5153 58.4076 26.0255C60.0465 26.8899 61.3834 28.2824 62.5481 29.7008C63.6377 31.0563 64.4424 32.6178 64.914 34.2918C65.4162 36.0372 65.768 37.8225 65.9655 39.628C66.0868 40.6379 66.1826 41.7267 65.7865 42.6912C65.4419 43.4392 64.9357 44.1014 64.3045 44.6304C62.6372 46.1421 60.5198 47.0557 58.5755 48.1432L59.8217 48.6522C59.3746 47.0184 58.7753 45.4337 58.2455 43.8266L58.0271 44.652C58.9411 43.9183 59.8246 43.1467 60.7417 42.4168C61.3779 41.9116 61.4903 41.4183 61.5212 40.64C61.5848 39.2859 61.5272 37.9289 61.349 36.5851C61.2883 36.3687 61.1447 36.185 60.9493 36.0739C60.754 35.9627 60.5227 35.933 60.3056 35.9913C60.0916 36.0559 59.9107 36.2003 59.8001 36.3946C59.6896 36.5889 59.658 36.8182 59.7118 37.0352L59.711 37.0326Z" fill="#211715"/>
    <path d="M45.4172 17.0562C45.2998 19.537 46.1317 21.9693 47.7436 23.8587C49.2053 25.5352 51.2702 26.5661 53.4885 26.727C55.7069 26.8879 57.8989 26.1656 59.5872 24.7176C60.7532 24.7786 61.9024 24.4189 62.8255 23.7039C63.2393 23.3818 63.5643 22.9598 63.7699 22.4775C63.9755 21.9951 64.055 21.4684 64.0009 20.9469C63.9346 20.5855 63.7806 20.2459 63.5525 19.9578C63.3243 19.6698 63.029 19.4421 62.6924 19.2948C63.329 17.6393 63.4011 15.8198 62.8973 14.119C62.3935 12.4183 61.3422 10.9315 59.9065 9.88975C56.1316 7.2087 50.7984 7.57771 47.6974 11.1054C46.2767 12.7684 45.4716 14.8696 45.4172 17.0562Z" fill="white"/>
    <path d="M46.6458 12.5896C46.0945 13.5771 45.7212 14.6539 45.543 15.7707C47.7855 15.9695 50.0448 15.6972 52.1758 14.9712C52.2356 14.9512 52.2989 14.9436 52.3617 14.949C52.4245 14.9544 52.4855 14.9727 52.541 15.0026C52.8087 15.1532 52.4855 15.7376 52.3345 16.0048C53.2845 16.2725 55.611 15.8352 56.6392 15.2702C57.2109 16.6597 57.7941 17.3838 58.9147 17.9084L61.9241 19.1083C62.1899 19.123 62.4506 19.187 62.693 19.2971C63.3287 17.641 63.4 15.8213 62.8958 14.1205C62.3917 12.4197 61.3402 10.9329 59.9047 9.89073C56.1297 7.20968 50.7965 7.57869 47.6955 11.1063C47.2949 11.5628 46.9431 12.06 46.6458 12.5896Z" fill="white"/>
    <path d="M63.6407 19.1615C64.1941 17.4266 64.2062 15.5643 63.6754 13.8224C63.1445 12.0804 62.096 10.5414 60.6691 9.40988C59.2619 8.33319 57.6003 7.63827 55.8455 7.39245C54.0908 7.14662 52.3022 7.35824 50.6533 8.00679C47.1752 9.43405 44.9943 12.6813 44.6159 16.3748C44.4134 18.2077 44.6996 20.0615 45.4455 21.748C46.1913 23.4344 47.3703 24.8934 48.8625 25.9767C52.3346 28.4012 57.3553 27.9745 60.4261 25.0966C61.2248 24.3484 60.0232 23.1506 59.2266 23.8971C58.0888 24.918 56.6737 25.5782 55.1605 25.7943C53.6472 26.0104 52.1038 25.7726 50.7258 25.111C47.8704 23.6851 46.276 20.621 46.2587 17.4929C46.2421 14.4861 47.6728 11.5599 50.3233 10.0406C51.5995 9.33791 53.0345 8.97399 54.4913 8.98357C55.9482 8.99315 57.3782 9.3759 58.6451 10.0953C60.1152 10.9209 61.2536 12.2308 61.8661 13.8017C62.4787 15.3726 62.5275 17.1073 62.0044 18.7102C61.6684 19.7519 63.3065 20.1981 63.6407 19.1615Z" fill="#211715"/>
    <path d="M61.9224 19.9564C62.1222 19.9704 61.8295 19.9195 62.0072 19.9657C62.0827 19.9856 62.1591 20.0013 62.2337 20.0255C62.2761 20.0395 62.45 20.1222 62.3215 20.0565C62.3915 20.0921 62.4611 20.1286 62.5277 20.1697C62.5582 20.1888 62.7245 20.3093 62.6125 20.2193C62.6735 20.2689 62.7319 20.3217 62.7872 20.3775C62.8431 20.4329 62.8958 20.4914 62.945 20.5527C62.8458 20.4255 62.9756 20.6096 62.9929 20.6376C63.0338 20.7049 63.0708 20.7746 63.1037 20.8462C63.0358 20.6952 63.1181 20.9052 63.1278 20.9395C63.1505 21.016 63.168 21.094 63.18 21.1728C63.1558 21.0053 63.1775 21.2403 63.18 21.2755C63.18 21.3603 63.1762 21.4409 63.1715 21.5236C63.1613 21.7132 63.2004 21.4591 63.1537 21.6284C63.116 21.7666 63.0422 22.0339 63.0175 22.0911C62.901 22.3429 62.749 22.5767 62.5663 22.7854C62.3588 23.0191 62.1094 23.2116 61.8308 23.353C61.547 23.5219 61.2401 23.6483 60.9197 23.7283C60.7418 23.7785 60.5613 23.8186 60.3789 23.8484C60.3187 23.8577 60.3187 23.8577 60.3789 23.8484C60.334 23.8535 60.289 23.8581 60.244 23.8615C60.1401 23.8704 60.0366 23.8751 59.9323 23.8776C59.7073 23.8776 59.4915 23.967 59.3325 24.1261C59.1734 24.2852 59.084 24.5009 59.084 24.7259C59.084 24.9509 59.1734 25.1667 59.3325 25.3258C59.4915 25.4849 59.7073 25.5742 59.9323 25.5742C61.9559 25.5246 64.0007 24.429 64.6883 22.444C64.853 21.9916 64.9124 21.5076 64.8617 21.0287C64.8111 20.5499 64.6518 20.089 64.396 19.6811C64.1212 19.2695 63.7549 18.927 63.3258 18.6805C62.8967 18.4339 62.4164 18.2899 61.9224 18.2598C61.6978 18.2609 61.4826 18.3506 61.3238 18.5095C61.1649 18.6683 61.0752 18.8834 61.0741 19.1081C61.0794 19.3314 61.1704 19.5441 61.3284 19.7021C61.4864 19.86 61.6991 19.9511 61.9224 19.9564Z" fill="#211715"/>
    <path d="M50.7682 20.1418C50.7575 20.3403 50.7029 20.5338 50.6083 20.7086C50.5137 20.8833 50.3814 21.0348 50.221 21.1522C49.9935 21.2984 49.7181 21.3506 49.4529 21.2977C49.2719 21.2654 49.1011 21.191 48.9543 21.0805C48.8074 20.97 48.6886 20.8264 48.6076 20.6614C48.4903 20.3967 48.46 20.1016 48.5209 19.8186C48.5819 19.5355 48.731 19.2791 48.9469 19.0861C49.1573 18.911 49.4262 18.8221 49.6996 18.8371C49.9729 18.8521 50.2304 18.97 50.4204 19.1671C50.547 19.2936 50.6439 19.4467 50.7041 19.6153C50.7642 19.7839 50.7861 19.9638 50.7682 20.1418Z" fill="#211715"/>
    <path d="M55.9244 21.1955C55.9135 21.3938 55.8587 21.5873 55.7641 21.762C55.6695 21.9366 55.5374 22.0882 55.3773 22.2058C55.1495 22.3518 54.874 22.4038 54.6087 22.3508C54.4278 22.3187 54.257 22.2443 54.1102 22.1337C53.9634 22.0232 53.8447 21.8796 53.7638 21.7146C53.6465 21.4499 53.6162 21.1548 53.6772 20.8718C53.7382 20.5887 53.8873 20.3323 54.1031 20.1393C54.3135 19.9642 54.5823 19.8753 54.8556 19.8903C55.1289 19.9053 55.3863 20.0232 55.5762 20.2203C55.7029 20.3469 55.7998 20.5001 55.86 20.6687C55.9202 20.8374 55.9422 21.0173 55.9244 21.1955Z" fill="#211715"/>
    <path d="M55.8215 15.4959C56.0939 16.2199 56.4783 16.8967 56.9608 17.5013C57.3828 17.9857 57.9034 18.3744 58.4877 18.6414C58.6875 18.75 58.9205 18.7802 59.1413 18.7263C59.3022 18.682 59.4465 18.5912 59.556 18.4652C59.6656 18.3393 59.7356 18.1839 59.7572 18.0184C59.7789 17.8529 59.7512 17.6847 59.6777 17.5349C59.6042 17.385 59.4882 17.2602 59.3441 17.176C59.0567 17.0431 58.7844 16.8799 58.5318 16.6891L58.7015 16.8218C58.4566 16.6298 58.2367 16.4078 58.047 16.161L58.1793 16.3307C57.8713 15.9071 57.6167 15.4471 57.4214 14.9611L57.5062 15.1638C57.4893 15.1235 57.4723 15.0832 57.4557 15.043C57.3896 14.8334 57.2515 14.6539 57.066 14.5361C56.9698 14.4798 56.8634 14.443 56.753 14.4278C56.6426 14.4126 56.5303 14.4194 56.4225 14.4476C56.3147 14.4759 56.2135 14.5251 56.1247 14.5924C56.0359 14.6598 55.9613 14.744 55.9051 14.8402C55.8464 14.9373 55.8085 15.0456 55.7939 15.1581C55.7793 15.2706 55.7883 15.385 55.8202 15.4938L55.8215 15.4959Z" fill="#211715"/>
    <path d="M56.211 14.5386C55.2426 15.0476 53.5867 15.4442 52.5599 15.1876L53.0667 16.4337C53.3933 15.8501 53.7496 15.0387 53.2042 14.4614C52.5739 13.7947 51.6772 14.2642 50.9562 14.4614C49.281 14.8987 47.5461 15.0614 45.8189 14.9433C44.728 14.883 44.7313 16.5796 45.8189 16.6399C46.9679 16.708 48.1209 16.6684 49.2625 16.5215C49.8004 16.4503 50.3344 16.3586 50.8629 16.2352C51.1369 16.171 51.4087 16.0996 51.6785 16.021C51.8298 15.9769 51.9802 15.9304 52.1298 15.8815C52.19 15.8624 52.2502 15.8425 52.3101 15.8217C52.4288 15.7807 52.4302 15.7807 52.3143 15.8217L51.9402 15.6037L52.0034 15.6609L51.7854 15.2864C51.7006 15.0837 51.8592 15.1015 51.7629 15.2715C51.7061 15.3716 51.6573 15.4768 51.6009 15.5774C51.5371 15.69 51.4996 15.8156 51.4913 15.9447C51.483 16.0739 51.504 16.2032 51.5527 16.3231C51.6015 16.443 51.6767 16.5503 51.7729 16.6369C51.869 16.7236 51.9835 16.7874 52.1077 16.8235C52.936 16.9808 53.7878 16.9663 54.6102 16.7811C55.4652 16.653 56.2946 16.3906 57.0677 16.0036C58.034 15.4947 57.1772 14.0292 56.211 14.5386Z" fill="#211715"/>
    <path d="M60.5945 40.015C62.5638 40.3321 64.5502 40.5317 66.5432 40.6126C66.7682 40.6126 66.984 40.5233 67.1431 40.3642C67.3022 40.2051 67.3915 39.9893 67.3915 39.7643C67.3915 39.5393 67.3022 39.3236 67.1431 39.1645C66.984 39.0054 66.7682 38.916 66.5432 38.916C64.7016 38.8457 62.8656 38.667 61.045 38.3807C60.8281 38.328 60.5993 38.3601 60.4054 38.4705C60.2114 38.5809 60.067 38.7612 60.0016 38.9746C59.9436 39.1916 59.9735 39.4227 60.0846 39.618C60.1957 39.8132 60.3792 39.9569 60.5954 40.018L60.5945 40.015Z" fill="#211715"/>
    <path d="M40.1082 31.88L45.0198 35.0726C45.2144 35.1845 45.4453 35.2154 45.6624 35.1585C45.8796 35.1016 46.0656 34.9615 46.1803 34.7685C46.289 34.5731 46.3181 34.3432 46.2614 34.1269C46.2047 33.9106 46.0667 33.7246 45.8762 33.6076L40.9654 30.415C40.7707 30.3031 40.5398 30.2723 40.3226 30.3292C40.1054 30.3861 39.9193 30.5261 39.8045 30.7191C39.6959 30.9146 39.667 31.1444 39.7237 31.3607C39.7805 31.577 39.9185 31.763 40.109 31.88H40.1082Z" fill="#211715"/>
    <path d="M93.8344 38.6069C93.8344 39.9642 92.8881 41.3062 91.1122 42.3318C89.1213 43.4433 86.8806 44.0307 84.6005 44.0388C82.3204 44.0468 80.0756 43.4754 78.0768 42.378C76.1363 41.2579 75.1858 39.8921 75.2469 38.5251C75.2634 37.2136 76.214 35.9123 78.076 34.835L91.1122 34.8837C92.889 35.9098 93.8348 37.2467 93.8348 38.6057" fill="white"/>
</svg>