<svg width="122" height="115" viewBox="0 0 122 115" fill="none"
    xmlns="http://www.w3.org/2000/svg">
    <path d="M85.1204 45.8653C86.6739 45.0093 87.1563 43.3376 87.2136 42.04C87.3234 39.4965 86.6071 37.8252 86.1443 36.0703C85.205 32.5201 84.4195 28.9695 84.2566 25.0122C84.2049 23.7454 84.1836 19.677 84.136 18.1465C84.0112 13.7975 81.8198 9.24092 79.1792 6.429L76.9385 4.46428C75.9526 3.64904 74.8571 2.99152 73.6875 2.51314C71.2648 1.46641 68.6727 0.918539 66.0527 0.899405C61.7179 0.760833 57.4809 2.26648 54.1185 5.14021C49.6703 9.11183 47.552 14.7052 48.0711 23.9303C49.3508 30.9929 48.2633 35.8627 48.5559 42.1519C48.636 43.8675 50.7879 47.2322 52.9632 46.7635L85.1204 45.8653Z" fill="#A98A75"/>
    <path d="M68.5629 14.1509C66.1652 17.1139 62.5245 19.4153 58.5954 20.7125C58.5368 20.731 58.4746 20.7333 58.4149 20.7192C58.3552 20.705 58.3 20.675 58.2546 20.6319C58.2092 20.5888 58.1752 20.5342 58.1558 20.4733C58.1365 20.4123 58.1324 20.3472 58.1441 20.2842C58.3374 19.1923 58.4713 18.1452 58.5664 17.0567C56.1481 19.8741 51.8593 23.2699 48.9219 24.7017C49.3448 27.3266 49.6308 29.9786 49.9471 32.4C50.4519 36.2608 51.667 39.7318 54.3108 41.8799C55.8445 43.1778 57.6544 44.0679 59.5864 44.4743L59.1344 44.745C58.3169 45.1573 57.4764 45.5175 56.6175 45.8236C56.619 45.8277 56.6202 45.8319 56.621 45.8361L56.9073 47.3915C57.2338 49.1703 58.5374 50.6406 60.0922 51.4259C61.6471 52.2111 63.4271 52.389 65.1508 52.2837C70.856 51.9349 75.7262 48.6928 79.7154 44.5965C78.8023 44.2263 77.9147 43.7906 77.0587 43.2923C76.3037 42.8944 75.6886 42.2552 75.3022 41.4669C75.145 41.0338 75.0325 40.5843 74.9666 40.1261L74.7918 38.6308C74.7918 38.6308 74.768 38.4768 74.7338 38.2523C75.2095 37.6164 75.637 36.9687 76.0443 36.2964C76.0443 36.2964 76.6833 35.198 76.9493 34.5726C76.9493 34.5726 77.0192 34.4344 77.1209 34.2349C77.8814 34.2297 78.6282 34.0233 79.2924 33.6348C80.3019 32.9146 81.0837 31.8948 81.5377 30.7059C82.0774 29.4839 82.2809 27.4488 81.7394 26.2803C81.5711 25.9285 81.3167 25.6299 81.0023 25.4152C80.6879 25.2004 80.3247 25.0773 79.95 25.0582C79.356 24.9741 78.7539 25.1315 78.2672 25.4983L75.3301 24.866C73.4155 23.9037 71.2626 20.8317 70.4404 19.032C69.7407 17.4737 69.125 15.8753 68.5964 14.2444" fill="white"/>
    <path d="M63.2285 87.2026C65.5252 94.858 68.5398 104.935 70.1817 110.445C70.3161 110.895 70.3002 111.379 70.1366 111.818C69.9729 112.256 69.6714 112.623 69.2819 112.857L69.0942 112.97L69.2924 112.883C73.5162 111.035 87.1926 104.659 89.7857 103.409L88.8205 98.6576C88.8205 98.6576 67.0395 88.6084 63.2285 87.2026Z" fill="white"/>
    <path d="M78.5027 6.96841C80.42 8.87959 81.8155 11.5294 82.6094 14.1568C83.0201 15.4821 83.2529 16.8609 83.3012 18.2535C83.3305 19.2724 83.3389 20.2916 83.3518 21.3108C83.3375 23.834 83.4777 26.3555 83.7713 28.8598C84.2095 31.869 84.8704 34.8378 85.7481 37.7393C86.4273 40.0635 87.1866 43.6734 84.6963 45.1034C83.7489 45.6477 84.5945 47.1683 85.5433 46.6236C88.1136 45.1478 88.3373 41.9027 87.8417 39.1917C87.5987 37.8618 87.1457 36.5829 86.8069 35.2784C86.3875 33.658 86.0029 32.0267 85.703 30.3767C85.2552 27.6847 85.033 24.9567 85.0388 22.224C85.0039 19.6853 85.0923 17.121 84.4869 14.641C83.693 11.3875 82.0256 8.05328 79.6881 5.72291C78.905 4.94245 77.7169 6.18539 78.5013 6.96768L78.5027 6.96841Z" fill="#211715"/>
    <path d="M79.6825 101.391C78.2307 102.615 77.1342 104.277 75.6307 105.921C75.4146 106.157 74.5295 106.776 73.8479 106.224C73.3991 105.861 73.3344 104.949 73.4983 104.577C74.382 102.55 74.7442 101.936 75.4007 100.517C74.6005 101.402 73.9762 102.143 73.0285 103.148L72.0627 104.173C71.113 105.18 70.1634 106.188 69.2137 107.195C68.2 103.797 66.9415 99.5842 65.6855 95.3947C66.7786 93.9247 67.7693 92.3044 69.1179 91.0611C70.1032 90.0914 71.3555 89.4734 72.6957 89.2955C73.2495 89.2604 73.8052 89.2802 74.3555 89.3546C75.4058 89.4673 76.4524 89.6108 77.4953 89.7852C79.3909 90.1024 81.5152 90.4743 83.031 89.1279C84.9959 90.9522 86.779 94.5523 87.7637 97.9125C87.4096 98.0929 87.0691 98.3013 86.7451 98.536C86.5259 98.6933 85.8208 99.3487 85.5873 99.4815C83.7896 100.485 81.8265 101.122 79.8024 101.357" fill="white"/>
    <path d="M86.7359 95.0215C85.7421 92.6402 84.4305 90.4297 83.0253 89.1248C81.5099 90.4741 79.3873 90.1022 77.4924 89.785C76.45 89.6106 75.4034 89.4671 74.3526 89.3544C73.8023 89.28 73.2466 89.2602 72.6928 89.2953C71.3526 89.4732 70.1003 90.0912 69.115 91.0609C68.1393 92.0268 67.2633 93.0979 66.5017 94.2565L37.2162 77.1241C35.9322 73.6799 35.1537 71.1897 34.168 67.6985C36.3552 66.9477 41.7672 65.3072 44.5029 64.2143C44.7207 62.4202 45.024 60.6388 45.4117 58.8765C45.8777 56.4926 47.0232 52.8408 49.2181 50.169C50.6552 48.4196 53.5685 46.9496 56.2094 45.9942C56.2794 45.9608 56.394 45.9168 56.538 45.8655C56.7415 46.7006 56.9093 47.3908 56.9093 47.3908C57.2358 49.1696 58.5393 50.6399 60.0942 51.4251C61.649 52.2104 63.429 52.3882 65.1527 52.283C70.9845 51.9265 75.9438 48.5468 79.9816 44.3218C85.6128 46.0107 90.0753 47.7436 93.2245 52.5129C95.97 56.6712 97.8853 64.3669 98.662 67.3831C99.4625 70.4914 100.297 73.6403 100.886 77.2393C101.208 79.1098 101.808 82.9086 101.847 84.3144C101.878 85.4404 101.694 87.9611 101.391 88.9803C100.809 91.1423 99.5841 93.0528 97.8951 94.4336C95.18 96.7207 90.9803 98.6678 88.2261 99.7571C87.8762 98.1318 87.3772 96.5459 86.7359 95.0215Z" fill="#1BCF6C"/>
    <path d="M34.0863 47.5316C34.1261 47.5243 34.1667 47.5177 34.2083 47.5122C34.4866 47.4777 34.7671 47.4654 35.0472 47.4755L34.7491 46.7035C34.1336 45.1861 33.5189 43.6683 32.9051 42.1502C32.7421 41.7811 32.6133 41.3965 32.5206 41.0015C32.4451 40.6794 32.435 40.3442 32.4909 40.0178C32.5469 39.6913 32.6676 39.3808 32.8453 39.1065C33.2019 38.6224 33.929 38.5736 34.496 38.7966C35.1175 39.0416 35.4618 39.5583 35.8498 40.2111C37.1083 42.3299 38.768 46.5601 39.4829 48.9532L39.665 49.5623C40.4491 49.2649 41.2877 49.1101 41.9952 49.5194C42.5642 49.9176 42.9867 50.5074 43.1932 51.1915C43.731 52.616 43.9683 54.1459 43.8887 55.6759C43.8091 57.2058 43.4145 58.6995 42.7321 60.0542C43.2818 61.4081 43.744 62.7993 44.1157 64.2183L44.1478 64.3522C41.9892 65.1855 38.5265 66.2795 36.0788 67.0699L35.9914 66.728C35.8453 66.1548 34.97 63.2805 34.5093 62.5811C34.0811 62.0068 33.5854 61.4916 33.0341 61.0477C32.1118 60.1755 31.2391 59.2472 30.4204 58.2677C29.9628 57.7623 29.4465 56.5073 29.5664 55.7554C29.6655 54.8561 30.0156 54.0076 30.5728 53.3165C30.7235 53.1645 30.9033 53.048 31.1003 52.9749C31.2973 52.9017 31.507 52.8735 31.7152 52.8921L31.6586 52.7678C31.4919 52.5435 31.3738 52.2838 31.3122 52.0068C31.2506 51.7298 31.2472 51.4421 31.302 51.1636C31.4827 50.4158 31.8096 50.2584 32.3996 50.1C32.4141 50.096 32.4288 50.0929 32.4437 50.0908L32.4493 49.3779C32.4436 49.1631 32.4801 48.9495 32.5565 48.7502C32.6328 48.5509 32.7475 48.3702 32.8932 48.2193C33.2039 47.8532 33.6252 47.6104 34.0863 47.5316Z" fill="white"/>
    <path d="M73.3906 45.3933C73.409 45.3833 73.409 45.3844 73.3906 45.3933V45.3933Z" fill="white"/>
    <path d="M100.72 92.8192C103.025 92.8192 105.328 92.8163 107.632 92.8104L118.477 92.7964C119.381 92.7964 120.285 92.7953 121.19 92.7931C122.269 92.7931 122.271 91.0327 121.19 91.0327C118.826 91.0327 116.463 91.0356 114.1 91.0415L103.305 91.0558C102.443 91.0558 101.581 91.0568 100.72 91.0588C99.6409 91.0588 99.6392 92.8192 100.72 92.8192Z" fill="#211715"/>
    <path d="M0.810248 92.8221C4.95364 92.8221 9.09669 92.8049 13.2397 92.7968C13.8955 92.7953 14.5513 92.7941 15.2071 92.7931C16.2865 92.7931 16.2883 91.0327 15.2071 91.0327C11.0165 91.0327 6.82591 91.0496 2.63568 91.058C2.0272 91.0595 1.41872 91.0607 0.810248 91.0617C-0.269209 91.0617 -0.270956 92.8221 0.810248 92.8221Z" fill="#211715"/>
    <path d="M80.4171 45.372C84.7269 46.6956 89.0164 48.3651 91.9241 52.1445C93.2616 53.8833 94.1865 55.9676 94.9681 58.0317C95.7788 60.1713 96.4478 62.3689 97.0543 64.5809C98.394 69.278 99.4809 74.0504 100.31 78.8756C100.929 82.706 101.673 86.9472 99.8876 90.5751C98.7574 92.8725 96.761 94.3795 94.6759 95.647C92.6543 96.8578 90.5452 97.9002 88.368 98.7644C87.9464 98.9356 87.5227 99.1 87.097 99.2577C86.8854 99.3246 86.7065 99.4744 86.5973 99.6759C86.4882 99.8775 86.4572 100.115 86.5108 100.34C86.5716 100.564 86.714 100.754 86.907 100.869C87.1001 100.984 87.3285 101.015 87.543 100.955C89.7125 100.153 91.829 99.2011 93.8785 98.1054C96.171 96.8734 98.5711 95.4108 100.201 93.2715C100.951 92.2799 101.542 91.1678 101.953 89.978C102.289 88.9574 102.497 87.8953 102.572 86.8184C102.684 85.8376 102.714 84.8483 102.661 83.862C102.58 82.7676 102.42 81.6769 102.263 80.592C101.884 77.973 101.447 75.3598 100.865 72.7801C100.317 70.3485 99.6824 67.9389 99.0504 65.5286C98.4806 63.3548 97.8618 61.1935 97.1302 59.0736C96.3922 56.7557 95.4056 54.5332 94.1893 52.4489C92.8982 50.3674 91.197 48.6002 89.2003 47.2663C87.1641 45.9743 84.9774 44.9635 82.6946 44.2589C82.0863 44.0542 81.4746 43.8613 80.8618 43.672C79.8232 43.353 79.38 45.0514 80.4157 45.3694L80.4171 45.372Z" fill="#211715"/>
    <path d="M82.837 87.0957C84.5589 86.3296 86.2141 85.4365 87.8962 84.5816C88.0875 84.4629 88.2264 84.2698 88.2827 84.0443C88.3391 83.8188 88.3084 83.5791 88.1972 83.3772C88.0809 83.1802 87.897 83.0375 87.6833 82.9788C87.4697 82.92 87.2427 82.9496 87.0492 83.0614C85.3671 83.9163 83.7123 84.8094 81.99 85.5755C81.8948 85.6339 81.8115 85.7113 81.7449 85.8034C81.6783 85.8955 81.6296 86.0005 81.6016 86.1123C81.5737 86.2242 81.567 86.3407 81.582 86.4553C81.597 86.5698 81.6334 86.6801 81.689 86.78C81.806 86.9761 81.99 87.118 82.2033 87.1766C82.4166 87.2353 82.6433 87.2064 82.837 87.0957Z" fill="#211715"/>
    <path d="M83.9496 70.5113L86.5074 80.3352C86.7916 81.4271 88.4108 80.9635 88.1256 79.8673L85.5674 70.0433C85.2832 68.9518 83.6641 69.4154 83.9496 70.5113Z" fill="#211715"/>
    <path d="M82.2835 88.6232C81.0918 89.4212 79.6125 89.2434 78.2799 89.0299C76.6314 88.7658 74.9465 88.4203 73.2752 88.3961C69.8676 88.3466 67.6304 91.1974 65.7788 93.812C65.6679 94.014 65.6373 94.2536 65.6936 94.4791C65.75 94.7045 65.8887 94.8976 66.0797 95.0165C66.2731 95.1288 66.5002 95.1587 66.714 95.0999C66.9278 95.0411 67.1118 94.8981 67.2277 94.7007C68.1016 93.4658 69.0084 92.1587 70.2175 91.258C70.7765 90.8248 71.4053 90.5008 72.0737 90.3014C72.7959 90.1375 73.5403 90.112 74.2711 90.2263C75.8281 90.3884 77.363 90.695 78.9158 90.8824C80.3588 91.0566 81.872 90.9862 83.1305 90.143C84.0393 89.5353 83.1972 88.0111 82.2835 88.6232Z" fill="#211715"/>
    <path d="M69.3282 95.0318L66.7624 97.7007C66.6072 97.8662 66.5206 98.0894 66.5215 98.3216C66.5224 98.5538 66.6107 98.7762 66.7672 98.9404C66.9237 99.1046 67.1357 99.1972 67.357 99.1982C67.5783 99.1991 67.7911 99.1083 67.9488 98.9454L70.5146 96.2769C70.6722 96.1118 70.7609 95.8879 70.7611 95.6542C70.7613 95.4206 70.673 95.1964 70.5157 95.031C70.3583 94.8657 70.1449 94.7727 69.9222 94.7725C69.6995 94.7723 69.4858 94.8649 69.3282 95.0299V95.0318Z" fill="#211715"/>
    <path d="M69.5641 102.692C70.8574 101.106 72.2753 99.6301 73.6889 98.1631C73.8441 97.9975 73.9307 97.7744 73.9298 97.5422C73.9289 97.31 73.8406 97.0875 73.6841 96.9233C73.5276 96.7591 73.3156 96.6665 73.0943 96.6655C72.873 96.6646 72.6603 96.7554 72.5025 96.9183C71.0875 98.3853 69.671 99.8604 68.3776 101.447C68.2224 101.613 68.1358 101.836 68.1367 102.068C68.1376 102.3 68.2259 102.523 68.3824 102.687C68.5389 102.851 68.7509 102.944 68.9723 102.945C69.1936 102.945 69.4063 102.855 69.5641 102.692Z" fill="#211715"/>
    <path d="M71.4389 106.082C72.3918 105.072 73.3569 104.072 74.292 103.043C75.118 102.134 75.9185 101.2 76.7599 100.306C76.8379 100.225 76.8996 100.127 76.9418 100.02C76.9839 99.9135 77.0055 99.7989 77.0055 99.6832C77.0054 99.5675 76.9836 99.4529 76.9413 99.346C76.899 99.2392 76.8371 99.1421 76.7591 99.0603C76.681 98.9786 76.5884 98.9138 76.4865 98.8696C76.3846 98.8254 76.2753 98.8026 76.1651 98.8027C76.0548 98.8028 75.9456 98.8257 75.8437 98.87C75.7419 98.9144 75.6493 98.9794 75.5714 99.0613C74.7304 99.9554 73.9285 100.889 73.1038 101.798C72.1687 102.827 71.2036 103.827 70.2507 104.837C70.0955 105.003 70.0089 105.226 70.0098 105.458C70.0107 105.69 70.099 105.913 70.2555 106.077C70.412 106.241 70.624 106.334 70.8453 106.335C71.0666 106.336 71.2793 106.245 71.4371 106.082H71.4389Z" fill="#211715"/>
    <path d="M79.8005 102.238C81.5136 102.029 83.1902 101.568 84.7804 100.867C85.4496 100.584 86.078 100.205 86.647 99.7399C86.7624 99.6424 86.876 99.543 86.9907 99.4443C87.0469 99.3963 87.1029 99.3479 87.1598 99.3002C87.2679 99.21 87.0658 99.3699 87.1462 99.3119C87.4804 99.0732 87.8296 98.8586 88.1914 98.6694C88.3836 98.5515 88.5232 98.3584 88.5797 98.1325C88.6361 97.9067 88.6047 97.6665 88.4924 97.4649C88.3801 97.2633 88.196 97.1168 87.9807 97.0576C87.7654 96.9984 87.5366 97.0313 87.3444 97.1492C86.7686 97.4567 86.2271 97.8305 85.7301 98.2637C85.5707 98.4108 85.4039 98.5491 85.2306 98.6778C84.9024 98.885 84.5601 99.0664 84.2064 99.2206C82.8053 99.8652 81.3211 100.289 79.8018 100.477C79.5815 100.485 79.3721 100.58 79.2163 100.743C79.0604 100.907 78.9698 101.127 78.9629 101.358C78.9641 101.591 79.0529 101.814 79.2099 101.979C79.367 102.144 79.5797 102.237 79.8018 102.238H79.8005Z" fill="#211715"/>
    <path d="M82.1284 89.4837C83.4802 90.5418 84.4642 92.2381 85.2472 93.799C86.1771 95.6555 86.8817 97.6269 87.3446 99.6671C87.5946 100.767 89.213 100.302 88.9624 99.1991C88.449 96.964 87.665 94.807 86.6294 92.7809C85.7066 90.9684 84.5589 89.2039 82.9744 87.9635C82.7819 87.8472 82.5535 87.8151 82.3386 87.8742C82.1237 87.9333 81.9397 88.0788 81.8264 88.2793C81.7193 88.4821 81.6908 88.7205 81.7468 88.9448C81.8029 89.1691 81.9392 89.3621 82.1274 89.4837H82.1284Z" fill="#211715"/>
    <path d="M74.4226 100.608C74.0797 101.327 73.7235 102.039 73.3879 102.76C73.121 103.281 72.8838 103.817 72.6776 104.368C72.5438 104.834 72.5398 105.33 72.666 105.798C72.733 106.082 72.8581 106.346 73.0326 106.574C73.207 106.802 73.4267 106.987 73.6762 107.116C73.9258 107.246 74.1992 107.316 74.4776 107.324C74.7559 107.331 75.0324 107.275 75.2878 107.158C76.2959 106.738 76.9601 105.717 77.6463 104.881C78.4406 103.846 79.321 102.886 80.2771 102.014C80.433 101.848 80.5204 101.625 80.5204 101.392C80.5204 101.159 80.433 100.935 80.2771 100.769C80.1174 100.609 79.9049 100.52 79.6839 100.52C79.4629 100.52 79.2504 100.609 79.0907 100.769C77.5446 102.09 76.4169 103.834 75.0249 105.314C75.0032 105.337 74.8833 105.433 74.9774 105.362C75.078 105.285 74.8679 105.429 74.8445 105.443C74.8054 105.467 74.6453 105.542 74.768 105.492C74.719 105.512 74.5191 105.572 74.5642 105.565C74.5287 105.58 74.4899 105.584 74.4523 105.577C74.4147 105.57 74.3797 105.552 74.3513 105.525C74.4324 105.575 74.3044 105.441 74.3796 105.562C74.3525 105.518 74.3278 105.473 74.3058 105.426C74.3446 105.507 74.3216 105.482 74.3058 105.412C74.2884 105.332 74.2653 105.255 74.252 105.174C74.2796 105.341 74.2576 105.111 74.2552 105.055C74.2534 105.019 74.2622 104.982 74.259 104.945C74.259 104.964 74.2174 105.092 74.2499 105.01C74.2611 104.983 74.2608 104.948 74.2698 104.919C74.3114 104.79 74.2317 104.998 74.2961 104.854C74.482 104.44 74.6649 104.024 74.8554 103.613C75.185 102.904 75.5349 102.206 75.8716 101.502C75.9785 101.299 76.0069 101.061 75.9508 100.836C75.8948 100.612 75.7586 100.419 75.5706 100.297C75.3779 100.182 75.1498 100.15 74.9351 100.209C74.7204 100.268 74.5364 100.413 74.4226 100.613V100.608Z" fill="#211715"/>
    <path d="M73.0504 41.4156C74.2029 40.3245 75.2327 39.0987 76.1196 37.7619C76.7168 36.8994 77.237 35.9809 77.6737 35.0182C77.7797 34.8152 77.8075 34.5773 77.7516 34.3534C77.6956 34.1295 77.5601 33.9365 77.3728 33.8142C77.1803 33.6981 76.952 33.6662 76.7373 33.7253C76.5225 33.7844 76.3386 33.9297 76.2251 34.1299C75.8024 35.0616 75.301 35.9516 74.7269 36.7893C73.901 38.0293 72.9402 39.1641 71.864 40.1708C71.7087 40.3363 71.6222 40.5595 71.6231 40.7917C71.624 41.0239 71.7123 41.2463 71.8688 41.4105C72.0253 41.5747 72.2373 41.6674 72.4586 41.6683C72.6799 41.6693 72.8926 41.5784 73.0504 41.4156Z" fill="#211715"/>
    <path d="M69.0324 41.8327C65.4518 43.6801 61.1809 44.6538 57.4014 42.8369C55.6299 42.041 54.101 40.7496 52.9818 39.1037C51.9551 37.3925 51.2683 35.4814 50.9627 33.485C50.4618 30.7156 50.2552 27.8853 49.835 25.1005C49.7745 24.8764 49.6323 24.6862 49.4392 24.5711C49.2461 24.4561 49.0176 24.4255 48.8031 24.4859C48.5915 24.5526 48.4125 24.7024 48.3034 24.904C48.1943 25.1057 48.1635 25.3436 48.2172 25.5685C48.6157 28.2092 48.8405 30.8817 49.2698 33.5172C49.5785 35.7278 50.3006 37.8525 51.3944 39.7693C53.7155 43.6034 58.1547 45.757 62.4257 45.5535C65.0572 45.4284 67.5293 44.5651 69.8794 43.3529C70.0698 43.2335 70.208 43.0405 70.2643 42.8154C70.3206 42.5903 70.2904 42.351 70.1804 42.1489C70.065 41.9509 69.881 41.8074 69.667 41.7485C69.453 41.6897 69.2256 41.7196 69.0324 41.8327Z" fill="#211715"/>
    <path d="M78.6922 26.2595C78.9146 26.0902 79.1729 25.9804 79.4449 25.9397C79.7168 25.899 79.9941 25.9286 80.2527 26.0259C80.4383 26.0853 80.6087 26.1878 80.7512 26.3259C80.7778 26.3509 80.9305 26.5357 80.8242 26.3927C80.8767 26.4657 80.9235 26.5431 80.9641 26.6241C81.4328 27.5325 81.2381 28.902 80.9511 29.8633C80.6401 30.9129 80.0571 31.8512 79.2673 32.5733C78.6073 33.1542 77.3898 33.653 76.4987 33.2543C76.3049 33.1441 76.0784 33.1154 75.8652 33.1741C75.652 33.2327 75.4681 33.3743 75.3508 33.5701C75.2401 33.772 75.2096 34.0116 75.2659 34.2369C75.3222 34.4622 75.4608 34.6552 75.6517 34.7742C76.2573 35.0193 76.9054 35.1274 77.5536 35.0915C78.2018 35.0556 78.8354 34.8765 79.413 34.5658C80.495 34.0388 81.3563 32.9554 81.9191 31.8775C82.4987 30.7933 82.8311 29.5829 82.8902 28.3412C82.9395 27.2124 82.7503 25.9485 81.9652 25.1116C81.4182 24.5724 80.7139 24.2425 79.9661 24.175C79.2183 24.1075 78.4706 24.3065 77.8439 24.7397C77.6562 24.8617 77.5203 25.0546 77.4643 25.2787C77.4083 25.5027 77.4364 25.7408 77.5429 25.9438C77.6564 26.1439 77.8405 26.2892 78.0552 26.3483C78.27 26.4074 78.4983 26.3755 78.6908 26.2595H78.6922Z" fill="#211715"/>
    <path d="M67.8442 26.9623C68.1057 27.7324 68.0295 29.5406 66.6235 29.7569C64.7561 29.8303 64.5681 27.658 65.1554 26.6069C65.635 25.7461 67.1335 25.3302 67.8442 26.9623Z" fill="#211715"/>
    <path d="M56.5993 27.1279C56.8419 27.8776 56.7782 29.6292 55.489 29.8338C53.7762 29.8966 53.5955 27.7895 54.1299 26.7725C54.5676 25.9396 55.9414 25.5417 56.5993 27.1279Z" fill="#211715"/>
    <path d="M59.4721 30.6018C59.2122 31.1058 58.9771 31.6235 58.7678 32.1528L58.8523 31.9426C58.728 32.1887 58.6564 32.4604 58.6426 32.7385C58.6413 32.9109 58.6772 33.0814 58.7475 33.2373C58.8179 33.3931 58.9209 33.5303 59.0488 33.6385C59.2412 33.8178 59.4732 33.9439 59.7238 34.0053C59.8874 34.0376 60.0482 34.042 60.2132 34.0581C60.3235 34.0584 60.4327 34.0359 60.5347 33.9918C60.6367 33.9478 60.7294 33.883 60.8075 33.8014C60.9648 33.6363 61.0532 33.4124 61.0532 33.179C61.0532 32.9456 60.9648 32.7217 60.8075 32.5566C60.6436 32.4015 60.4336 32.3108 60.2132 32.2999C60.1325 32.2914 60.051 32.2933 59.9706 32.2823L60.1936 32.3138C60.1363 32.3045 60.0801 32.2883 60.0262 32.2658L60.2268 32.3545C60.1703 32.3278 60.1165 32.295 60.0664 32.2566L60.2363 32.3941C60.199 32.3646 60.1639 32.3321 60.1314 32.2969L60.2628 32.4752C60.247 32.4534 60.2339 32.4294 60.224 32.404L60.3083 32.6145C60.3027 32.5972 60.2985 32.5794 60.2957 32.5614L60.3258 32.7954C60.3217 32.7572 60.3217 32.7187 60.3258 32.6806L60.2961 32.9146C60.3097 32.8327 60.3324 32.7528 60.3639 32.6765L60.2793 32.887C60.324 32.7778 60.3682 32.6677 60.4118 32.557L60.3272 32.7671C60.504 32.3314 60.7117 31.9067 60.9214 31.489C61.0311 31.2825 61.0614 31.0399 61.006 30.8108C60.9622 30.6438 60.8724 30.494 60.7479 30.3803C60.6233 30.2666 60.4695 30.1939 60.3058 30.1715C60.142 30.149 59.9756 30.1778 59.8274 30.2541C59.6792 30.3305 59.5557 30.451 59.4725 30.6007L59.4721 30.6018Z" fill="#211715"/>
    <path d="M63.1258 40.2224C63.4125 39.9582 63.675 39.6663 63.9098 39.3506C64.13 39.0495 64.3286 38.7318 64.5041 38.4C64.9152 37.6059 65.4406 36.3241 64.473 35.7197C63.9983 35.4234 63.346 35.5638 62.8216 35.6097C62.2662 35.657 61.7118 35.7138 61.1581 35.7758C60.5348 35.8462 59.9122 35.9225 59.2914 36.0172C59.0771 36.0797 58.8952 36.2287 58.7854 36.4316C58.6756 36.6345 58.6469 36.8748 58.7055 37.0998C58.7705 37.3209 58.9135 37.5077 59.1052 37.622C59.297 37.7363 59.5231 37.7695 59.7374 37.7149C59.8 37.7053 59.8626 37.6973 59.9248 37.6874C59.6693 37.7288 59.8465 37.6984 59.907 37.6903C60.0389 37.6722 60.1709 37.6548 60.303 37.6382C60.5988 37.6008 60.8947 37.5656 61.1909 37.5326C61.7932 37.4651 62.3959 37.4039 62.9996 37.3554C63.239 37.3364 63.4788 37.3188 63.719 37.3074C63.7602 37.3027 63.8016 37.3009 63.8431 37.3023C63.7577 37.2988 63.6747 37.272 63.6021 37.2247C63.5295 37.1774 63.47 37.1111 63.4292 37.0323C63.375 36.9256 63.353 36.8041 63.3659 36.6839C63.3341 36.7667 63.3107 36.8527 63.296 36.9406C63.2785 36.9971 63.261 37.0536 63.2401 37.1094C63.203 37.2076 63.1985 37.2194 63.2271 37.1486C63.0597 37.5344 62.855 37.9011 62.6161 38.243C62.5658 38.3164 62.5161 38.3926 62.4619 38.4631C62.5535 38.3435 62.392 38.5364 62.3725 38.5591C62.2354 38.7058 62.0848 38.8393 61.9404 38.9787C61.7847 39.1447 61.6974 39.3682 61.6974 39.6011C61.6974 39.834 61.7847 40.0575 61.9404 40.2235C62.1 40.3839 62.3125 40.4735 62.5336 40.4735C62.7547 40.4735 62.9672 40.3839 63.1268 40.2235L63.1258 40.2224Z" fill="#211715"/>
    <path d="M69.5133 113.731C72.2504 112.532 74.9637 111.274 77.6784 110.019C80.8131 108.573 83.9435 107.117 87.0698 105.65C88.1185 105.159 89.1648 104.67 90.2068 104.168C90.3976 104.049 90.5362 103.856 90.5925 103.63C90.6488 103.405 90.6184 103.166 90.5078 102.964C90.3921 102.766 90.2082 102.623 89.9944 102.564C89.7806 102.505 89.5534 102.535 89.3602 102.648C83.8895 105.283 78.3674 107.809 72.8481 110.329C72.1087 110.667 71.3686 111.003 70.628 111.337C70.3185 111.477 70.0088 111.616 69.6989 111.754C69.629 111.785 69.2238 111.965 69.4329 111.872L69.0672 112.033C68.8567 112.102 68.6789 112.252 68.5701 112.453C68.4612 112.654 68.4295 112.891 68.4813 113.116C68.5416 113.341 68.6837 113.531 68.8769 113.646C69.0701 113.761 69.2987 113.792 69.5133 113.731Z" fill="#211715"/>
    <path d="M14.1752 77.8651C24.9376 78.0525 49.5064 78.1112 58.2791 78.1728C58.929 78.1767 59.561 78.3968 60.0841 78.8015C60.6072 79.2061 60.9945 79.7744 61.1903 80.4247C63.2779 87.3512 67.9719 103.032 70.1808 110.446C70.2734 110.756 70.2949 111.084 70.2437 111.405C70.1925 111.725 70.07 112.028 69.8861 112.29C69.7022 112.551 69.4621 112.764 69.1853 112.909C68.9085 113.055 68.6028 113.131 68.2931 113.129C58.7867 113.092 33.1748 112.997 23.3279 112.788C22.9144 112.78 22.5139 112.635 22.1836 112.374C21.8532 112.113 21.6097 111.749 21.4878 111.335C19.5463 104.746 14.5601 88.1438 12.2627 80.5596C12.1678 80.2468 12.1453 79.9147 12.197 79.5909C12.2487 79.2671 12.3732 78.9609 12.56 78.6975C12.7469 78.4342 12.9909 78.2214 13.2718 78.0766C13.5527 77.9318 13.8623 77.8593 14.1752 77.8651Z" fill="white"/>
    <path d="M14.1749 78.7451C19.2017 78.832 24.2291 78.8661 29.2562 78.8998C35.1289 78.9399 41.0016 78.9715 46.8743 78.9945C49.3445 79.0059 51.8148 79.0176 54.2851 79.0293C55.2499 79.0344 56.2147 79.0398 57.1795 79.0454C58.2519 79.052 59.3541 78.9842 60.0634 80.0071C60.3494 80.5122 60.5562 81.0622 60.6758 81.6362C60.8408 82.1837 61.0056 82.7312 61.1701 83.2789C61.563 84.586 61.9556 85.8932 62.3478 87.2003C63.2592 90.2382 64.1696 93.2763 65.0789 96.3146C65.9752 99.3083 66.8707 102.302 67.7653 105.297C68.1429 106.559 68.5199 107.822 68.8965 109.085C69.1678 109.995 69.9638 111.573 68.7833 112.139C68.3855 112.33 67.8744 112.247 67.4448 112.246L66.0553 112.24L62.8491 112.227C60.2944 112.217 57.7396 112.206 55.1845 112.194C49.3724 112.166 43.5602 112.129 37.7478 112.084C33.0319 112.047 28.3155 112.008 23.6003 111.912C23.0759 111.901 22.5771 111.77 22.3362 111.218C22.1685 110.761 22.0284 110.293 21.9167 109.817C21.5798 108.679 21.2419 107.542 20.903 106.406C20.0571 103.566 19.2082 100.727 18.3564 97.8879C16.6843 92.3084 15.0064 86.7311 13.3227 81.1561C13.1755 80.6698 12.9032 80.1072 13.0525 79.6007C13.1251 79.3492 13.2741 79.1295 13.4767 78.9751C13.6793 78.8206 13.9245 78.7398 14.1749 78.7451C15.2537 78.73 15.2568 76.9696 14.1749 76.9846C13.7553 76.9859 13.3412 77.0846 12.9623 77.2736C12.5834 77.4627 12.249 77.7373 11.9832 78.078C11.7174 78.4186 11.5267 78.8167 11.4249 79.2438C11.323 79.6708 11.3125 80.1162 11.3941 80.548C11.5322 81.1216 11.6983 81.6873 11.8919 82.2428C12.0751 82.8487 12.2582 83.4547 12.4411 84.0608C13.3162 86.959 14.189 89.8579 15.0597 92.7577C16.7854 98.5024 18.5037 104.249 20.2147 109.998C20.5992 111.299 20.8611 112.735 22.159 113.376C23.1402 113.861 24.4455 113.691 25.5117 113.709C27.9043 113.748 30.2973 113.778 32.6907 113.8C38.6025 113.86 44.5144 113.903 50.4262 113.93C55.662 113.958 60.8979 113.982 66.1339 114.001L67.5504 114.007C68.1494 114.06 68.7526 113.99 69.3262 113.8C69.7233 113.635 70.0797 113.377 70.3689 113.047C70.6581 112.717 70.8727 112.322 70.9967 111.893C71.2246 111.105 71.0373 110.37 70.8121 109.615C70.0042 106.905 69.1949 104.195 68.3844 101.487C66.5616 95.3903 64.7352 89.2951 62.9053 83.2008C62.5509 82.0217 62.2828 80.7358 61.7815 79.6154C61.0712 78.0273 59.5631 77.2997 57.9604 77.289C55.8705 77.2746 53.7805 77.2632 51.6906 77.2549C45.8878 77.2275 40.085 77.1992 34.2823 77.1698C28.6225 77.1372 22.9623 77.1024 17.3025 77.0297C16.2594 77.0165 15.2163 77.0011 14.1732 76.9835C13.0948 76.9656 13.0944 78.726 14.1749 78.7451Z" fill="#211715"/>
    <path d="M67.788 14.4769C68.4854 16.6591 69.2852 18.933 70.4772 20.8786C71.5815 22.6816 73.0357 24.6533 74.9073 25.6248C75.1007 25.7368 75.3277 25.7665 75.5414 25.7077C75.7551 25.649 75.9391 25.5062 76.0552 25.3091C76.1654 25.1069 76.1956 24.8675 76.1393 24.6423C76.083 24.4171 75.9448 24.224 75.7543 24.1046C74.0973 23.2446 72.8291 21.4889 71.8622 19.8869C70.7785 18.0898 70.0473 16.0165 69.4062 14.0104C69.0646 12.9416 67.4433 13.4001 67.788 14.4784V14.4769Z" fill="#211715"/>
    <path d="M67.971 13.5285C66.7347 15.024 65.2842 16.3084 63.6713 17.3358C62.8282 17.8796 61.9533 18.3675 61.052 18.7965C60.6288 18.9988 60.1996 19.1859 59.7642 19.3581C59.2833 19.585 58.7817 19.7603 58.267 19.881H58.7131C58.8788 20.3945 58.9745 20.5209 59.0001 20.2603C59.0099 20.2034 59.0193 20.1462 59.0287 20.0894C59.0521 19.9478 59.0745 19.806 59.0962 19.6639C59.1389 19.3826 59.1777 19.101 59.2144 18.8204C59.2906 18.2336 59.355 17.646 59.4077 17.0578C59.4755 16.2989 58.4425 15.8944 57.9745 16.4343C55.4648 19.32 52.5024 21.7331 49.2158 23.5688C48.2611 24.0991 49.1081 25.619 50.0628 25.089C51.7588 24.1197 53.3722 22.9991 54.885 21.7394C56.4208 20.5193 57.8516 19.1601 59.1609 17.6776L57.7277 17.0541C57.6536 17.8848 57.556 18.7115 57.4228 19.5341C57.3449 20.0138 57.2096 20.4877 57.4435 20.9465C57.5277 21.1085 57.6451 21.249 57.7871 21.3579C57.9291 21.4668 58.0922 21.5415 58.2649 21.5766C58.6472 21.6135 59.0318 21.5411 59.378 21.3671C59.7492 21.2349 60.1173 21.0934 60.4822 20.9428C61.1625 20.6626 61.834 20.356 62.4908 20.0211C65.0296 18.7647 67.2977 16.9784 69.1563 14.7714C69.3086 14.6035 69.3935 14.3807 69.3935 14.149C69.3935 13.9173 69.3086 13.6945 69.1563 13.5266C68.9981 13.3634 68.785 13.272 68.5631 13.272C68.3412 13.272 68.1282 13.3634 67.9699 13.5266L67.971 13.5285Z" fill="#211715"/>
    <path d="M80.1158 43.8169C79.336 43.5117 78.5769 43.1513 77.8436 42.7383C77.1445 42.3488 76.5321 41.9497 76.1741 41.3145C76.1197 41.2212 76.0715 41.1241 76.0301 41.0237C76.0895 41.1762 75.9986 40.9026 75.9983 40.9008C75.934 40.6852 75.8861 40.464 75.8427 40.2432C75.834 40.1974 75.7728 40.0232 75.7934 39.9755C75.7693 40.0276 75.8183 40.1933 75.8036 40.0807C75.7934 40.003 75.7854 39.9249 75.776 39.8471L75.633 38.6317C75.6264 38.4004 75.5359 38.1805 75.38 38.0169C75.224 37.8533 75.0145 37.7584 74.794 37.7515C74.5719 37.7527 74.3592 37.8459 74.2021 38.0107C74.045 38.1755 73.9563 38.3986 73.9551 38.6317C74.0984 39.8478 74.1299 41.2214 74.772 42.2827C75.3174 43.1111 76.0579 43.7773 76.9215 44.2163C77.8078 44.7155 78.7262 45.1493 79.6701 45.5142C79.8846 45.5742 80.1129 45.5434 80.306 45.4284C80.499 45.3135 80.6412 45.1235 80.702 44.8996C80.7564 44.6746 80.7259 44.4364 80.6167 44.2346C80.5075 44.0328 80.3278 43.8831 80.1158 43.8169Z" fill="#211715"/>
    <path d="M56.1004 47.6246C56.3018 48.5066 56.6716 49.3366 57.1873 50.0644C57.7031 50.7922 58.3541 51.4028 59.1011 51.8592C60.7598 52.9257 62.7789 53.2422 64.6942 53.185C68.3412 53.075 71.863 51.7547 74.9364 49.7302C76.6647 48.5737 78.283 47.2457 79.7691 45.7644C80.5588 44.988 79.3706 43.7451 78.5827 44.5197C76.2371 46.8258 73.5689 48.8738 70.5592 50.1145C69.0576 50.7479 67.4803 51.1622 65.8715 51.3457C64.1803 51.5225 62.3989 51.4891 60.8045 50.8026C59.3014 50.1549 58.0549 48.8569 57.7186 47.1574C57.4991 46.0487 55.8813 46.5181 56.1004 47.6254V47.6246Z" fill="#211715"/>
    <path d="M102.455 36.5514C102.304 36.2815 102.257 35.9606 102.326 35.6558C102.657 33.9793 103.142 32.3403 103.774 30.7618C103.774 30.7618 103.873 30.6085 104.007 30.3979C105.814 31.3999 107.712 32.2082 109.674 32.8105C109.666 33.0632 109.661 33.2506 109.661 33.2506C109.805 33.6074 108.688 36.4868 108.112 37.6627C108.011 37.8701 107.88 38.0596 107.723 38.2245C107.401 38.4653 107.015 38.5936 106.62 38.5913C105.532 38.2581 104.47 37.8364 103.445 37.33C103.07 37.174 102.739 36.9218 102.481 36.5965C102.472 36.5815 102.464 36.5653 102.455 36.5514Z" fill="white"/>
    <path d="M114.61 19.7654C114.76 19.9418 114.908 20.1321 115.051 20.3375C115.802 21.3538 116.272 22.5674 116.409 23.8453C116.547 25.1232 116.346 26.4162 115.829 27.5824C115.382 28.6597 114.731 29.6311 113.918 30.4387C113.325 31.0697 112.655 31.6147 111.925 32.0591C111.324 32.4188 110.685 32.7043 110.022 32.91C107.786 32.2632 105.632 31.3388 103.605 30.1563C102.544 29.1169 102.032 26.6443 102.102 25.3056C102.128 24.326 102.293 23.3559 102.591 22.4273C102.95 21.4081 103.495 20.4719 104.195 19.6711C105.103 18.5668 106.31 17.7787 107.656 17.4115C109.134 17.105 110.665 17.2489 112.067 17.8263C113.041 18.2679 113.909 18.9301 114.61 19.7654Z" fill="#FFDA71"/>
    <path d="M114.017 20.3875C114.799 21.2985 115.315 22.4266 115.503 23.637C115.691 24.8474 115.542 26.0889 115.076 27.2132C114.574 28.3678 113.844 29.3973 112.934 30.2332C112.024 31.0691 110.955 31.6924 109.797 32.0617H110.243C108.447 31.5625 106.706 30.8658 105.05 29.9833C104.658 29.8332 104.299 29.6037 103.992 29.3081C103.763 28.9915 103.58 28.6416 103.447 28.2694C103.134 27.4469 102.961 26.5734 102.935 25.6882C102.877 23.7086 103.539 21.7801 104.787 20.2939C105.981 18.9311 107.493 18.0714 109.297 18.1172C109.689 18.1257 110.079 18.1718 110.464 18.2548C110.681 18.2981 110.896 18.3483 111.109 18.411C111.252 18.4528 111.393 18.4997 111.533 18.5515C111.637 18.5899 111.74 18.6312 111.843 18.6755C111.692 18.6082 111.66 18.5942 111.746 18.6333C112.6 19.0665 113.37 19.6615 114.018 20.3882C114.746 21.2281 115.93 19.9804 115.205 19.1434C112.936 16.527 109.142 15.5492 106.043 17.0896C104.853 17.7175 103.822 18.6345 103.037 19.7644C101.895 21.3996 101.273 23.3704 101.259 25.3974C101.202 27.0636 101.63 28.7086 102.484 30.1142C102.716 30.4953 103.028 30.8151 103.397 31.0487C103.779 31.2787 104.171 31.4888 104.568 31.6913C105.416 32.1204 106.286 32.5029 107.166 32.8528C107.893 33.1418 108.629 33.4106 109.376 33.6369C109.72 33.778 110.099 33.7967 110.454 33.6901C112.426 33.0245 114.156 31.7398 115.411 30.0097C116.642 28.4183 117.305 26.4261 117.286 24.3767C117.19 22.4324 116.454 20.5832 115.204 19.1445C114.492 18.2878 113.309 19.5373 114.017 20.3875Z" fill="#211715"/>
    <path d="M103.091 34.5346C104.775 35.3065 106.498 35.9828 108.251 36.5606C108.466 36.6206 108.694 36.5898 108.887 36.4748C109.08 36.3598 109.222 36.1699 109.283 35.9459C109.338 35.721 109.307 35.4827 109.198 35.2809C109.089 35.0791 108.909 34.9295 108.697 34.8632C107.881 34.5944 107.073 34.2995 106.271 33.9881C105.844 33.8224 105.419 33.6512 104.995 33.4747C104.791 33.3896 104.587 33.3028 104.384 33.2143L104.236 33.1497C104.314 33.1845 104.309 33.1818 104.219 33.1417C104.125 33.0995 104.031 33.0573 103.939 33.0144C103.746 32.9027 103.519 32.8731 103.305 32.9319C103.091 32.9907 102.907 33.1332 102.791 33.3302C102.681 33.5323 102.651 33.7716 102.707 33.9966C102.764 34.2217 102.902 34.4147 103.092 34.5343L103.091 34.5346Z" fill="#211715"/>
    <path d="M103.052 30.3177C102.515 31.3234 102.229 32.5531 101.929 33.653C101.761 34.2341 101.624 34.8248 101.519 35.4223C101.425 35.9251 101.495 36.4463 101.716 36.903C101.937 37.3597 102.298 37.7257 102.74 37.9426C103.367 38.2786 104.013 38.5738 104.674 38.8265C105.228 39.0899 105.806 39.2959 106.399 39.4415C106.811 39.5058 107.232 39.4527 107.618 39.2878C108.004 39.123 108.34 38.8525 108.593 38.5045C108.913 37.9975 109.178 37.4536 109.381 36.8834C109.679 36.1609 109.966 35.4314 110.211 34.6869C110.371 34.1988 110.633 33.5375 110.473 33.0171C110.142 31.9436 108.521 32.4027 108.854 33.4854C108.864 33.5166 108.837 33.2012 108.833 33.4121C108.836 33.2782 108.857 33.2654 108.817 33.4436C108.771 33.6523 108.709 33.8569 108.645 34.0601C108.479 34.5849 108.287 35.101 108.085 35.6122C107.932 36.005 107.722 36.5079 107.511 36.9641C107.417 37.1784 107.301 37.3817 107.167 37.5707C107.202 37.5285 107.332 37.4787 107.188 37.5421C107.136 37.5649 107.087 37.6019 107.036 37.6272C106.813 37.7372 106.939 37.6694 106.962 37.6606C106.954 37.6635 106.728 37.7592 106.797 37.7226C106.709 37.7695 106.68 37.7156 106.787 37.7339C106.744 37.7259 106.702 37.7154 106.661 37.7024C106.549 37.6686 106.437 37.636 106.326 37.5986C106.034 37.501 105.747 37.3884 105.462 37.2729C104.93 37.0569 104.483 36.8614 103.976 36.623C103.726 36.5261 103.491 36.3901 103.28 36.2196C103.131 36.0784 103.124 35.9867 103.16 35.7531C103.255 35.219 103.379 34.6911 103.533 34.1724C103.706 33.5317 103.897 32.896 104.104 32.2652C104.184 32.0224 104.266 31.7807 104.355 31.5416C104.374 31.4899 104.395 31.4389 104.414 31.3872C104.386 31.4605 104.352 31.5258 104.403 31.4136C104.435 31.3447 104.464 31.2753 104.5 31.2082C105.028 30.218 103.579 29.3301 103.051 30.3196L103.052 30.3177Z" fill="#211715"/>
    <path d="M118.948 14.3494C118.336 14.8384 117.722 15.3242 117.105 15.8069C116.921 15.9286 116.785 16.1151 116.72 16.3328C116.662 16.5618 116.693 16.8056 116.805 17.0113C116.916 17.2085 117.096 17.353 117.306 17.4147C117.414 17.4473 117.527 17.4563 117.638 17.441C117.749 17.4258 117.856 17.3866 117.952 17.326C118.569 16.8438 119.184 16.3578 119.796 15.8681C119.978 15.7446 120.114 15.5588 120.18 15.3422C120.238 15.1133 120.208 14.8696 120.096 14.664C119.984 14.4667 119.805 14.3221 119.594 14.2606C119.486 14.2276 119.373 14.2185 119.262 14.2337C119.151 14.249 119.044 14.2884 118.948 14.3494Z" fill="#211715"/>
    <path d="M114.849 13.725C114.949 13.4507 115.053 13.1782 115.162 12.9075L115.077 13.1177C115.227 12.7458 115.386 12.3779 115.553 12.0141C115.661 11.807 115.691 11.5649 115.637 11.3356C115.578 11.1153 115.44 10.9271 115.253 10.8097C115.156 10.7508 115.049 10.7127 114.938 10.6975C114.827 10.6822 114.714 10.6902 114.606 10.7209C114.395 10.7807 114.215 10.9257 114.105 11.1244C113.785 11.8212 113.495 12.5334 113.231 13.256C113.201 13.3693 113.194 13.4876 113.208 13.6041C113.223 13.7206 113.259 13.8329 113.316 13.9345C113.428 14.136 113.612 14.2825 113.827 14.3417C114.042 14.4009 114.271 14.368 114.463 14.2502L114.633 14.1123C114.736 14.0048 114.81 13.8709 114.849 13.7239V13.725Z" fill="#211715"/>
    <path d="M110.544 12.8776C110.44 12.0675 110.316 11.2584 110.146 10.4603C110.085 10.2362 109.943 10.0461 109.75 9.93106C109.557 9.81604 109.329 9.78535 109.114 9.84564C108.902 9.91204 108.723 10.0617 108.614 10.2635C108.505 10.4652 108.474 10.7034 108.528 10.9283C108.698 11.7264 108.821 12.5354 108.926 13.3456C108.984 13.5668 109.122 13.7555 109.311 13.8715C109.507 13.9892 109.739 14.0211 109.958 13.9603C110.168 13.8985 110.347 13.754 110.459 13.5569L110.543 13.3467C110.583 13.1935 110.583 13.0319 110.543 12.8787L110.544 12.8776Z" fill="#211715"/>
    <path d="M112.603 27.6354C112.546 26.7587 112.202 25.9296 111.629 25.2882C111.105 24.6489 110.39 23.9389 109.574 23.7918C107.844 23.4805 106.174 25.1375 106.742 26.987C106.864 27.3833 107.08 27.7403 107.37 28.0246C107.661 28.3088 108.015 28.5107 108.4 28.6114C108.79 28.7394 109.207 28.7463 109.601 28.6312C110.023 28.4677 110.398 28.1933 110.69 27.8342C110.977 27.5036 111.181 27.1027 111.282 26.6683C111.384 26.2339 111.38 25.7797 111.271 25.3472C111.039 24.564 110.579 23.8765 109.956 23.3814C109.579 23.0378 109.141 22.7758 108.667 22.6106C108.193 22.4454 107.693 22.3803 107.195 22.4191C106.703 22.4879 106.23 22.6591 105.803 22.9226C105.375 23.186 105.002 23.5364 104.706 23.9532C104.555 24.1217 104.471 24.3443 104.471 24.5756C104.471 24.8069 104.555 25.0295 104.706 25.198C104.864 25.3617 105.077 25.4535 105.299 25.4535C105.521 25.4535 105.734 25.3617 105.892 25.198C106.496 24.3911 107.288 23.8733 108.269 24.3214C108.718 24.5253 109.106 24.8517 109.394 25.2666C109.371 25.2343 109.507 25.4602 109.528 25.4984C109.559 25.5543 109.587 25.6118 109.612 25.6707C109.604 25.6506 109.582 25.5875 109.612 25.681C109.637 25.7544 109.687 25.9744 109.686 25.9722C109.682 25.9238 109.655 26.2916 109.679 26.1776C109.665 26.2668 109.637 26.3528 109.594 26.4318C109.561 26.4989 109.521 26.5624 109.476 26.6214C109.408 26.7004 109.336 26.7745 109.259 26.8433C109.254 26.8473 108.962 27.0072 109.079 26.9606C109.245 26.8942 108.937 26.9423 109.028 26.9562C108.922 26.9365 108.818 26.9088 108.716 26.8733C108.577 26.8289 108.821 26.9353 108.688 26.8627C108.635 26.8347 108.583 26.8034 108.534 26.7692C108.553 26.7827 108.398 26.6133 108.452 26.6932C108.369 26.5726 108.318 26.4307 108.306 26.2825C108.298 26.1462 108.328 26.0104 108.39 25.8908C108.433 25.838 108.482 25.7936 108.527 25.7441C108.538 25.7312 108.621 25.6656 108.542 25.7276C108.453 25.7976 108.58 25.7048 108.602 25.6909L108.735 25.6124C108.849 25.5435 108.627 25.6491 108.756 25.5981C108.795 25.5827 108.835 25.5684 108.874 25.5556C108.929 25.5387 108.985 25.5233 109.041 25.5119C108.906 25.5398 109.159 25.5083 109.17 25.5079C109.358 25.5237 109.534 25.6094 109.667 25.7496C109.907 25.9532 110.133 26.1753 110.342 26.4141C110.515 26.606 110.662 26.8229 110.777 27.0582C110.866 27.2377 110.917 27.435 110.927 27.6369C110.931 27.8689 111.021 28.0901 111.177 28.2541C111.334 28.4182 111.545 28.5124 111.766 28.5171C111.987 28.5149 112.2 28.4215 112.357 28.2569C112.513 28.0923 112.603 27.8697 112.605 27.6369L112.603 27.6354Z" fill="#211715"/>
    <path d="M43.5396 60.3339C44.3678 58.6245 44.7802 56.7267 44.74 54.8095C44.697 53.049 44.3264 50.9464 43.2599 49.533C41.9546 47.803 39.9324 48.4286 38.3069 49.2139C36.7447 49.9687 35.0693 51.4456 35.5255 53.4748C35.6298 53.9556 35.87 54.3922 36.2147 54.7273C36.5595 55.0624 36.9926 55.2805 37.4575 55.353C37.994 55.3786 38.5295 55.282 39.027 55.0699L40.6934 54.5047C41.7166 54.1574 41.2789 52.4571 40.2474 52.807C39.5213 53.0534 38.7984 53.3307 38.0629 53.5442C37.6477 53.6645 37.3351 53.5907 37.175 53.1279C36.751 51.9011 38.5034 51.0403 39.2931 50.6677C39.8241 50.374 40.4072 50.1983 41.0059 50.1517C41.5977 50.1495 41.9459 50.5309 42.2116 51.0488C42.7859 52.2653 43.0786 53.6068 43.0659 54.9642C43.0878 56.5183 42.7537 58.0552 42.0917 59.4457C41.6068 60.4546 43.0537 61.3469 43.5406 60.3339H43.5396Z" fill="#211715"/>
    <path d="M42.0526 60.6115C42.5572 61.8591 42.9771 63.1425 43.3093 64.4522C43.3684 64.6773 43.5104 64.8686 43.7039 64.9839C43.8975 65.0992 44.1268 65.1291 44.3414 65.0671C44.5559 65.005 44.7382 64.856 44.8481 64.653C44.958 64.4499 44.9866 64.2093 44.9274 63.9842C44.5947 62.6745 44.1741 61.3911 43.669 60.1435C43.6037 59.9262 43.4676 59.74 43.2845 59.6176C43.0885 59.4997 42.856 59.4678 42.6378 59.5288C42.2487 59.6609 41.8726 60.156 42.0519 60.6115H42.0526Z" fill="#211715"/>
    <path d="M44.8185 63.1413C41.2962 64.6589 37.5608 65.6132 33.947 66.8507C33.7345 66.916 33.5545 67.0656 33.4452 67.2676C33.3359 67.4697 33.3057 67.7084 33.3611 67.9333C34.2619 71.1179 35.2575 74.2621 36.409 77.359C36.4739 77.5796 36.6166 77.7659 36.808 77.8799C36.9994 77.9938 37.225 78.0269 37.4388 77.9722C37.6525 77.9088 37.8337 77.7596 37.9434 77.557C38.053 77.3543 38.0822 77.1146 38.0247 76.8896C36.8711 73.7941 35.8776 70.6499 34.9765 67.4639L34.3916 68.5466C38.0068 67.3095 41.7423 66.3548 45.2631 64.8376C45.4738 64.7691 45.6517 64.619 45.7606 64.4178C45.8695 64.2166 45.9013 63.9794 45.8493 63.7545C45.7889 63.5302 45.6467 63.3399 45.4535 63.2248C45.2603 63.1098 45.0316 63.0792 44.8171 63.1398L44.8185 63.1413Z" fill="#211715"/>
    <path d="M35.4747 46.2591C34.8517 44.7235 34.2113 43.1942 33.609 41.6497C33.3902 41.0886 33.1483 40.4028 33.4129 39.8079C33.5734 39.4463 34.003 39.5116 34.2959 39.6612C34.7189 39.8772 34.9709 40.383 35.2048 40.7853C35.4722 41.247 35.7159 41.7235 35.949 42.205C36.479 43.2991 36.9582 44.4217 37.4018 45.5572C37.8685 46.7499 38.3072 47.9576 38.6774 49.1881C39.0011 50.2645 40.6217 49.805 40.2952 48.7201C39.4795 45.993 38.4278 43.3499 37.1533 40.8238C36.545 39.6263 35.8151 38.1549 34.4267 37.8615C34.0443 37.7554 33.642 37.7572 33.2605 37.8666C32.8789 37.9761 32.5318 38.1895 32.2541 38.485C32.0047 38.8157 31.8232 39.197 31.721 39.6048C31.6187 40.0127 31.5979 40.4383 31.6599 40.855C31.7846 41.9351 32.3279 42.9539 32.7288 43.9445C33.1614 45.013 33.594 46.0811 34.0268 47.1489C34.14 47.3494 34.324 47.495 34.5389 47.5541C34.7538 47.6133 34.9823 47.5811 35.1747 47.4647C35.3625 47.3427 35.4985 47.1497 35.5545 46.9255C35.6105 46.7014 35.5823 46.4632 35.4757 46.2602L35.4747 46.2591Z" fill="#211715"/>
    <path d="M33.0981 57.5494C34.0486 58.3353 35.4825 59.6076 36.7503 58.9174C37.0105 58.7574 37.2379 58.545 37.4195 58.2924C37.601 58.0398 37.7332 57.7521 37.8084 57.4457C37.8835 57.1393 37.9002 56.8203 37.8573 56.5072C37.8145 56.194 37.7131 55.8928 37.5589 55.621C37.0568 54.951 36.4756 54.3507 35.8292 53.8345C34.9751 53.0692 33.9722 52.5086 32.8904 52.1918C31.9414 51.8896 30.6281 51.8804 29.9398 52.7507C29.2186 53.6621 28.6251 54.9733 28.7212 56.1876C28.8215 57.4555 29.4406 58.4457 30.2404 59.3498C31.0213 60.258 31.8515 61.1181 32.7269 61.9259C33.2007 62.2902 33.6056 62.7441 33.921 63.2642C34.1014 63.634 34.2552 64.0174 34.381 64.4114C34.6771 65.2487 34.9606 66.0985 35.185 66.9622C35.4688 68.054 37.0877 67.5904 36.8028 66.4942C36.4657 65.1384 36.0133 63.817 35.451 62.5461C35.048 61.6658 34.3174 61.0519 33.6298 60.4255C32.9204 59.7617 32.2468 59.0569 31.6121 58.3144C31.0507 57.6755 30.5145 57.1115 30.3991 56.1872C30.378 55.7426 30.4579 55.2991 30.6323 54.8933C30.7533 54.5072 30.9579 54.1557 31.23 53.8664C31.151 53.932 31.3506 53.8084 31.2797 53.8407C31.2706 53.8451 31.5132 53.7784 31.4775 53.7842C31.6604 53.7591 31.8456 53.7591 32.0284 53.7842C32.4152 53.8622 32.7934 53.9814 33.1572 54.14C33.7931 54.4074 34.3756 54.7975 34.8746 55.2901C35.1941 55.5835 35.5118 55.8806 35.8132 56.1942C35.945 56.3193 36.0669 56.4556 36.1774 56.6017C36.0921 56.477 36.1956 56.675 36.1977 56.8107C36.2022 57.0847 36.104 57.3587 35.8726 57.3377C35.5913 57.2446 35.3292 57.0971 35.0997 56.9028C34.8173 56.7196 34.5451 56.5195 34.2845 56.3035C34.1239 56.1451 33.9117 56.0569 33.6913 56.0569C33.4709 56.0569 33.2587 56.1451 33.0981 56.3035C32.9421 56.4694 32.8546 56.693 32.8546 56.9261C32.8546 57.1591 32.9421 57.3827 33.0981 57.5486V57.5494Z" fill="#211715"/>
    <path d="M32.2535 52.1455C32.3905 52.3241 32.2699 52.1572 32.2437 52.1088C32.2318 52.0872 32.142 51.8756 32.2035 52.0432C32.1748 51.9656 32.1504 51.8864 32.1304 51.8059C32.1262 51.789 32.0916 51.5359 32.1042 51.6977C32.0963 51.6089 32.0957 51.5196 32.1025 51.4307C32.0902 51.5745 32.1241 51.3518 32.1329 51.3207C32.1392 51.2968 32.1937 51.094 32.158 51.2194C32.1231 51.3357 32.1958 51.1497 32.2073 51.1237C32.2209 51.0985 32.2357 51.074 32.2517 51.0504C32.1769 51.1469 32.1604 51.1714 32.2021 51.1237C32.237 51.1028 32.3286 50.9583 32.2472 51.0724C32.1748 51.174 32.2381 51.0724 32.2881 51.0573C32.451 51.0052 32.1224 51.1101 32.28 51.0573C32.3929 51.0206 32.5132 50.9924 32.6244 50.9502C32.5344 50.9568 32.5219 50.9578 32.5869 50.9532C32.6264 50.9495 32.6659 50.9477 32.7058 50.9477C32.7841 50.9477 32.8628 50.951 32.9411 50.9561C33.2254 50.9744 33.5068 51.0265 33.78 51.1112C34.088 51.1938 34.3918 51.2832 34.692 51.3933C34.87 51.4586 34.6396 51.3566 34.7917 51.4384C34.8637 51.4773 34.9357 51.5147 35.0056 51.5583C35.0105 51.5616 35.2202 51.7094 35.1003 51.613C35.1633 51.665 35.2227 51.7217 35.2779 51.7828C35.3031 51.8099 35.4321 51.9926 35.3447 51.8561C35.3887 51.924 35.4247 51.9962 35.4663 52.0655C35.5446 52.1968 35.4635 52.0322 35.4915 52.1173C35.5212 52.2074 35.546 52.2992 35.5659 52.3923C35.6266 52.6164 35.7688 52.8065 35.9619 52.9216C36.1549 53.0366 36.3833 53.0674 36.5979 53.0074C36.8097 52.9409 36.989 52.7911 37.0981 52.5893C37.2073 52.3875 37.238 52.1493 37.1837 51.9243C37.0576 51.4138 36.8112 50.9447 36.4671 50.5602C36.123 50.1756 35.6923 49.888 35.2146 49.7238C34.3958 49.3602 33.5145 49.1775 32.6254 49.1869C31.8536 49.232 31.0345 49.6035 30.6902 50.3697C30.4721 50.8581 30.3917 51.4017 30.4583 51.9365C30.5249 52.4713 30.7359 52.9749 31.0663 53.3881C31.2239 53.5526 31.4372 53.6449 31.6596 53.6449C31.8819 53.6449 32.0952 53.5526 32.2528 53.3881C32.4043 53.2199 32.4888 52.9972 32.4888 52.7657C32.4888 52.5342 32.4043 52.3115 32.2528 52.1433L32.2535 52.1455Z" fill="#211715"/>
    <path d="M33.2896 49.3787C33.2934 49.3204 33.2934 49.2618 33.2896 49.2034C33.2784 49.2896 33.3336 49.0769 33.3067 49.1429C33.2924 49.1796 33.3742 49.0083 33.3889 48.9812C33.3913 48.976 33.47 48.8557 33.4238 48.917C33.5027 48.8186 33.5892 48.7272 33.6825 48.6438C33.7398 48.5876 33.7461 48.599 33.6825 48.6438C33.7353 48.6071 33.7874 48.5704 33.8423 48.5392C33.865 48.5257 34.0205 48.4483 33.8954 48.5026C33.9485 48.4798 34.0041 48.4615 34.0586 48.4446C34.1328 48.4217 34.2081 48.403 34.2841 48.3885C34.4365 48.3599 34.1967 48.3958 34.354 48.379C34.6629 48.3486 34.9737 48.3451 35.2832 48.3687C35.3433 48.3731 35.4031 48.3779 35.4632 48.3837C35.4835 48.3837 35.7058 48.4138 35.5981 48.398C35.5041 48.3845 35.6894 48.4142 35.7061 48.4167C35.7855 48.4303 35.8645 48.4435 35.9435 48.4585C36.186 48.503 36.4251 48.5656 36.659 48.646C36.7314 48.6795 36.8015 48.7182 36.8688 48.7619C36.8922 48.7765 37.0464 48.8994 36.9485 48.8114C36.9918 48.8502 37.0303 48.8939 37.0719 48.9346L37.1303 49.0017C37.1002 48.9555 37.1014 48.9571 37.1338 49.0065C37.1678 49.0579 37.1991 49.1111 37.2278 49.166C37.2442 49.1965 37.3068 49.3578 37.2729 49.2566C37.2925 49.3167 37.309 49.3779 37.3222 49.44C37.2949 49.3197 37.3281 49.5617 37.3281 49.5816C37.3281 49.815 37.4165 50.0389 37.5738 50.204C37.7312 50.369 37.9446 50.4618 38.1671 50.4618C38.3896 50.4618 38.603 50.369 38.7603 50.204C38.9176 50.0389 39.006 49.815 39.006 49.5816C38.998 49.1089 38.8754 48.6462 38.6496 48.2371C38.4239 47.828 38.1025 47.4861 37.7158 47.2435C36.9627 46.8383 36.1305 46.6216 35.2842 46.6101C34.4613 46.5015 33.6266 46.6669 32.8981 47.0828C32.5134 47.3178 32.1929 47.6528 31.9675 48.0555C31.7421 48.4582 31.6194 48.9151 31.6113 49.382C31.6113 49.6155 31.6997 49.8394 31.8571 50.0044C32.0144 50.1695 32.2278 50.2623 32.4503 50.2623C32.6728 50.2623 32.8862 50.1695 33.0435 50.0044C33.2008 49.8394 33.2892 49.6155 33.2892 49.382L33.2896 49.3787Z" fill="#211715"/>
    <path d="M45.3953 63.7167C45.5886 62.1319 45.9242 60.5703 46.2398 59.009C46.5462 57.4522 47.0144 55.9354 47.636 54.4858C48.3222 52.9087 49.1926 51.2928 50.4384 50.1272C51.7123 48.936 53.3423 48.1101 54.9129 47.4407C55.4145 47.2269 55.9284 47.0487 56.4328 46.8429C56.4604 46.8319 56.7949 46.6889 56.5415 46.7945C56.6114 46.7652 56.6813 46.7354 56.7544 46.7068C56.9064 46.6456 57.0595 46.5869 57.2123 46.5275C58.0181 46.2489 58.8028 45.907 59.5596 45.5046C60.5035 44.9545 59.6586 43.4339 58.7126 43.9844C57.4371 44.7267 55.9899 45.1074 54.6748 45.6554C52.8494 46.3576 51.1353 47.3446 49.5904 48.5832C48.2093 49.7528 47.2015 51.4189 46.4251 53.0741C45.6798 54.6652 45.109 56.3399 44.7237 58.066C44.297 59.9303 43.9615 61.8163 43.7188 63.7167C43.7199 63.9498 43.8086 64.173 43.9657 64.3378C44.1228 64.5026 44.3355 64.5957 44.5577 64.5969C44.7785 64.5912 44.9888 64.4966 45.1449 64.3328C45.3011 64.1689 45.3913 63.9483 45.3967 63.7167H45.3953Z" fill="#211715"/>
    <path d="M77.3618 3.70415C73.132 0.411405 67.3076 -0.604145 62.1784 0.332919C58.0355 1.06251 54.2649 3.28565 51.5167 6.61913C48.8345 9.95112 47.6044 14.1032 47.2614 18.4001C47.1633 19.6839 47.1302 20.9723 47.1622 22.2598C47.1593 23.0162 47.2124 23.7717 47.3212 24.5194C47.4495 25.2665 47.5561 26.0173 47.6358 26.7721C47.8817 29.5101 47.9318 32.2636 47.7858 35.0094C47.7372 36.333 47.6809 37.657 47.6655 38.9818C47.6501 40.2346 47.5495 41.6055 47.8036 42.8371C48.2077 44.7956 49.7664 46.9364 51.6282 47.54C52.133 47.6958 52.6663 47.7199 53.182 47.6105C53.3955 47.5466 53.5765 47.3973 53.6861 47.1947C53.7957 46.9921 53.8251 46.7525 53.7679 46.5274C53.7046 46.3051 53.5619 46.1171 53.3696 46.0026C53.1773 45.888 52.9503 45.8558 52.736 45.9127C52.4344 45.9457 52.1301 45.8915 51.8558 45.7561C51.4865 45.5657 51.152 45.3086 50.8675 44.9966C50.2682 44.3711 49.8105 43.6123 49.5284 42.7762C49.4724 42.6009 49.4285 42.4216 49.3969 42.2397C49.4207 42.3823 49.3938 42.203 49.3906 42.1498C49.3784 41.9386 49.3725 41.7266 49.3655 41.5153C49.3445 40.872 49.3356 40.2286 49.3389 39.5851C49.3431 38.3264 49.3868 37.0684 49.434 35.8108C49.5726 33.2613 49.5733 30.7057 49.4361 28.1562C49.3312 26.6958 49.0596 25.2695 48.9023 23.8193C48.7946 22.5303 48.7778 21.2347 48.852 19.943C48.9918 15.9454 49.8353 11.9595 52.091 8.68141C54.2524 5.62503 57.3384 3.42868 60.8441 2.45167C63.3072 1.76708 65.8743 1.59551 68.4003 1.94665C70.6221 2.19477 72.7772 2.89118 74.747 3.99755C75.3598 4.36851 75.9501 4.77871 76.5148 5.22582C76.7073 5.34216 76.9357 5.37425 77.1505 5.31515C77.3654 5.25604 77.5494 5.1105 77.6628 4.91005C77.7699 4.70728 77.7985 4.46897 77.7424 4.24469C77.6863 4.02042 77.55 3.82747 77.3618 3.70598V3.70415Z" fill="#211715"/>
    <path d="M46.3915 66.0084C46.8952 67.7226 47.4566 69.4192 48.0306 71.1096C48.0599 71.2211 48.1098 71.3254 48.1775 71.4166C48.2453 71.5078 48.3294 71.5841 48.4252 71.6412C48.5211 71.6982 48.6267 71.735 48.736 71.7492C48.8454 71.7635 48.9563 71.755 49.0625 71.7243C49.1688 71.6936 49.2682 71.6412 49.3551 71.5701C49.442 71.4991 49.5148 71.4108 49.5692 71.3103C49.6236 71.2097 49.6586 71.0989 49.6722 70.9842C49.6858 70.8695 49.6777 70.7531 49.6484 70.6416C49.0744 68.9523 48.513 67.2546 48.0093 65.5404C47.9502 65.3153 47.8082 65.1241 47.6147 65.0088C47.4212 64.8936 47.1919 64.8637 46.9774 64.9257C46.7628 64.9878 46.5806 65.1367 46.4707 65.3397C46.3609 65.5428 46.3324 65.7833 46.3915 66.0084Z" fill="#211715"/>
</svg>