<svg width="120" height="128" viewBox="0 0 120 128" fill="none"
    xmlns="http://www.w3.org/2000/svg">
    <path d="M60.4714 52.8786C61.2534 49.7791 59.5962 45.5356 56.8343 42.6985C54.5996 40.263 51.0343 39.4343 50.0784 40.881C49.3328 41.9771 48.8654 43.2383 48.7168 44.5557C48.6745 44.9028 48.6443 45.2719 48.6297 45.6641C48.6202 45.9127 48.6174 46.1704 48.6212 46.4373C48.648 47.9317 49.0243 49.4639 49.0985 50.9584C49.1663 52.4478 48.7795 53.9138 47.3589 54.3965C47.303 54.4155 47.2911 54.5971 47.2932 54.6432C47.3024 54.7575 47.3417 54.8673 47.4071 54.9615C47.5987 55.2257 47.8467 55.4438 48.1331 55.6001C49.7175 56.5713 52.1549 57.1468 54.7345 56.7547C57.7004 56.3035 60.1033 54.6266 60.4714 52.8786Z" fill="#7A7473"/>
    <path d="M49.0578 40.9699C47.9924 42.8342 47.6734 45.0375 47.8446 47.1601C47.9429 48.378 48.2002 49.5779 48.2751 50.7978C48.3212 51.55 48.309 52.4249 47.8561 53.0689C47.7011 53.2843 47.4945 53.4573 47.2551 53.5719C46.9206 53.7373 46.6623 53.8299 46.5396 54.2214C46.4657 54.4659 46.461 54.7262 46.526 54.9732C46.7972 55.9731 48.0012 56.5124 48.8734 56.8772C50.8932 57.6888 53.104 57.9022 55.2418 57.492C57.3278 57.1141 59.5033 56.1023 60.7313 54.3102C61.3249 53.4445 59.9155 52.6299 59.3263 53.4889C58.2023 55.1281 55.8469 55.8843 53.9517 56.0311C52.7597 56.1318 51.5593 56.0186 50.4072 55.6969C49.9417 55.5682 49.4894 55.3957 49.0564 55.1817C48.8402 55.0754 48.6306 54.956 48.429 54.8241C48.3337 54.76 48.2256 54.6281 48.1317 54.5766C48.05 54.5319 48.1317 54.5634 48.1087 54.6522L47.8995 55.0112L47.9334 54.9712L47.5741 55.1803C48.1028 54.994 48.5768 54.6792 48.9536 54.2642C49.3304 53.8492 49.5981 53.347 49.7326 52.8028C50.058 51.5988 49.8828 50.3423 49.7164 49.1295C49.3744 46.6367 49.1635 44.0626 50.4621 41.7905C50.9824 40.8801 49.577 40.0595 49.0571 40.9696L49.0578 40.9699Z" fill="#211715"/>
    <path d="M87.34 30.4889C87.6364 30.232 87.9846 30.0419 88.361 29.9318C88.7374 29.8216 89.1332 29.794 89.5213 29.8506C89.9021 29.9044 90.266 30.0429 90.5863 30.2558C90.9066 30.4688 91.1751 30.7508 91.372 31.0811C91.6004 31.5369 91.7302 32.0357 91.753 32.5451C91.9193 34.5376 91.5347 36.5374 90.6412 38.3261C90.2198 39.23 89.6084 40.0324 88.8488 40.6785C88.2321 41.1786 87.4964 41.5105 86.7133 41.6419L86.3476 41.6981C86.1723 42.3547 85.9747 42.9075 85.8784 43.2011C85.2344 44.9491 81.5268 51.1491 76.9298 53.0768C76.959 54.3756 77.0891 55.6702 77.3189 56.9488C77.5392 58.2097 77.4714 59.3385 79.2239 59.9724C79.3391 60.013 81.3153 60.7825 81.4916 60.8571C81.4916 60.8571 79.5852 71.4666 69.0397 71.4666C58.4942 71.4666 57.4956 60.3971 57.4956 60.3971C57.8346 60.2818 58.6505 60.0134 58.7664 59.9713C60.5209 59.3378 60.4517 58.2087 60.6731 56.9478C60.9069 55.6443 61.0367 54.3243 61.0612 53.0002C58.9469 51.9708 57.088 50.4842 55.6191 48.6479C53.968 46.6229 52.7636 44.2717 52.0847 41.7486L51.3878 41.6415C50.6042 41.5104 49.8679 41.1785 49.2506 40.6782C48.491 40.032 47.8796 39.2296 47.4582 38.3258C46.5647 36.5371 46.1801 34.5372 46.3464 32.5447C46.3692 32.0354 46.4991 31.5366 46.7274 31.0807C46.9244 30.7504 47.1929 30.4684 47.5131 30.2555C47.8334 30.0426 48.1973 29.9041 48.5781 29.8503C48.9662 29.7936 49.362 29.8213 49.7384 29.9314C50.1148 30.0416 50.4631 30.2316 50.7594 30.4886C50.7594 30.4886 49.8052 13.918 68.2865 13.918C86.7679 13.918 87.34 30.4889 87.34 30.4889Z" fill="white"/>
    <path d="M60.3457 55.5547C60.8955 56.9143 62.9449 60.4581 63.5625 61.5476C64.7905 63.7125 67.1216 67.5811 68.628 69.6431L68.7015 69.7447L69.1696 69.0892C69.9625 67.9791 72.1911 64.7911 72.6867 64.0901C73.7572 62.5757 76.7831 57.4309 77.8752 55.556" fill="white"/>
    <path d="M60.2436 53.0253C60.2274 53.9859 60.152 54.9446 60.0178 55.896C59.9359 56.6028 59.8185 57.305 59.666 57.9999C59.6501 58.0633 59.6321 58.1264 59.6138 58.1887C59.6084 58.206 59.5423 58.3958 59.5758 58.3104C59.6094 58.225 59.529 58.408 59.5202 58.4247C59.4838 58.4942 59.4432 58.5614 59.3985 58.626C59.4613 58.5362 59.3762 58.6535 59.3474 58.684C59.2052 58.8445 59.0302 58.9726 58.8342 59.0595C58.3292 59.2832 57.8079 59.4682 57.2749 59.6131C57.0696 59.6746 56.896 59.813 56.7902 59.9994C56.6844 60.1858 56.6545 60.4058 56.7068 60.6137C56.766 60.8206 56.9039 60.996 57.091 61.1022C57.2782 61.2085 57.4995 61.2371 57.7075 61.1818C58.3925 60.9913 59.0602 60.743 59.7033 60.4395C60.4059 60.0597 60.9324 59.4205 61.1707 58.6582C61.3612 57.9399 61.4935 57.2074 61.5662 56.4678C61.742 55.3281 61.8439 54.1782 61.8713 53.0253C61.8916 51.9779 60.2646 51.9779 60.2443 53.0253H60.2436Z" fill="#211715"/>
    <path d="M76.1116 53.0777C76.1636 54.5084 76.3135 55.9338 76.5604 57.3439C76.7 58.2191 76.821 59.0642 77.421 59.7621C77.9633 60.3919 78.7429 60.6536 79.4914 60.9437C80.0852 61.1739 80.6832 61.3966 81.2713 61.6413C81.4793 61.6974 81.7011 61.6692 81.8885 61.5629C82.0758 61.4565 82.2137 61.2806 82.2722 61.0732C82.324 60.8653 82.2939 60.6454 82.1881 60.4591C82.0823 60.2728 81.9089 60.1343 81.7038 60.0723C81.1842 59.8563 80.6554 59.6591 80.1307 59.4553C79.6002 59.2493 78.9965 59.0804 78.6287 58.6757C78.4548 58.4628 78.3419 58.2067 78.302 57.9347C78.2162 57.568 78.1759 57.1924 78.1148 56.8212C77.9011 55.5835 77.7754 54.3322 77.7386 53.0767C77.7159 52.031 76.0889 52.0259 76.1116 53.0767V53.0777Z" fill="#211715"/>
    <path d="M41.8481 66.4816C42.4034 66.0382 52.3767 61.007 57.4463 58.581C57.4463 58.581 59.2729 57.7248 60.9959 56.916C61.8331 58.5373 63.1002 60.7324 63.5632 61.549C64.7913 63.7139 67.1223 67.5825 68.6287 69.6445L68.7022 69.7461C68.9361 69.418 69.1703 69.0903 69.1703 69.0903C69.9632 67.9801 72.1919 64.7922 72.6874 64.0912C73.5348 62.892 75.6093 59.4159 76.9777 57.0916L79.4545 57.9871C83.8685 59.9467 92.0979 63.9916 95.2638 65.6691L95.7817 65.9253C100.762 68.3903 106.71 76.3393 112.734 84.7965C114.709 87.5685 119.175 92.8327 118.607 96.4514C118.001 100.313 114.737 105.773 112.398 108.805C109.197 112.958 105.904 117.679 102.463 120.936C99.9056 119.004 96.1922 115.177 93.7012 113.116C95.3913 109.623 101.377 99.3621 102.24 97.0507C102.24 97.0507 102.279 96.9704 102.349 96.8409C101.326 95.4688 95.9058 90.0813 93.6781 87.9072C92.8389 93.3306 91.9636 98.7201 91.3118 103.129C91.1884 103.962 92.7429 120.755 92.9968 121.927L93.0415 122.134H92.8324C92.8324 122.134 70.0639 122.134 47.3095 122.134C47.3095 119.961 47.0445 104.622 46.8773 103.491C46.6336 101.844 46.3591 100.053 46.0665 98.169L45.9499 97.4172L45.3683 98.9554C44.7887 100.434 44.0755 101.856 43.2375 103.205C42.1488 104.955 41.9773 105.442 40.3523 107.218C37.8101 109.997 34.2479 111.566 30.2735 109.856C26.3849 108.184 25.043 104.65 23.2753 101.425C19.7958 95.0746 15.6628 84.8185 14.6191 81.4597C16.1543 80.535 24.7864 75.7902 25.8016 75.5909C26.608 76.7329 31.8999 86.7472 34.2465 90.6904C34.357 90.144 34.4462 89.7074 34.4462 89.7074C34.6258 88.9461 35.239 85.187 35.6736 83.7355C36.7298 79.2439 37.7551 74.8971 38.4036 72.4101C38.7985 70.8959 39.6422 68.573 40.8373 67.1561C41.2285 66.8372 41.6454 66.5513 42.0837 66.3013" fill="#7159C1"/>
    <path d="M48.123 122.127C48.123 119.544 48.0572 116.96 48.0084 114.377C47.9487 111.231 47.8962 108.083 47.7742 104.938C47.7193 103.859 47.6037 102.784 47.4281 101.718C47.0878 99.4632 46.7397 97.2097 46.3837 94.9574C45.615 90.0329 44.8415 85.1088 44.1418 80.1738C43.5497 75.9957 42.9727 71.8014 42.6843 67.5898C42.6576 67.1979 42.635 66.806 42.6165 66.4139C42.5656 65.3716 40.9383 65.3655 40.9895 66.4139C41.1878 70.474 41.7352 74.5206 42.2867 78.5451C42.9599 83.4723 43.7229 88.3866 44.4899 93.2999C44.8565 95.6475 45.2217 97.9955 45.5855 100.344C45.7468 101.396 45.906 102.448 46.0631 103.501C46.0797 103.57 46.0901 103.64 46.0943 103.711C46.0909 103.758 46.0777 103.455 46.0699 103.53C46.0705 103.55 46.0726 103.57 46.0763 103.59C46.0793 103.649 46.0865 103.707 46.0909 103.766C46.1024 103.926 46.1105 104.087 46.1187 104.248C46.2627 107.169 46.2976 110.097 46.3559 113.02C46.4139 115.908 46.4732 118.797 46.4949 121.686C46.4949 121.834 46.497 121.981 46.497 122.129C46.497 123.175 48.124 123.177 48.124 122.129L48.123 122.127Z" fill="#211715"/>
    <path d="M93.7801 121.71C93.7598 121.613 93.7463 121.516 93.7324 121.419C93.6985 121.21 93.7588 121.634 93.7286 121.392C93.7161 121.29 93.7035 121.192 93.6913 121.092C93.6296 120.581 93.5741 120.069 93.5198 119.557C93.3588 118.041 93.2114 116.524 93.0673 115.007C92.7622 111.785 92.4639 108.56 92.2304 105.332C92.1533 104.604 92.1171 103.873 92.1219 103.142C92.1128 103.37 92.1331 103.086 92.1426 103.022L92.2077 102.586C92.249 102.309 92.2907 102.032 92.3328 101.755C92.4198 101.181 92.5075 100.608 92.5958 100.035C92.7793 98.8462 92.9648 97.6573 93.1524 96.4687C93.9574 91.3503 94.7794 86.232 95.5231 81.1021C96.1671 76.6525 96.8068 72.1846 97.1217 67.6971C97.1517 67.2677 97.1774 66.8384 97.1986 66.409C97.2498 65.3623 95.6228 65.365 95.5716 66.409C95.3645 70.6515 94.7753 74.8801 94.1818 79.0822C93.4527 84.2392 92.6324 89.383 91.8213 94.5278C91.4464 96.9029 91.0725 99.2784 90.7135 101.656C90.5897 102.24 90.5157 102.834 90.4922 103.43C90.5003 103.814 90.5261 104.197 90.5519 104.579C90.7552 107.679 91.0454 110.774 91.3335 113.867C91.5813 116.527 91.7816 119.206 92.1636 121.85C92.1779 121.948 92.1911 122.045 92.2114 122.141C92.4273 123.165 93.9961 122.732 93.7805 121.709L93.7801 121.71Z" fill="#211715"/>
    <path d="M47.356 122.946H92.8318C93.8788 122.946 93.8805 121.319 92.8318 121.319H47.356C46.3093 121.319 46.3076 122.946 47.356 122.946Z" fill="#211715"/>
    <path d="M57.0346 57.8783C52.3125 60.1392 47.6138 62.4693 42.9838 64.9146C42.3858 65.1955 41.813 65.5272 41.2717 65.906C41.1202 66.0591 41.0352 66.2658 41.0352 66.4813C41.0352 66.6967 41.1202 66.9034 41.2717 67.0565C41.4269 67.2041 41.6328 67.2864 41.847 67.2864C42.0611 67.2864 42.267 67.2041 42.4222 67.0565C42.1286 67.2836 42.3418 67.1243 42.4222 67.0755C42.5188 67.0165 42.6178 66.9616 42.7161 66.906C43.0083 66.7423 43.3038 66.5843 43.5997 66.4274C44.5356 65.9301 45.4783 65.4444 46.422 64.963C48.9235 63.684 51.4346 62.424 53.9551 61.1829C55.252 60.5429 56.5513 59.9095 57.8532 59.2827C58.038 59.1725 58.1722 58.9941 58.2268 58.786C58.2814 58.5778 58.252 58.3566 58.145 58.1699C58.033 57.987 57.8546 57.8545 57.6471 57.8001C57.4397 57.7457 57.2192 57.7736 57.0319 57.878L57.0346 57.8783Z" fill="#211715"/>
    <path d="M79.0424 58.6885C84.1892 60.9755 89.2689 63.4618 94.2646 66.062C94.6747 66.2755 95.0845 66.4904 95.4896 66.7138C95.6201 66.7857 95.7503 66.8579 95.878 66.9345C95.9645 66.9863 96.2448 67.1904 95.9411 66.9545C96.0969 67.1008 96.3026 67.1822 96.5163 67.1822C96.73 67.1822 96.9357 67.1008 97.0915 66.9545C97.2429 66.8013 97.3277 66.5946 97.3277 66.3793C97.3277 66.1639 97.2429 65.9572 97.0915 65.804C96.5888 65.4479 96.0557 65.1365 95.4984 64.8736C94.4754 64.335 93.4436 63.813 92.4101 63.2943C89.6435 61.9053 86.861 60.5476 84.0628 59.2213C82.67 58.5617 81.2731 57.9092 79.8647 57.2835C79.6769 57.1811 79.4571 57.1544 79.2502 57.2086C79.0433 57.2628 78.865 57.394 78.7515 57.5753C78.6443 57.762 78.6148 57.9834 78.6694 58.1917C78.724 58.4 78.8583 58.5784 79.0434 58.6885H79.0424Z" fill="#211715"/>
    <path d="M41.6721 65.6014C41.0542 65.9082 40.5021 66.3328 40.0471 66.8515C39.48 67.5985 39.0085 68.4134 38.6435 69.2774C38.0201 70.796 37.5269 72.3649 37.1693 73.967C36.6737 75.9645 36.1988 77.9668 35.725 79.9704C35.3081 81.733 34.842 83.4912 34.4742 85.2657C34.1834 86.6693 33.9834 88.096 33.6607 89.4929C33.4254 90.5118 34.9938 90.9467 35.2297 89.9254C35.5009 88.7574 35.6724 87.5642 35.9039 86.388C36.2263 84.7511 36.6497 83.137 37.0317 81.5137C37.5047 79.5077 37.9833 77.5032 38.4675 75.5001C38.7969 73.9748 39.2081 72.4683 39.6993 70.9872C40.0208 70.0684 40.4434 69.1882 40.9596 68.3629C41.0734 68.1759 41.199 67.9965 41.3358 67.8256C41.3825 67.7695 41.4323 67.7161 41.485 67.6656C41.3731 67.7731 41.5511 67.6168 41.5792 67.5979C41.8734 67.3847 42.1789 67.1877 42.4944 67.0077C43.4076 66.4952 42.5883 65.0892 41.6731 65.6027L41.6721 65.6014Z" fill="#211715"/>
    <path d="M67.9668 69.6442C67.9668 71.7953 67.977 73.9467 67.9834 76.0977C67.9958 80.1707 68.0091 84.2437 68.0231 88.3167C68.0391 93.0487 68.0553 97.7805 68.0715 102.512C68.0853 106.64 68.0991 110.768 68.1129 114.896C68.1203 117.153 68.1271 119.411 68.1332 121.669C68.1332 121.758 68.1332 121.847 68.1332 121.936C68.1332 122.982 69.7603 122.984 69.7603 121.936C69.7603 119.984 69.7498 118.033 69.7436 116.082C69.7308 112.112 69.7174 108.142 69.7036 104.172C69.6876 99.446 69.6716 94.72 69.6555 89.9939C69.6413 85.7752 69.6274 81.5562 69.6138 77.337C69.6064 74.8913 69.5997 72.4459 69.5938 70.0008C69.5938 69.8818 69.5938 69.7635 69.5938 69.6442C69.5938 68.5975 67.9668 68.5954 67.9668 69.6442Z" fill="#211715"/>
    <path d="M16.3165 80.1764C15.3718 78.6975 13.473 77.3904 12.4862 75.8078C11.2741 73.8666 10.1135 70.2559 9.78673 68.859C8.92407 66.7703 10.2247 64.0827 12.0188 62.755C13.8465 61.471 15.3152 60.6917 17.8039 60.2765C19.0411 60.07 20.8207 59.9941 21.2708 61.1361C21.8884 62.7051 21.7661 63.0756 20.7756 63.7502C21.2627 63.59 21.7917 63.6143 22.2621 63.8185C22.7325 64.0226 23.1116 64.3924 23.3273 64.8576C23.7182 65.7104 23.1863 66.9127 22.0444 67.5618C23.6341 67.0486 24.03 68.1889 24.2683 68.8367C24.4614 69.2837 24.473 69.7883 24.3008 70.2438C24.1285 70.6992 23.7859 71.0698 23.3453 71.2772C25.7519 71.5982 24.4686 75.1011 23.0043 75.7044L23.4938 76.4881L16.3165 80.1764Z" fill="white"/>
    <path d="M21.1354 60.8742C21.13 60.802 21.1286 60.7579 21.1286 60.7579C21.0696 58.9892 21.0232 55.4064 18.7928 55.2352C16.0604 55.0254 17.1441 57.7035 16.3184 60.5996C16.8073 60.4656 17.303 60.3576 17.8034 60.2763C18.9399 60.0865 20.5371 60.0071 21.1354 60.8742Z" fill="white"/>
    <path d="M11.6371 62.8511C11.3263 62.2141 10.0382 58.577 9.61182 57.6093C8.8739 55.9348 8.22987 53.958 6.50081 52.9299C4.51787 51.751 2.81627 50.8605 1.52888 48.8149C0.513686 47.2021 0.72825 45.2493 1.23297 43.4643C1.86886 41.216 4.0057 38.872 5.22088 38.4894C5.40731 39.1605 6.16083 43.6901 6.3615 44.7263C6.71436 44.9842 8.71967 45.7259 9.2254 45.7191C9.73012 45.5659 11.3107 44.5409 12.013 43.9748C11.9771 42.9688 11.6521 38.7656 11.5544 37.8057C14.6051 38.4965 18.2998 42.7993 17.7236 46.2191C17.4039 48.1071 16.6633 49.6003 15.9549 51.3344C15.2244 53.1231 15.8233 54.5498 16.4687 56.2382C16.8124 57.1375 17.2453 58.6882 17.8653 59.9719" fill="#D9D9D9"/>
    <path d="M15.1095 67.1181C16.2088 66.67 17.2931 66.1829 18.3805 65.707C18.9744 65.4471 19.5682 65.1872 20.1618 64.9274C20.3826 64.8311 20.6034 64.7351 20.8241 64.6392C20.9034 64.6053 20.9831 64.5714 21.0614 64.5376C21.2648 64.4494 20.8611 64.6199 21.0526 64.5416C21.2568 64.4785 21.4293 64.3398 21.5349 64.1539C21.6404 63.9679 21.6711 63.7488 21.6207 63.541C21.5621 63.3338 21.4243 63.1579 21.237 63.0516C21.0497 62.9453 20.8281 62.917 20.6201 62.9729C19.6337 63.3766 18.6626 63.8203 17.6863 64.2474C17.0672 64.5186 16.4476 64.789 15.8278 65.0585C15.5736 65.1686 15.319 65.2783 15.0641 65.3877C14.9906 65.4192 14.6485 65.588 14.9184 65.45C14.8414 65.4894 14.756 65.5178 14.676 65.5517C14.4716 65.6147 14.299 65.7533 14.1934 65.9393C14.0878 66.1253 14.0572 66.3446 14.1079 66.5524C14.1665 66.7596 14.3043 66.9354 14.4916 67.0418C14.6789 67.1481 14.9005 67.1764 15.1085 67.1205L15.1095 67.1181Z" fill="#211715"/>
    <path d="M16.7285 70.8059C17.7538 70.2595 18.8087 69.7706 19.8883 69.3415L20.0873 69.2575L20.1859 69.2161C20.3215 69.1587 20.4571 69.1022 20.5927 69.0466C20.836 68.9449 21.0795 68.8433 21.3231 68.7416C21.6923 68.588 22.0651 68.4406 22.4288 68.2741C22.6138 68.164 22.7481 67.9856 22.8027 67.7773C22.8573 67.5691 22.8278 67.3477 22.7207 67.161C22.6083 66.9784 22.43 66.8462 22.2226 66.7919C22.0153 66.7375 21.795 66.7652 21.6075 66.8691C21.5567 66.8925 21.5058 66.9149 21.4536 66.9369L21.3652 66.9749C21.2374 67.0305 21.573 66.8881 21.4025 66.9593L20.7872 67.2156C20.213 67.454 19.6395 67.6942 19.0667 67.9362C17.987 68.3654 16.9321 68.8543 15.9068 69.4009C15.8146 69.4548 15.7339 69.5264 15.6693 69.6115C15.6047 69.6966 15.5576 69.7936 15.5305 69.8969C15.5034 70.0003 15.4969 70.108 15.5115 70.2138C15.526 70.3197 15.5612 70.4216 15.6152 70.5138C15.6691 70.6061 15.7406 70.6868 15.8258 70.7514C15.9109 70.8159 16.0079 70.8631 16.1112 70.8902C16.2146 70.9173 16.3223 70.9237 16.4281 70.9092C16.534 70.8947 16.6359 70.8595 16.7281 70.8055L16.7285 70.8059Z" fill="#211715"/>
    <path d="M18.8952 74.2317C20.5805 73.4884 22.2252 72.6569 23.8831 71.8556C24.0685 71.746 24.2032 71.5676 24.2578 71.3592C24.3125 71.1508 24.2827 70.9293 24.1749 70.7428C24.0623 70.5607 23.884 70.4288 23.6768 70.3745C23.4697 70.3201 23.2496 70.3475 23.0621 70.4509C21.4039 71.2519 19.7592 72.0834 18.0739 72.8267C17.8882 72.9362 17.7532 73.1146 17.6986 73.3232C17.6439 73.5317 17.6739 73.7534 17.7821 73.9399C17.8954 74.1214 18.0737 74.2526 18.2807 74.3069C18.4876 74.3611 18.7075 74.3343 18.8952 74.2317Z" fill="#211715"/>
    <path d="M17.0193 79.7658C16.3221 78.8043 15.5286 77.9164 14.6513 77.1158C13.8724 76.3681 13.2173 75.5013 12.7108 74.5478C11.8218 72.7616 11.1295 70.8841 10.6461 68.9484C10.5086 68.5536 10.4052 68.1477 10.337 67.7353C10.3019 67.2559 10.3544 66.7742 10.4919 66.3137C10.7846 65.3273 11.3394 64.4388 12.0972 63.743C12.9103 63.0391 13.8219 62.4579 14.8032 62.018C15.8243 61.548 16.9071 61.2257 18.0189 61.0607C18.5126 60.9753 19.0145 60.9481 19.5144 60.9797C19.7168 60.9936 19.9165 61.0339 20.1083 61.0997C20.2369 61.1388 20.3528 61.2113 20.4442 61.3099C20.5672 61.5214 20.6585 61.7498 20.7154 61.9878C20.7806 62.173 20.8206 62.3661 20.834 62.562C20.834 62.6617 20.8476 62.541 20.8479 62.5281C20.8479 62.5505 20.7917 62.7315 20.8313 62.6267C20.8686 62.5281 20.712 62.7962 20.8195 62.6606C20.6901 62.8137 20.5365 62.9446 20.3649 63.0481C19.6378 63.5504 20.0598 64.8019 20.9917 64.5351C21.3014 64.426 21.6411 64.439 21.9415 64.5717C22.242 64.7043 22.4805 64.9465 22.6085 65.249C22.6708 65.4939 22.6356 65.7535 22.5102 65.973C22.3118 66.3485 22.0068 66.657 21.6337 66.8597C20.854 67.3234 21.3604 68.6162 22.2604 68.3464C22.4528 68.274 22.6577 68.2408 22.8631 68.2488C22.7726 68.2397 22.9821 68.2773 23.0051 68.2861C22.8851 68.2417 23.077 68.3268 23.1014 68.3468C22.9875 68.2536 23.1481 68.3969 23.1692 68.42C23.2905 68.559 23.1353 68.3522 23.2244 68.4939C23.2634 68.5569 23.2976 68.622 23.3339 68.6864C23.3559 68.7295 23.3766 68.7728 23.3966 68.8169C23.3656 68.741 23.3609 68.7297 23.3824 68.783C23.6702 69.4904 23.7071 70.2023 22.9353 70.5751C22.338 70.8636 22.4438 71.9564 23.1298 72.0618C23.2481 72.0786 23.3649 72.1041 23.4793 72.1381C23.5271 72.153 23.5895 72.1828 23.5088 72.1449C23.5648 72.1721 23.619 72.2032 23.6708 72.2377C23.7769 72.3055 23.5691 72.1791 23.6735 72.2425C23.6864 72.2503 23.7888 72.3604 23.7257 72.2865C23.6627 72.2126 23.844 72.4899 23.7979 72.3954C23.8153 72.4737 23.837 72.551 23.863 72.6269C23.8823 72.7065 23.8715 72.7011 23.8647 72.6238C23.8691 72.6726 23.8732 72.7221 23.8729 72.7709C23.8729 72.8726 23.8701 72.9743 23.8606 73.076C23.8745 72.9306 23.8268 73.2431 23.8159 73.2882C23.7901 73.3936 23.7596 73.498 23.7251 73.6007C23.7074 73.6529 23.6887 73.7045 23.6688 73.7556C23.619 73.8841 23.7112 73.6641 23.6542 73.7895C23.5574 74.0004 23.4429 74.2027 23.3119 74.3942C23.2864 74.4318 23.2441 74.4898 23.2976 74.421C23.2664 74.4617 23.2329 74.5017 23.1987 74.54C23.1309 74.6152 23.0631 74.6861 22.9905 74.7559C22.976 74.7698 22.8261 74.8939 22.9092 74.8301C22.981 74.7749 22.8661 74.8589 22.8519 74.8667C22.7661 74.9149 22.6848 74.964 22.5943 75.0023C22.4091 75.1122 22.2747 75.2906 22.22 75.4989C22.1654 75.7071 22.195 75.9285 22.3024 76.1151C22.415 76.2974 22.5934 76.4294 22.8006 76.4837C23.0079 76.5381 23.2281 76.5106 23.4156 76.407C25.6046 75.447 26.6158 70.9625 23.5624 70.4931L23.7566 71.9798C25.1833 71.291 25.4819 69.6511 24.9253 68.2851C24.7413 67.7424 24.3908 67.2716 23.9237 66.9397C23.6071 66.7627 23.2559 66.6564 22.8943 66.6281C22.5327 66.5998 22.1692 66.6501 21.8289 66.7757L22.4536 68.2657C23.6142 67.5756 24.6501 66.1374 24.1464 64.7293C23.8821 64.0362 23.365 63.4689 22.6991 63.1419C22.0333 62.8148 21.2683 62.7522 20.5581 62.9667L21.1852 64.4538C21.6202 64.1997 21.9861 63.8427 22.2509 63.4142C22.4751 62.9312 22.5177 62.3837 22.3709 61.8719C22.2616 61.2496 21.9973 60.6649 21.6025 60.1716C21.1948 59.7676 20.6675 59.506 20.0992 59.4259C18.8758 59.2124 17.5908 59.4412 16.399 59.7374C15.1784 60.0449 14.0101 60.5315 12.9321 61.1814C11.8023 61.8032 10.8099 62.6471 10.0146 63.6623C9.22939 64.7079 8.77246 65.9632 8.70183 67.2689C8.66421 68.2929 9.0408 69.3098 9.33129 70.2806C9.67052 71.4164 10.0665 72.5346 10.5177 73.6309C11.0135 74.966 11.7211 76.2126 12.6131 77.3229C13.5731 78.4377 14.8025 79.3485 15.6133 80.5861C16.1848 81.4586 17.5942 80.6444 17.018 79.7651L17.0193 79.7658Z" fill="#211715"/>
    <path d="M17.5925 57.1951C17.5976 57.15 17.603 57.1045 17.6081 57.0595C17.605 57.0879 17.5803 57.2289 17.6081 57.0791C17.6206 57.0062 17.6318 56.933 17.646 56.8605C17.6767 56.7078 17.717 56.5572 17.7667 56.4097C17.8287 56.2232 17.707 56.4944 17.7789 56.3826C17.8128 56.328 17.8521 56.2643 17.8826 56.207C17.8169 56.3307 17.823 56.2748 17.8972 56.1999C17.9225 56.1786 17.9466 56.156 17.9694 56.1321C18.0111 56.0802 17.8165 56.2107 17.9467 56.1551C17.9806 56.1405 18.1501 56.0561 18.0379 56.1005C17.9192 56.148 18.1243 56.0778 18.1568 56.0697C18.1972 56.0599 18.2375 56.0534 18.2775 56.0439C18.248 56.051 18.0985 56.0575 18.2575 56.0473C18.3551 56.0409 18.4521 56.0358 18.55 56.0372C18.648 56.0385 18.751 56.0466 18.8517 56.0534C18.6917 56.0429 18.7927 56.0453 18.8829 56.067C18.9432 56.0812 19.0019 56.1063 19.0622 56.1195C19.1903 56.1483 19.0371 56.1097 19.0127 56.0965C19.0504 56.1168 19.0897 56.1338 19.127 56.1544C19.1792 56.1832 19.2266 56.2199 19.2785 56.2483C19.3927 56.311 19.2531 56.23 19.2354 56.2144C19.2602 56.2375 19.288 56.2575 19.3124 56.2822C19.3551 56.3243 19.3988 56.3653 19.4395 56.4097C19.4625 56.4351 19.4825 56.4656 19.5073 56.4883C19.5751 56.55 19.4161 56.3476 19.493 56.47C19.5659 56.5859 19.6415 56.6975 19.7052 56.8195C19.7357 56.8778 19.7629 56.9378 19.7917 56.9971C19.8113 57.0374 19.8412 57.1374 19.7778 56.9632C19.7944 57.009 19.8134 57.0537 19.8303 57.0988C19.937 57.3954 20.0212 57.6996 20.0822 58.0089C20.1117 58.1526 20.1371 58.2974 20.1594 58.4424C20.1662 58.4865 20.1974 58.758 20.1744 58.5387C20.1832 58.6221 20.1944 58.7051 20.2035 58.7885C20.2733 59.4437 20.294 60.1023 20.3157 60.7603C20.3157 60.976 20.4014 61.183 20.554 61.3355C20.7065 61.4881 20.9135 61.5738 21.1292 61.5738C21.345 61.5738 21.5519 61.4881 21.7045 61.3355C21.857 61.183 21.9427 60.976 21.9427 60.7603C21.8956 59.3343 21.8749 57.815 21.3245 56.4764C21.0692 55.7259 20.5468 55.0955 19.8568 54.7054C19.4375 54.5015 18.9768 54.3973 18.5106 54.401C18.0445 54.4046 17.5855 54.516 17.1694 54.7264C16.2769 55.2348 16.0726 56.2615 15.9668 57.1974C15.968 57.4128 16.0542 57.619 16.2064 57.7713C16.3587 57.9236 16.5649 58.0097 16.7803 58.0109C16.9945 58.006 17.1986 57.9187 17.3501 57.7672C17.5016 57.6157 17.5889 57.4116 17.5938 57.1974L17.5925 57.1951Z" fill="#211715"/>
    <path d="M12.3383 62.4398C12.3227 62.4059 12.3081 62.372 12.2925 62.3401C12.222 62.1896 12.3695 62.5299 12.2976 62.3537C12.2488 62.2337 12.2006 62.1133 12.1529 61.9927C12.0156 61.6429 11.8817 61.2914 11.7512 60.9395C11.4577 60.1582 11.1689 59.3745 10.8719 58.5942C10.6092 57.9031 10.3211 57.2255 10.0327 56.5449C9.67308 55.5955 9.20479 54.691 8.63715 53.8494C7.35112 52.0932 5.19667 51.4641 3.61506 50.0371C2.83714 49.3347 2.08735 48.4582 1.79414 47.4335C1.53855 46.3301 1.57689 45.179 1.90532 44.095C2.1955 42.9623 2.72742 41.9059 3.46456 40.9983C3.80773 40.5655 4.19062 40.1658 4.60822 39.8044C4.75357 39.6785 4.90862 39.5643 5.07193 39.4627C5.14379 39.4177 5.21768 39.377 5.29192 39.336C5.33802 39.3119 5.38445 39.2892 5.43191 39.2682C5.35056 39.303 5.35225 39.3048 5.43699 39.2736L4.43603 38.7055C4.74923 39.8685 4.8977 41.0928 5.10481 42.2778C5.22378 42.9585 5.34208 43.6398 5.46275 44.3201C5.48972 44.5293 5.52786 44.737 5.57698 44.9421C5.69732 45.3512 6.08204 45.5183 6.43761 45.6766C7.13227 45.9964 7.85496 46.2514 8.59648 46.4383C8.90263 46.5359 9.22998 46.5459 9.54151 46.4671C9.92229 46.3228 10.2854 46.1356 10.6238 45.9092C10.9967 45.6844 11.3604 45.4461 11.7173 45.1973C12.0865 44.9411 12.6722 44.6445 12.7976 44.1899C12.8373 43.9335 12.8373 43.6725 12.7976 43.4161C12.7779 43.0856 12.7556 42.7558 12.7329 42.4256C12.6261 40.8844 12.5217 39.3411 12.3675 37.8028L11.3377 38.5872C12.6281 38.894 13.762 39.7421 14.6843 40.7044C15.7204 41.7372 16.4652 43.0255 16.8435 44.4387C17.2163 46.0132 16.6042 47.6196 16.011 49.0954C15.6469 50.0011 15.1453 50.9055 14.9338 51.8617C14.7441 52.7855 14.7836 53.7416 15.0487 54.6466C15.3053 55.5883 15.7076 56.4876 16.0188 57.4119C16.3408 58.4228 16.7222 59.4137 17.1611 60.3795C17.2713 60.5644 17.4498 60.6986 17.658 60.7532C17.8662 60.8077 18.0875 60.7784 18.2742 60.6714C18.457 60.5593 18.5895 60.3809 18.6439 60.1735C18.6982 59.966 18.6704 59.7456 18.5661 59.5582C18.1892 58.7188 17.8626 57.8576 17.5878 56.9794C17.3062 56.1432 16.957 55.3286 16.6967 54.4853C16.3908 53.6377 16.3659 52.7141 16.6255 51.8512C16.9411 50.896 17.4109 49.9869 17.7682 49.048C18.3986 47.3871 18.8362 45.6583 18.3858 43.8995C17.9421 42.3351 17.1227 40.9029 15.9991 39.7275C14.8748 38.5035 13.4135 37.4086 11.7719 37.0188C11.3041 36.9076 10.6872 37.2534 10.7421 37.8032C10.9472 39.8505 11.1224 41.9179 11.2007 43.9723L11.438 43.3961C11.3702 43.4503 11.3553 43.4612 11.2421 43.5442C11.1128 43.6387 10.9823 43.7312 10.8506 43.8218C10.5995 43.9954 10.3449 44.1634 10.0866 44.3259C9.83675 44.4831 9.58422 44.637 9.32457 44.7774C9.22465 44.8197 9.1278 44.869 9.03476 44.9248C9.0751 44.8946 9.18492 44.9048 9.18492 44.9035C9.18492 44.9021 9.25271 44.9211 9.13713 44.8902C9.08899 44.8777 9.0395 44.8685 8.99103 44.8563C8.87917 44.8292 8.76833 44.7977 8.65783 44.7652C8.38666 44.6855 8.12125 44.5957 7.85686 44.4991C7.47423 44.392 7.10895 44.2306 6.77217 44.0198L7.14503 44.5062C6.93725 43.4242 6.76031 42.3368 6.56879 41.2521C6.39457 40.2624 6.26542 39.2424 6.00374 38.2693C5.94462 38.0624 5.80666 37.8869 5.61954 37.7807C5.43242 37.6745 5.21108 37.6459 5.00312 37.7012C4.13248 38.0504 3.36156 38.6093 2.75884 39.3282C1.97285 40.1632 1.3294 41.1217 0.854196 42.1653C-0.159307 44.4625 -0.463019 47.3572 1.01859 49.5171C1.6813 50.467 2.50074 51.2972 3.44185 51.9722C4.354 52.642 5.37394 53.1339 6.30508 53.7687C7.14063 54.3368 7.66399 55.2517 8.08939 56.1435C8.32429 56.6357 8.53004 57.1401 8.74528 57.6414C8.79172 57.7499 8.83782 57.8587 8.88561 57.9665C8.96459 58.1451 8.88358 57.9573 8.89849 57.9932C8.95883 58.1395 9.01781 58.2863 9.07543 58.4339C9.70184 60.0318 10.194 61.7124 10.9347 63.2624C11.0449 63.4472 11.2233 63.5813 11.4314 63.6359C11.6395 63.6905 11.8607 63.6612 12.0475 63.5543C12.2303 63.4422 12.3628 63.2638 12.4172 63.0564C12.4716 62.8489 12.4437 62.6285 12.3393 62.4411L12.3383 62.4398Z" fill="#211715"/>
    <path d="M35.783 91.5989C35.2792 90.8638 34.8133 90.1034 34.3871 89.3208C33.6668 88.0707 32.9665 86.8087 32.2693 85.5457C30.791 82.8679 29.3399 80.1762 27.8532 77.5034C27.4432 76.7073 26.9928 75.9325 26.5038 75.1822C26.4089 75.0318 26.2693 74.915 26.1045 74.8481C25.9397 74.7812 25.7581 74.7677 25.5852 74.8093C25.0585 74.9627 24.5513 75.1767 24.0738 75.4469C23.2474 75.8445 22.4329 76.2662 21.6207 76.6916C19.7767 77.6577 17.9463 78.6489 16.1295 79.6653C15.4855 80.024 14.8414 80.3806 14.2086 80.7602C14.0556 80.8525 13.9366 80.9919 13.8693 81.1575C13.8021 81.3231 13.7903 81.506 13.8357 81.6788C14.6913 84.4183 15.8075 87.0893 16.9125 89.7353C18.4077 93.3144 19.9839 96.8681 21.7651 100.315C22.5763 101.884 23.3921 103.462 24.2616 105C25.1476 106.57 26.2035 108.082 27.6289 109.209C29.2593 110.527 31.2691 111.287 33.3634 111.378C35.3696 111.399 37.3271 110.761 38.9367 109.563C40.6251 108.305 42.0526 106.731 43.1399 104.927C44.3235 103.108 45.3326 101.181 46.1539 99.1724C46.2095 98.9644 46.1811 98.7429 46.0749 98.5557C45.9686 98.3685 45.7929 98.2306 45.5858 98.1718C45.3779 98.1191 45.1577 98.1488 44.9712 98.2547C44.7846 98.3605 44.6462 98.5344 44.5849 98.7399C43.876 100.453 43.0138 102.099 42.0087 103.657C41.1774 105.07 40.1465 106.355 38.9479 107.474C37.6598 108.647 36.0196 109.566 34.258 109.724C32.3851 109.857 30.5251 109.325 29.0064 108.221C27.6329 107.259 26.6408 105.866 25.812 104.432C24.9771 102.987 24.2189 101.491 23.442 100.014C21.7312 96.7637 20.2198 93.407 18.7866 90.0265C17.5664 87.1476 16.338 84.2336 15.4048 81.2473L15.0319 82.1659C16.3878 81.3524 17.7853 80.6043 19.1731 79.8484C20.9448 78.8834 22.722 77.9224 24.5321 77.0306C24.8744 76.8611 25.2188 76.6967 25.5676 76.5411C25.6693 76.4957 25.7784 76.4577 25.6015 76.5252C25.6598 76.5032 25.7168 76.4777 25.7751 76.4574C25.8551 76.4257 25.9374 76.3999 26.0211 76.3801L25.1026 76.0073C25.529 76.6174 25.873 77.2936 26.2357 77.9417C26.9041 79.1366 27.5607 80.3379 28.218 81.5391C29.7152 84.2746 31.1988 87.0188 32.7452 89.7268C33.2425 90.6541 33.7887 91.5545 34.3814 92.424C34.4943 92.6058 34.6727 92.7374 34.8798 92.7917C35.0869 92.846 35.3069 92.8188 35.4945 92.7158C35.6795 92.6058 35.8139 92.4274 35.8685 92.2192C35.9231 92.011 35.8936 91.7896 35.7864 91.603L35.783 91.5989Z" fill="#211715"/>
    <path d="M93.2419 88.6176C95.7373 91.0581 98.2331 93.5115 100.605 96.0748C100.847 96.3355 101.086 96.5982 101.32 96.8663C101.407 96.968 101.494 97.0696 101.579 97.1713C101.619 97.2205 101.658 97.2703 101.698 97.3191C101.612 97.2141 101.618 97.2137 101.688 97.3107C101.801 97.4924 101.98 97.6239 102.187 97.6781C102.394 97.7324 102.614 97.7054 102.801 97.6025C102.986 97.4924 103.121 97.314 103.175 97.1057C103.23 96.8974 103.2 96.676 103.093 96.4893C102.264 95.426 101.362 94.4225 100.391 93.4865C99.0555 92.1021 97.6976 90.7388 96.3329 89.383C95.6886 88.7425 95.0418 88.1046 94.3923 87.4692C93.6432 86.7367 92.4918 87.8861 93.2419 88.6196V88.6176Z" fill="#211715"/>
    <path d="M105.963 95.5186C106.417 95.3796 106.884 95.2813 107.341 95.1569C108.015 94.9774 108.672 94.7418 109.307 94.4526C109.492 94.3429 109.627 94.1645 109.682 93.956C109.736 93.7476 109.707 93.526 109.599 93.3394C109.486 93.1576 109.307 93.026 109.1 92.9717C108.893 92.9174 108.673 92.9446 108.486 93.0476C108.415 93.0815 108.345 93.1113 108.274 93.1428C108.181 93.1838 108.439 93.075 108.3 93.131L108.203 93.1693C108.056 93.2265 107.908 93.2798 107.759 93.3303C107.464 93.432 107.164 93.5187 106.863 93.6014C106.422 93.7218 105.97 93.816 105.531 93.9502C105.323 94.0076 105.146 94.1452 105.04 94.3329C104.933 94.5206 104.905 94.7429 104.963 94.951C105.02 95.1591 105.158 95.3359 105.346 95.4424C105.533 95.549 105.756 95.5767 105.964 95.5193L105.963 95.5186Z" fill="#211715"/>
    <path d="M20.6474 85.2817C23.2439 83.8638 25.7915 82.3507 28.4307 81.0108C28.5229 80.9569 28.6037 80.8853 28.6683 80.8002C28.7329 80.7151 28.7801 80.6181 28.8072 80.5148C28.8343 80.4114 28.8408 80.3037 28.8263 80.1979C28.8118 80.092 28.7766 79.99 28.7227 79.8978C28.6688 79.8055 28.5972 79.7248 28.5121 79.6602C28.427 79.5956 28.33 79.5484 28.2267 79.5213C28.1233 79.4941 28.0157 79.4877 27.9098 79.5022C27.8039 79.5167 27.702 79.5519 27.6097 79.6058C24.9705 80.9443 22.4236 82.4575 19.8261 83.8767C18.9068 84.3787 19.7271 85.7844 20.6474 85.2817Z" fill="#211715"/>
    <path d="M96.6847 109.498C97.0576 109.764 97.4331 110.03 97.8033 110.3C98.0518 110.481 98.2985 110.663 98.5432 110.845C98.6766 110.944 98.8093 111.044 98.9415 111.145C99.0741 111.246 99.1869 111.332 99.2564 111.386C100.374 112.223 101.422 113.15 102.388 114.159C102.464 114.235 102.553 114.296 102.652 114.338C102.751 114.379 102.858 114.401 102.965 114.402C103.072 114.402 103.179 114.381 103.278 114.34C103.377 114.299 103.468 114.239 103.544 114.163C103.62 114.087 103.68 113.997 103.721 113.898C103.761 113.799 103.782 113.692 103.782 113.585C103.781 113.477 103.76 113.371 103.718 113.272C103.676 113.173 103.615 113.084 103.539 113.008C101.782 111.104 99.6042 109.592 97.5053 108.093C97.3186 107.986 97.0972 107.957 96.889 108.011C96.6807 108.066 96.5023 108.2 96.3922 108.385C96.2878 108.572 96.2599 108.793 96.3143 109C96.3687 109.208 96.5011 109.386 96.684 109.498L96.6847 109.498Z" fill="#211715"/>
    <path d="M79.8105 56.9708C79.1991 56.4547 78.5514 55.9832 77.8723 55.5601C76.8215 57.3661 73.9861 62.1858 72.8184 63.8986C73.1553 64.1098 73.3553 64.2375 73.3553 64.2375C74.3217 64.8507 80.5617 66.7174 81.305 66.551C81.3487 64.3708 81.3487 59.929 81.2711 58.4616C80.8449 57.9086 80.3546 57.4082 79.8105 56.9708Z" fill="#7159C1"/>
    <path d="M57.8266 57.718C58.6114 56.9512 59.4728 56.2668 60.3973 55.6758C61.0109 57.1133 62.963 60.4891 63.5633 61.549C63.9826 62.2883 64.5307 63.2262 65.1303 64.2231L65.0984 64.238C64.132 64.8512 57.8921 66.7179 57.1487 66.5514C57.105 64.3712 57.1046 59.9294 57.1826 58.4621C57.3765 58.1968 57.5919 57.948 57.8266 57.718Z" fill="#7159C1"/>
    <path d="M76.8796 118.746C78.3552 117.404 79.9328 116.179 81.598 115.081L82.5 114.63C80.8777 114.638 78.7555 114.632 77.7101 114.605C76.739 114.579 75.1892 114.582 75.1631 113.122C75.1355 112.632 75.3027 112.152 75.6283 111.785C75.9538 111.418 76.4114 111.194 76.901 111.163C77.8335 111.133 80.0445 111.1 81.0082 111.1C82.2071 111.1 84.3534 111.1 85.4636 111.068C90.0525 110.944 92.9425 112.13 96.4304 115.269L101.59 119.913V121.029C101.59 122.26 99.4648 124.395 97.3293 124.554C95.2186 124.71 93.8302 123.904 92.2357 123.192C91.5225 122.885 90.7232 122.841 89.9806 123.068C89.1152 123.321 88.2102 124.258 87.496 124.729C86.4601 125.413 84.7205 126.664 83.3915 127.133C82.9057 127.305 81.8088 127.089 81.3455 126.836C81.1639 126.72 81.0099 126.565 80.8945 126.383C80.7792 126.201 80.7051 125.996 80.6777 125.782C80.6502 125.568 80.67 125.351 80.7357 125.146C80.8014 124.94 80.9113 124.752 81.0577 124.594C80.2923 125.136 79.1866 125.259 78.4816 124.308C78.3249 124.089 78.2179 123.838 78.168 123.573C78.1181 123.308 78.1265 123.035 78.1927 122.774C78.2589 122.513 78.3812 122.269 78.5511 122.06C78.7211 121.85 78.9346 121.681 79.1768 121.562C78.3229 122.24 77.3481 121.831 76.8457 121.173C76.3644 120.542 76.3712 119.139 76.8796 118.746Z" fill="white"/>
    <path d="M93.9086 112.318C91.8198 111.055 89.4419 110.348 87.0022 110.266C85.825 110.213 84.6417 110.274 83.4634 110.281C82.4425 110.287 81.4212 110.281 80.4002 110.29C79.3684 110.298 78.3365 110.314 77.3044 110.338C76.7698 110.318 76.238 110.426 75.7537 110.654C75.2437 110.933 74.8402 111.373 74.6059 111.905C74.1365 112.959 74.2992 114.289 75.3307 114.939C76.0798 115.411 77.0353 115.404 77.8902 115.423C79.9809 115.469 82.076 115.462 84.1671 115.431C85.2132 115.416 85.2162 113.789 84.1671 113.804C82.455 113.83 80.7415 113.827 79.0291 113.812C78.3101 113.805 77.5766 113.825 76.8597 113.75C76.7252 113.734 76.5922 113.707 76.4621 113.669C76.3438 113.645 76.2319 113.596 76.1337 113.526C76.0794 113.485 76.0385 113.429 76.0164 113.365C75.9676 113.202 75.959 113.029 75.9913 112.861C76.0177 112.69 76.0845 112.528 76.1861 112.388C76.2877 112.248 76.4213 112.134 76.5757 112.056C76.9053 111.959 77.2505 111.926 77.5926 111.959C78.5448 111.938 79.4971 111.923 80.4493 111.916C82.393 111.902 84.3417 111.857 86.285 111.874C88.6798 111.85 91.0346 112.49 93.0876 113.723C93.9828 114.272 94.8011 112.865 93.9086 112.318Z" fill="#211715"/>
    <path d="M81.1866 114.379C80.6871 114.667 80.2111 114.994 79.763 115.357C79.0227 115.906 78.2951 116.471 77.5804 117.054C77.0404 117.494 76.3049 117.982 75.9662 118.608C75.7479 119.065 75.6451 119.569 75.6669 120.075C75.6888 120.581 75.8347 121.074 76.0916 121.51C76.2656 121.796 76.4958 122.044 76.7685 122.238C77.0411 122.432 77.3503 122.568 77.6774 122.639C78.0044 122.709 78.3424 122.713 78.6708 122.648C78.9992 122.584 79.311 122.454 79.5874 122.265C80.4165 121.659 79.7053 120.347 78.7661 120.86C78.4488 121.029 78.1685 121.26 77.9415 121.539C77.7145 121.818 77.5454 122.139 77.444 122.484C77.3427 122.829 77.3111 123.19 77.3513 123.548C77.3914 123.905 77.5023 124.251 77.6777 124.564C78.4936 125.925 80.1972 126.155 81.469 125.295L80.4833 124.018C80.1409 124.385 79.9267 124.853 79.8726 125.352C79.8185 125.851 79.9275 126.354 80.1833 126.785C80.6839 127.62 81.6269 127.879 82.5371 127.981C83.5011 128.09 84.3295 127.659 85.1498 127.199C86.0131 126.716 86.8287 126.154 87.6497 125.603C88.3988 125.101 89.0584 124.445 89.8478 124.007C90.759 123.501 91.6623 123.816 92.5328 124.217C94.3744 125.065 96.4583 125.807 98.488 125.146C99.5074 124.806 100.429 124.222 101.173 123.447C101.801 122.795 102.375 121.963 102.405 121.029C102.439 119.981 100.812 119.982 100.778 121.029C100.771 121.251 100.827 120.868 100.773 121.1C100.76 121.151 100.746 121.201 100.731 121.252C100.697 121.354 100.652 121.451 100.595 121.541C100.437 121.817 100.244 122.07 100.021 122.296C99.5188 122.829 98.9065 123.245 98.2267 123.516C96.6336 124.119 94.9347 123.538 93.4686 122.865C92.5972 122.465 91.7667 122.065 90.7796 122.117C89.86 122.179 88.9829 122.527 88.2713 123.113C86.9723 124.143 85.5957 125.071 84.1539 125.89C83.8281 126.09 83.4803 126.251 83.1174 126.37C82.7608 126.399 82.4022 126.356 82.0628 126.243C81.7873 126.163 81.6503 126.128 81.5405 125.881C81.484 125.766 81.4627 125.637 81.4792 125.51C81.4958 125.383 81.5494 125.264 81.6334 125.168C82.2181 124.515 81.4527 123.346 80.6473 123.89C80.1121 124.252 79.4735 124.369 79.082 123.743C79.0122 123.614 78.97 123.472 78.9578 123.325C78.9456 123.179 78.9638 123.032 79.0112 122.893C79.0587 122.754 79.1343 122.627 79.2334 122.519C79.3325 122.411 79.4529 122.324 79.587 122.265L78.7657 120.86C77.9671 121.444 77.3106 120.707 77.3051 119.922C77.2993 119.744 77.3263 119.565 77.3848 119.396C77.3902 119.379 77.4726 119.311 77.4011 119.369C77.4533 119.326 77.4984 119.277 77.5472 119.231C77.82 118.975 78.1007 118.728 78.3871 118.488C79.063 117.92 79.7586 117.376 80.466 116.849C80.951 116.453 81.4671 116.096 82.0093 115.783C82.9391 115.301 82.1174 113.896 81.188 114.378L81.1866 114.379Z" fill="#211715"/>
    <path d="M85.3174 115.98C83.0287 117.58 80.8092 119.279 78.6018 120.988C78.4503 121.141 78.3652 121.348 78.3652 121.563C78.3652 121.778 78.4503 121.985 78.6018 122.138C78.7569 122.286 78.9629 122.368 79.177 122.368C79.3912 122.368 79.5972 122.286 79.7523 122.138C80.1305 121.845 80.62 121.469 81.0742 121.121C81.6292 120.697 82.1858 120.276 82.744 119.856C83.8642 119.016 84.9923 118.186 86.1404 117.382C86.3225 117.269 86.4543 117.091 86.5086 116.884C86.5629 116.676 86.5356 116.456 86.4322 116.269C86.322 116.084 86.1436 115.95 85.9354 115.895C85.7272 115.84 85.5058 115.87 85.3191 115.977L85.3174 115.98Z" fill="#211715"/>
    <path d="M87.3804 118.965C85.0704 120.51 82.8942 122.257 80.6466 123.891C80.465 124.004 80.3336 124.182 80.2794 124.389C80.2251 124.596 80.252 124.816 80.3547 125.004C80.4647 125.189 80.6432 125.323 80.8515 125.378C81.0598 125.433 81.2812 125.403 81.4679 125.296C83.7155 123.662 85.8914 121.915 88.2017 120.37C88.3842 120.257 88.5164 120.079 88.5707 119.872C88.6251 119.664 88.5974 119.444 88.4936 119.257C88.3832 119.072 88.2048 118.938 87.9966 118.883C87.7885 118.829 87.5672 118.858 87.3804 118.965Z" fill="#211715"/>
    <path d="M59.5614 55.7723C60.3207 57.622 61.3803 59.3603 62.3674 61.0941C63.446 62.9885 64.5473 64.8688 65.7058 66.7158C66.416 67.8476 67.1393 68.974 67.9257 70.0542C68.0388 70.2359 68.2172 70.3674 68.4242 70.4217C68.6312 70.476 68.8512 70.4489 69.0389 70.3461C69.224 70.2361 69.3584 70.0578 69.413 69.8495C69.4676 69.6413 69.438 69.4199 69.3307 69.2333C66.7688 65.7135 64.6191 61.8577 62.5233 58.0474C62.2379 57.5281 61.9559 57.0068 61.6844 56.4804C61.5708 56.2601 61.459 56.0398 61.3512 55.8154C61.2986 55.7069 61.2468 55.5981 61.1969 55.4886C61.1817 55.4547 61.1668 55.4208 61.1515 55.3869C61.0556 55.1754 61.2102 55.5333 61.1302 55.3388C61.0671 55.1344 60.9285 54.9618 60.7426 54.8562C60.5566 54.7505 60.3374 54.7198 60.1295 54.7703C59.9222 54.8288 59.7462 54.9667 59.6399 55.1541C59.5335 55.3415 59.5053 55.5633 59.5614 55.7713V55.7723Z" fill="#211715"/>
    <path d="M77.1718 55.145C76.0352 57.0964 74.8865 59.0431 73.7096 60.9687C72.7249 62.5812 71.6683 64.1268 70.584 65.6725C69.88 66.6759 69.1783 67.6809 68.4661 68.6785C68.3591 68.8652 68.3297 69.0865 68.3843 69.2948C68.4388 69.503 68.5731 69.6814 68.758 69.7916C68.9453 69.896 69.1658 69.9239 69.3732 69.8695C69.5807 69.8151 69.7591 69.6826 69.8711 69.4998C71.047 67.8521 72.2029 66.1898 73.3655 64.5326C74.6153 62.7513 75.6976 60.8419 76.8077 58.9736C77.4016 57.9736 77.9913 56.9714 78.5768 55.967C79.1049 55.0606 77.6992 54.2406 77.1718 55.1457V55.145Z" fill="#211715"/>
    <path d="M59.9477 54.9984C58.7977 55.7042 57.7552 56.5718 56.8523 57.5745C56.599 57.81 56.4297 58.1219 56.3703 58.4626C56.3571 58.6138 56.3564 58.7677 56.3513 58.9192C56.3364 59.3514 56.329 59.7839 56.3225 60.2161C56.2925 62.3274 56.2966 64.4393 56.3351 66.552C56.3368 66.7296 56.3959 66.902 56.5035 67.0433C56.6111 67.1846 56.7615 67.2874 56.9323 67.3364C57.5323 67.3931 58.1375 67.329 58.7122 67.1479C59.5525 66.9591 60.384 66.7283 61.21 66.4856C62.0693 66.233 62.9249 65.9649 63.7692 65.6666C64.3729 65.4859 64.956 65.2427 65.5091 64.9409C66.3986 64.3921 65.5823 62.9841 64.6878 63.5359C64.6132 63.5811 64.5364 63.6225 64.4577 63.66C64.399 63.6884 64.339 63.7138 64.2797 63.7413C64.1241 63.8138 64.4227 63.6844 64.2658 63.7477C63.959 63.8718 63.6489 63.9874 63.3367 64.0976C62.5232 64.3853 61.6978 64.645 60.8694 64.8897C60.0728 65.125 59.2718 65.348 58.4627 65.5368C58.1604 65.6076 57.8574 65.6687 57.5519 65.7246C57.4896 65.7361 57.2828 65.7476 57.5435 65.7286C57.4943 65.732 57.4455 65.7425 57.396 65.7436C57.2838 65.7463 57.0303 65.7046 57.3645 65.7676L57.9638 66.5513C57.9112 63.862 57.8594 61.1492 57.9977 58.4619L57.8868 58.8724C58.5899 57.8972 59.7471 57.0681 60.768 56.4031C61.6426 55.8343 60.828 54.4249 59.9471 54.9984H59.9477Z" fill="#211715"/>
    <path d="M77.6856 56.4022C78.708 57.0676 79.8645 57.896 80.5668 58.8716L80.456 58.4611C80.5956 61.1484 80.5438 63.8611 80.4899 66.5505L81.0871 65.7661C81.4173 65.7037 81.1837 65.7447 81.0746 65.7434C81.019 65.7434 80.9638 65.7312 80.9082 65.7271C81.159 65.7461 80.9878 65.7386 80.9268 65.7271C80.6248 65.6729 80.3252 65.6129 80.0262 65.5437C79.2049 65.3532 78.3914 65.1268 77.5826 64.8878C76.767 64.6468 75.9556 64.3913 75.1532 64.1082C74.8377 63.997 74.5258 63.8781 74.2143 63.7564C74.014 63.6777 74.3123 63.8025 74.1723 63.7384C74.1197 63.7147 74.0669 63.692 74.015 63.6669C73.9291 63.6261 73.8454 63.5808 73.7642 63.5313C72.8707 62.9802 72.0524 64.3869 72.9428 64.9363C73.496 65.2381 74.0791 65.4813 74.6828 65.662C75.5271 65.9603 76.3827 66.2284 77.2419 66.481C78.068 66.7237 78.8991 66.9555 79.7394 67.1433C80.3143 67.3244 80.9196 67.3885 81.5197 67.3318C81.6907 67.2834 81.8415 67.1807 81.9492 67.0393C82.0569 66.8978 82.1158 66.7252 82.1169 66.5474C82.1583 64.4363 82.1625 62.3244 82.1295 60.2115C82.123 59.7793 82.1152 59.3468 82.1006 58.9146C82.0956 58.7628 82.0949 58.6095 82.0817 58.458C82.0234 58.1169 81.8539 57.8047 81.5997 57.5699C80.6967 56.5673 79.6542 55.6997 78.5042 54.9938C77.6229 54.421 76.8094 55.829 77.6833 56.3985L77.6856 56.4022Z" fill="#211715"/>
    <path d="M95.3694 66.6264C96.9226 67.4556 98.3462 68.5076 99.5949 69.749C101.243 71.337 102.791 73.0265 104.228 74.8077C107.391 78.6475 110.191 82.752 113.159 86.7392C114.357 88.285 115.451 89.9084 116.435 91.5989C116.9 92.4038 117.278 93.256 117.562 94.1412C117.792 94.8315 117.877 95.562 117.812 96.2868C117.514 98.284 116.639 100.212 115.727 101.995C114.746 103.908 113.623 105.744 112.367 107.489C110.946 109.466 109.436 111.387 107.956 113.323C106.45 115.343 104.836 117.28 103.121 119.127C102.719 119.548 102.308 119.96 101.886 120.361L102.872 120.234C99.8101 117.906 97.2316 114.996 94.2749 112.541L94.402 113.527C95.4528 111.361 96.654 109.265 97.8174 107.159C99.1393 104.765 100.479 102.379 101.744 99.9541C102.223 99.0848 102.65 98.1875 103.023 97.2671C103.079 97.0588 103.051 96.8367 102.944 96.6489C102.838 96.4612 102.662 96.3229 102.454 96.2641C102.247 96.2115 102.026 96.2413 101.84 96.3471C101.653 96.453 101.515 96.6268 101.454 96.8322C101.431 96.8919 101.407 96.9505 101.384 97.0098C101.326 97.1596 101.467 96.8217 101.398 96.9759C101.385 97.0047 101.373 97.0336 101.36 97.062C101.278 97.2434 101.195 97.424 101.109 97.6044C100.909 98.0227 100.699 98.4362 100.486 98.848C99.9098 99.9608 99.3136 101.062 98.7129 102.161C97.3547 104.647 95.9673 107.117 94.6175 109.607C94.0623 110.631 93.5057 111.656 92.9973 112.704C92.9096 112.86 92.8746 113.041 92.8975 113.218C92.9204 113.396 93 113.561 93.1244 113.69C96.19 116.235 98.8746 119.222 102.051 121.637C102.207 121.727 102.387 121.763 102.566 121.74C102.744 121.717 102.91 121.636 103.037 121.51C106.824 117.909 109.79 113.52 112.961 109.395C114.259 107.703 115.432 105.917 116.469 104.054C117.593 102.132 118.48 100.081 119.111 97.946C119.385 97.0761 119.496 96.1629 119.439 95.2526C119.322 94.281 119.059 93.3325 118.659 92.4392C117.801 90.5689 116.737 88.8004 115.486 87.1666C112.586 83.1631 109.725 79.1196 106.658 75.2419C105.145 73.2957 103.531 71.4309 101.821 69.6554C100.455 68.2055 98.9245 66.92 97.2605 65.8251C96.9138 65.607 96.5572 65.4062 96.1907 65.2224C95.2568 64.755 94.4318 66.1583 95.3694 66.6271V66.6264Z" fill="#211715"/>
    <path d="M87.1299 75.7038C84.4582 75.717 81.7861 75.7445 79.1144 75.7665C78.5002 75.7719 77.8858 75.7769 77.2711 75.7814C76.7023 75.7855 76.0508 75.7106 75.5085 75.896C75.1238 76.0251 74.7965 76.2849 74.5835 76.6302C74.3941 77.014 74.3224 77.4453 74.3774 77.8698C74.3866 78.286 74.3961 78.7023 74.4058 79.1185C74.3605 79.5829 74.435 80.0511 74.6221 80.4785C75.2248 81.5245 76.5111 81.3448 77.5355 81.3408C78.6654 81.3365 79.796 81.3311 80.9275 81.3245C82.155 81.318 83.3823 81.3117 84.6093 81.3059C85.5299 81.3487 86.4521 81.339 87.3716 81.2767C87.7783 81.2365 88.1566 81.0502 88.4365 80.7523C88.7163 80.4544 88.8787 80.0652 88.8935 79.6568C88.9108 79.2592 88.8935 78.8572 88.8935 78.4592C88.8935 78.0864 88.9088 77.7074 88.8935 77.3335C88.8535 76.3573 88.0617 75.7492 87.1309 75.7038C86.0842 75.653 86.0869 77.2803 87.1309 77.3308C87.3255 77.3403 87.2665 77.3451 87.2665 77.5522V78.6677C87.3078 78.9814 87.3078 79.2991 87.2665 79.6127C87.2407 79.6931 87.2644 79.6402 87.2702 79.6354C87.1875 79.7032 86.999 79.6693 86.895 79.6693C85.0307 79.6717 83.1664 79.6839 81.3048 79.6937C80.2904 79.6992 79.2757 79.7043 78.2609 79.709C77.5697 79.7121 76.866 79.6792 76.1769 79.7209C76.0105 79.731 76.0468 79.689 76.0413 79.5799C76.0237 79.1643 76.0237 78.747 76.0142 78.3311C75.9683 78.036 75.9603 77.7361 75.9905 77.439C76.0851 77.4195 76.1817 77.411 76.2783 77.4135C77.3019 77.4162 78.326 77.3986 79.3493 77.3901C81.9427 77.3681 84.5354 77.342 87.1299 77.3291C88.1766 77.3257 88.1786 75.6987 87.1299 75.7038Z" fill="#211715"/>
    <path d="M74.9297 83.1671C74.9321 84.6904 74.9704 86.2137 74.9853 87.7367C74.9934 88.5895 74.9853 89.4427 74.9948 90.2955C74.9863 90.6084 75.059 90.9182 75.2057 91.1947C75.3524 91.4711 75.5682 91.705 75.832 91.8734C76.2924 92.0972 76.8062 92.1876 77.3153 92.1344L83.4912 92.1415L86.3701 92.1446C86.8956 92.1969 87.4226 92.0599 87.8561 91.7582C88.0909 91.5605 88.274 91.3085 88.3895 91.0241C88.5049 90.7397 88.5493 90.4315 88.5188 90.126C88.4649 87.8791 88.3354 85.631 88.3317 83.3834C88.3317 82.3366 86.7046 82.3346 86.7046 83.3834C86.7077 85.1934 86.7999 87.0042 86.8551 88.8129C86.8694 89.2827 86.8914 89.7539 86.8938 90.224C86.8958 90.5338 86.8317 90.5179 86.5331 90.5179L84.0099 90.5152L78.1593 90.5084H77.0228C76.7343 90.5084 76.6343 90.5538 76.6221 90.261C76.5906 89.4942 76.6221 88.7197 76.6143 87.9519C76.5998 86.3588 76.5591 84.7626 76.5567 83.1681C76.5567 82.1214 74.928 82.1194 74.9297 83.1681V83.1671Z" fill="#211715"/>
    <path d="M62.26 75.8343C59.5883 75.8746 56.9169 75.9316 54.2455 75.9824L52.3538 76.0163C51.7562 76.0268 51.0728 75.9485 50.52 76.2072C49.6224 76.6254 49.4987 77.4854 49.5221 78.3541C49.619 81.9598 49.7165 85.5653 49.8146 89.1705C49.8292 89.7193 49.8407 90.2677 49.8583 90.8162C49.8458 91.3007 50.0112 91.7731 50.3234 92.1439C50.8108 92.6835 51.4569 92.7222 52.1317 92.7015C54.7194 92.6222 57.3068 92.5475 59.894 92.4774C60.5254 92.4612 61.157 92.4459 61.7888 92.4317C62.4641 92.4171 63.1416 92.4195 63.6484 91.8941C64.1097 91.4151 64.1545 90.8396 64.149 90.2274L64.1084 85.8717L64.0555 80.2246L64.0372 78.262C64.061 77.8904 64.04 77.5174 63.9748 77.1508C63.8701 76.775 63.6462 76.4432 63.3368 76.2056C63.0274 75.9679 62.6491 75.8371 62.259 75.8329C61.2119 75.7882 61.2143 77.4152 62.259 77.46C62.4735 77.4695 62.4061 77.821 62.4078 78.0074L62.4224 79.5632L62.4698 84.6657L62.5139 89.3922C62.5176 89.7762 62.5386 90.1647 62.5247 90.5484C62.522 90.625 62.5356 90.7053 62.501 90.7457C62.4146 90.8474 62.1546 90.7972 62.0204 90.7999C61.7462 90.8056 61.472 90.8116 61.1977 90.8182C58.6863 90.8768 56.1753 90.9538 53.6639 91.0277L52.1707 91.0731C51.9335 91.0802 51.5623 91.1894 51.4881 90.9585C51.466 90.8112 51.4622 90.6617 51.4765 90.5135L51.4562 89.7511C51.3631 86.2659 51.2689 82.7806 51.1735 79.2951C51.1613 78.8382 51.1291 78.3765 51.1366 77.9193C51.1406 77.6735 51.1847 77.6633 51.4501 77.6589C51.9721 77.6506 52.4941 77.6413 53.0161 77.6311C55.5872 77.5837 58.1579 77.5295 60.7289 77.4854C61.2389 77.4761 61.749 77.4676 62.259 77.46C63.306 77.4457 63.3091 75.8187 62.26 75.8343Z" fill="#211715"/>
    <path d="M50.7329 83.3279C52.612 84.5501 54.6089 85.5811 56.6936 86.4053C58.6503 87.2411 60.6894 87.8691 62.7773 88.2788C62.9852 88.3301 63.2048 88.2997 63.391 88.194C63.5772 88.0882 63.7158 87.9151 63.7782 87.7103C63.8337 87.5023 63.8051 87.2808 63.6988 87.0937C63.5925 86.9065 63.4169 86.7686 63.2098 86.7097C61.1671 86.3101 59.1714 85.6999 57.2545 84.8888C55.2589 84.0958 53.3489 83.102 51.5542 81.9228C50.6817 81.3385 49.8665 82.7472 50.7329 83.3279Z" fill="#211715"/>
    <path d="M87.9142 31.064C88.1098 30.9028 88.3359 30.783 88.5791 30.7118C88.8222 30.6405 89.0772 30.6193 89.3288 30.6494C89.5804 30.6795 89.8232 30.7603 90.0427 30.8869C90.2621 31.0135 90.4536 31.1833 90.6056 31.386C90.8691 31.882 90.9944 32.4397 90.9683 33.0008C91.0024 33.6893 90.9634 34.3794 90.852 35.0597C90.4409 37.4646 89.1735 40.397 86.4943 40.856C86.2873 40.9149 86.1117 41.0529 86.0054 41.2402C85.8991 41.4274 85.8707 41.6489 85.9262 41.8569C85.9877 42.0623 86.1261 42.2359 86.3125 42.3418C86.4989 42.4476 86.719 42.4774 86.9268 42.425C89.7002 41.9484 91.3459 39.3293 92.1049 36.8287C92.5044 35.5156 92.6662 34.1417 92.5825 32.7717C92.4953 31.428 92.0893 30.1644 90.8503 29.4651C90.2059 29.1101 89.4677 28.9627 88.7363 29.0427C88.005 29.1228 87.3162 29.4265 86.7638 29.9125C86.613 30.066 86.5285 30.2725 86.5285 30.4877C86.5285 30.7029 86.613 30.9095 86.7638 31.0629C86.9185 31.2115 87.1246 31.2944 87.339 31.2944C87.5535 31.2944 87.7596 31.2115 87.9142 31.0629V31.064Z" fill="#211715"/>
    <path d="M85.8699 39.6121C85.8255 40.3971 85.68 41.1732 85.4371 41.9211C85.3503 42.2123 85.2547 42.5004 85.1581 42.7882C85.132 42.8661 85.1069 42.9448 85.0785 43.0217C85.0561 43.082 84.9547 43.3085 85.0595 43.0749C84.706 43.845 84.2995 44.5895 83.8429 45.3033C82.559 47.4305 80.9195 49.3216 78.9957 50.8941C77.9464 51.7574 76.7196 52.3786 75.4027 52.7134C74.3828 52.9476 74.8143 54.5167 75.8352 54.2821C78.5663 53.6543 80.8519 51.6843 82.6518 49.6234C84.1636 47.9502 85.4268 46.0684 86.4028 44.0355C87.0489 42.6452 87.4207 41.1433 87.4976 39.6121C87.5315 38.565 85.9045 38.566 85.8706 39.6121H85.8699Z" fill="#211715"/>
    <path d="M51.3297 29.9136C50.8466 29.4857 50.2562 29.1973 49.6218 29.0789C48.9874 28.9606 48.3328 29.0169 47.7279 29.2417C46.3941 29.7678 45.728 30.8901 45.5585 32.271C45.2385 35.0008 45.9351 37.7528 47.5154 40.0015C48.372 41.2529 49.6815 42.1223 51.1674 42.4261C51.3752 42.4772 51.5946 42.4468 51.7807 42.3412C51.9668 42.2355 52.1054 42.0626 52.168 41.858C52.2235 41.65 52.1951 41.4284 52.0888 41.2412C51.9826 41.054 51.8069 40.916 51.5999 40.857C48.9221 40.397 47.6533 37.4647 47.2422 35.0607C47.135 34.4055 47.0951 33.7411 47.1232 33.0778C47.1435 32.5168 47.1686 31.8714 47.4886 31.387C47.6404 31.1842 47.8319 31.0142 48.0514 30.8875C48.2708 30.7608 48.5137 30.6799 48.7653 30.6498C49.0169 30.6197 49.2721 30.641 49.5152 30.7124C49.7584 30.7837 49.9845 30.9037 50.18 31.065C50.3351 31.2125 50.5411 31.2948 50.7552 31.2948C50.9693 31.2948 51.1752 31.2125 51.3304 31.065C51.4812 30.9115 51.5657 30.705 51.5657 30.4898C51.5657 30.2746 51.4812 30.068 51.3304 29.9146L51.3297 29.9136Z" fill="#211715"/>
    <path d="M50.7095 39.3486C51.7017 45.0733 54.8042 50.6761 60.1087 53.4386C61.5414 54.1855 63.1033 54.6527 64.7108 54.8155C64.9261 54.8142 65.1323 54.728 65.2845 54.5757C65.4368 54.4235 65.523 54.2173 65.5243 54.002C65.5196 53.7877 65.4324 53.5835 65.2808 53.4319C65.1293 53.2803 64.9251 53.1931 64.7108 53.1885C59.2409 52.6217 54.9791 47.7162 53.2609 42.7884C52.8281 41.5265 52.4993 40.2312 52.2779 38.9157C52.219 38.7087 52.0811 38.5331 51.8939 38.4268C51.7067 38.3205 51.4852 38.2921 51.2773 38.3476C51.0718 38.4091 50.8981 38.5475 50.7922 38.734C50.6863 38.9205 50.6564 39.1406 50.7088 39.3486H50.7095Z" fill="#211715"/>
    <path d="M87.7842 10.4596C83.5542 4.19386 75.8408 0.812012 69.0466 0.812012C60.6243 0.812012 48.2748 7.41198 47.1915 19.2517C46.9952 21.3932 46.8291 26.1438 47.4922 28.503C47.862 28.6603 48.1623 28.7891 48.1623 28.7891C49.7486 29.4704 55.3358 27.2533 58.1563 26.5753C61.1128 25.8635 65.5037 24.9724 69.0503 25.0469C72.5945 24.9734 76.982 25.8649 79.9378 26.5753C82.7583 27.2533 88.3441 29.4704 89.9318 28.7891C89.9318 28.7891 90.2322 28.6603 90.602 28.503C91.265 26.1438 91.0989 21.3932 90.9026 19.2517C90.6283 16.1033 89.555 13.0771 87.7842 10.4596Z" fill="#7159C1"/>
    <path d="M48.4187 28.7168C47.9858 27.5545 47.9217 26.3149 47.8675 25.0861C47.8051 23.6737 47.8251 22.2565 47.8963 20.8447C48.0275 18.2323 48.5142 15.7056 49.6969 13.3512C52.0073 8.7501 56.2925 5.29131 60.9776 3.3643C62.1125 2.89639 63.2803 2.513 64.4717 2.21724C65.539 1.94484 66.6276 1.76408 67.7257 1.67693C70.1243 1.51379 72.5329 1.76911 74.844 2.43147C79.885 3.81783 84.5868 6.89935 87.4039 11.3642C88.9075 13.7453 89.8277 16.4477 90.0899 19.2515C90.3272 21.8294 90.4289 24.5974 90.056 27.1314C89.9857 27.672 89.8588 28.2037 89.6774 28.7178C89.6219 28.9258 89.6504 29.1472 89.7567 29.3344C89.8629 29.5215 90.0385 29.6595 90.2455 29.7184C90.4535 29.7711 90.6738 29.7412 90.8603 29.6351C91.0468 29.5291 91.185 29.355 91.2461 29.1493C91.7068 27.9117 91.7884 26.5105 91.8498 25.2034C91.9206 23.7184 91.8989 22.2277 91.8213 20.7433C91.7266 17.8297 91.0401 14.9658 89.8035 12.3258C87.2968 7.17934 82.534 3.43717 77.2259 1.48711C74.7001 0.552347 72.035 0.0496377 69.3422 7.69526e-05C66.9049 -0.00639314 64.4837 0.395179 62.1789 1.18815C57.007 2.9111 52.2168 6.2238 49.2491 10.8513C47.6758 13.3136 46.7007 16.11 46.4018 19.0166C46.0731 21.8406 46.0939 24.6943 46.4639 27.5131C46.5347 28.0706 46.6641 28.619 46.8499 29.1493C46.9122 29.3541 47.0508 29.5272 47.2369 29.6329C47.4231 29.7386 47.6427 29.7689 47.8506 29.7174C48.0577 29.6587 48.2334 29.5208 48.3397 29.3335C48.446 29.1463 48.4744 28.9248 48.4187 28.7168Z" fill="#211715"/>
    <path d="M69.0461 16.3152C65.6249 16.1606 62.1099 17.2744 58.9755 18.5408C55.8004 19.8238 52.747 21.4166 50.2922 23.8473C48.9523 25.1737 47.5588 26.8444 47.3477 28.788C47.3499 28.9656 47.4091 29.1377 47.5167 29.279C47.6242 29.4203 47.7744 29.5233 47.9449 29.5727C48.8632 29.9425 50.058 29.6622 50.9817 29.466C52.3067 29.1846 53.6046 28.7799 54.8977 28.3813C57.652 27.5102 60.4632 26.8307 63.3112 26.3475C66.6756 25.7778 70.1062 25.7122 73.4899 26.1529C76.4491 26.5522 79.3699 27.1967 82.2223 28.0796C83.6938 28.5348 85.1622 29.0128 86.6628 29.3677C87.7054 29.6134 89.1002 29.9971 90.1473 29.5751C90.3173 29.5246 90.4667 29.4214 90.5741 29.2803C90.6815 29.1392 90.7412 28.9677 90.7446 28.7904C90.5598 27.0912 89.4616 25.6272 88.3379 24.4052C87.1085 23.0778 85.698 21.9305 84.148 20.9973C81.1692 19.2229 77.9497 17.8882 74.5892 17.0345C72.787 16.523 70.9191 16.2806 69.0461 16.3152C68.0031 16.3623 67.9974 17.9897 69.0461 17.9422C72.208 17.7995 75.4281 18.8283 78.3358 19.9709C81.2258 21.1068 84.0643 22.5497 86.3374 24.6961C87.0724 25.3674 87.7281 26.1206 88.2918 26.941C88.5182 27.2727 88.715 27.6235 88.8803 27.9894C88.9383 28.1306 88.9889 28.2748 89.0318 28.4213C89.048 28.4779 89.0633 28.5352 89.0772 28.5908C89.0843 28.6219 89.1335 28.9365 89.1172 28.7863L89.7144 28.002C89.6423 28.03 89.5685 28.0536 89.4935 28.0728C89.4477 28.085 89.4002 28.0915 89.3534 28.0996C89.3812 28.0949 89.5395 28.0843 89.3873 28.0915C89.1736 28.1028 88.9593 28.1011 88.7457 28.0864C88.2236 28.0341 87.7059 27.9445 87.1966 27.8183C85.8618 27.5101 84.5527 27.0966 83.2457 26.6905C80.5249 25.8376 77.7461 25.1824 74.9309 24.73C71.4934 24.1595 67.9912 24.0927 64.5345 24.5317C61.578 24.9109 58.658 25.5345 55.8045 26.396C54.3273 26.8492 52.8555 27.3318 51.3573 27.7084C51.0254 27.7918 50.6919 27.8694 50.3566 27.9369C50.096 27.9891 49.7146 28.0525 49.5889 28.0654C49.3394 28.0944 49.0882 28.1058 48.8371 28.0993C48.7828 28.0972 48.7286 28.0918 48.6744 28.0891C48.6001 28.085 48.833 28.1359 48.6537 28.0847C48.5604 28.0622 48.4684 28.0347 48.3781 28.0023L48.9754 28.7867C48.9621 28.9077 49.0204 28.5694 49.0371 28.506C49.076 28.3564 49.1237 28.2093 49.1801 28.0654C49.3188 27.7416 49.4842 27.4299 49.6746 27.1336C50.1268 26.4339 50.6524 25.7846 51.2427 25.1967C52.3667 24.0483 53.6392 23.0555 55.0265 22.2447C57.849 20.6034 60.8885 19.3676 64.0555 18.5737C65.6794 18.1207 67.3609 17.9083 69.0464 17.9432C70.0932 17.9897 70.0908 16.3623 69.0461 16.3152Z" fill="#211715"/>
    <path d="M65.8729 45.1191C66.9442 45.6724 68.1371 45.9479 69.3425 45.9205C70.577 45.9123 71.8339 45.6734 72.824 44.9036C72.9755 44.7504 73.0605 44.5437 73.0605 44.3283C73.0605 44.113 72.9755 43.9062 72.824 43.7531C72.669 43.6054 72.463 43.5229 72.2488 43.5229C72.0346 43.5229 71.8286 43.6054 71.6736 43.7531C71.9142 43.5653 71.7054 43.7243 71.6437 43.7636C71.5732 43.8091 71.5004 43.8507 71.4261 43.8897C71.3746 43.9168 71.1194 44.0233 71.3221 43.946C71.2224 43.984 71.1234 44.0226 71.0217 44.0551C70.443 44.2396 69.8362 44.3208 69.2293 44.2948C68.6512 44.31 68.0745 44.2319 67.5213 44.0636C67.4111 44.0297 67.304 43.9914 67.1955 43.9541C67.1616 43.9423 67.126 43.924 67.0904 43.9135C67.2904 43.9721 67.1477 43.9389 67.0945 43.9135C66.9589 43.8501 66.8274 43.784 66.6956 43.7141C66.5082 43.6098 66.2878 43.5819 66.0804 43.6363C65.8731 43.6907 65.6947 43.8231 65.5827 44.006C65.4761 44.1928 65.4469 44.414 65.5015 44.6221C65.5561 44.8302 65.69 45.0087 65.8746 45.1191H65.8729Z" fill="#211715"/>
    <path d="M68.9763 36.8856C69.1386 37.4709 69.2684 38.0648 69.3651 38.6645L69.3363 38.4482C69.3477 38.5296 69.3499 38.6121 69.3427 38.694L69.3719 38.4777C69.3664 38.5152 69.3573 38.5521 69.3447 38.5879L69.4268 38.3937C69.4161 38.4186 69.4031 38.4424 69.3878 38.4648L69.5152 38.3001C69.4979 38.3212 69.4783 38.3404 69.4569 38.3574L69.6217 38.2303C69.5764 38.2583 69.5293 38.2832 69.4807 38.3048L69.6752 38.2228C69.5991 38.2548 69.5195 38.2775 69.4379 38.2906L69.6542 38.2615C69.5801 38.2704 69.5052 38.2704 69.4312 38.2615L69.6474 38.2906C69.5634 38.2787 69.481 38.2584 69.3969 38.2472C69.185 38.1975 68.9622 38.2267 68.7702 38.3293C68.5839 38.4381 68.4485 38.6165 68.3938 38.8252C68.3391 39.0339 68.3695 39.2558 68.4783 39.4421C68.53 39.5338 68.5997 39.6142 68.6832 39.6782C68.7668 39.7423 68.8624 39.7888 68.9644 39.8149C69.1468 39.8397 69.3241 39.8865 69.5098 39.8946C69.7851 39.8964 70.0569 39.8322 70.3023 39.7075C70.4561 39.6389 70.5924 39.5365 70.7012 39.408C70.81 39.2795 70.8885 39.1281 70.9307 38.9651C70.9862 38.6974 70.9834 38.4209 70.9223 38.1543C70.8253 37.5812 70.6931 37.0131 70.5457 36.4511C70.4883 36.243 70.3507 36.0662 70.163 35.9596C69.9753 35.8531 69.753 35.8254 69.5449 35.8828C69.3368 35.9401 69.1601 36.0778 69.0535 36.2655C68.9469 36.4532 68.9193 36.6755 68.9766 36.8836L68.9763 36.8856Z" fill="#211715"/>
    <path d="M59.4746 31.8738C59.1776 32.8392 59.3712 35.0601 61.2002 35.2492C63.6174 35.2346 63.7462 32.5497 62.9323 31.2871C62.2663 30.2536 60.3071 29.8237 59.4746 31.8738Z" fill="#211715"/>
    <path d="M78.8319 31.8738C79.1292 32.8395 78.9356 35.0601 77.1066 35.2492C74.6891 35.2346 74.5606 32.5497 75.3741 31.2871C76.0406 30.2536 77.9994 29.8237 78.8319 31.8738Z" fill="#211715"/>
</svg>